<?xml version="1.0" encoding="UTF-8" standalone="no"?>
<!-- Created with Inkscape (http://www.inkscape.org/) -->

<svg
   version="1.1"
   id="svg1"
   width="1920"
   height="1080"
   viewBox="0 0 1920 1080"
   xmlns="http://www.w3.org/2000/svg"
   xmlns:svg="http://www.w3.org/2000/svg">
  <defs
     id="defs1" />
  <g
     id="g1">
    <path
       style="fill:#000000;stroke-width:1.3751"
       d="m 941.65367,949.51374 c -0.72782,-2.88353 -2.42744,-11.12131 -3.77696,-18.30619 -1.34952,-7.18489 -2.8293,-13.52649 -3.28842,-14.09244 -1.85697,-2.28911 -31.37623,-12.37764 -37.14194,-12.69366 -3.40337,-0.18655 -9.9007,-2.0577 -14.43852,-4.15812 -6.60898,-3.05909 -10.05648,-3.78391 -17.32685,-3.64289 -8.7461,0.16965 -9.23858,-0.003 -13.53853,-4.72767 -4.41352,-4.85012 -4.56233,-4.89691 -13.61286,-4.28123 -5.0328,0.34238 -13.17272,1.7795 -18.08869,3.19363 -7.63475,2.19621 -13.44983,2.54878 -39.87782,2.41779 -45.96989,-0.22784 -64.74774,-3.23298 -73.89435,-11.82578 -1.7111,-1.60751 -3.1111,-3.99725 -3.1111,-5.31056 0,-1.46471 -2.36025,-3.5304 -6.10529,-5.34334 -7.1358,-3.45438 -12.24218,-12.1426 -11.58945,-19.71881 0.3027,-3.5135 -0.64425,-5.87722 -3.97177,-9.91407 -4.81224,-5.8381 -6.82911,-14.38507 -4.6984,-19.91064 1.0998,-2.85213 0.72546,-4.07693 -2.19754,-7.18994 -6.66814,-7.10164 -4.24399,-19.07412 5.27076,-26.03141 2.42372,-1.77226 38.72985,-10.78176 43.44789,-10.78176 0.25864,0 0.47026,-0.54373 0.47026,-1.20827 0,-1.34211 -5.37072,-3.60899 -11.68833,-4.9334 -7.26908,-1.52388 -17.77235,-7.62845 -21.31401,-12.38787 -3.72227,-5.00211 -7.26336,-6.20562 -18.39193,-6.25087 -9.38652,-0.0382 -23.02958,-2.98981 -27.56974,-5.96462 -2.01689,-1.32153 -4.32103,-3.83805 -5.12032,-5.59229 -0.88191,-1.93559 -3.52051,-3.8089 -6.71152,-4.76495 -6.10416,-1.82885 -12.33645,-8.53338 -12.33645,-13.2712 0,-2.01607 -1.19448,-3.89976 -3.09397,-4.87917 -6.1876,-3.19045 -9.28191,-7.11518 -9.28191,-11.77287 0,-5.07078 3.12014,-7.82055 10.657,-9.39196 2.45799,-0.51248 4.46907,-1.78904 4.46907,-2.8368 0,-3.34334 7.13428,-5.65817 33.49319,-10.86738 15.79992,-3.12247 51.36216,-2.87292 70.50414,0.49476 8.22172,1.44645 15.93233,3.0216 17.13471,3.50033 1.22731,0.48865 2.95966,-0.0617 3.94988,-1.25483 2.82431,-3.4031 9.69144,-2.48529 20.63105,2.75738 5.60357,2.68543 13.32102,5.54697 17.14993,6.35896 3.82889,0.81201 9.74619,2.93374 13.14956,4.71499 12.59597,6.59242 44.93634,28.03239 52.46183,34.77944 6.71753,6.02267 18.14726,19.70528 21.57038,25.82205 0.90564,1.61829 2.12837,1.67012 7.22738,0.30636 5.31073,-1.42041 8.44315,-1.18256 23.25832,1.7661 l 17.12103,3.4076 13.09201,-3.01814 c 7.20061,-1.65998 17.11417,-3.76571 22.03014,-4.67939 4.91598,-0.91368 10.17572,-1.93812 11.68833,-2.27652 3.11405,-0.69668 30.38777,-34.49573 42.14624,-52.22986 16.4472,-24.80576 36.3112,-70.80872 41.7424,-96.67109 0.7122,-3.39109 2.0312,-5.04284 4.8886,-6.12136 3.4244,-1.29256 4.0501,-2.43017 5.0088,-9.10669 1.7747,-12.35794 1.2845,-53.34972 -0.7654,-64.00861 -4.6619,-24.24072 -9.6918,-41.94047 -11.9185,-41.94047 -0.9107,0 -6.2272,1.89274 -11.8144,4.2061 -21.0529,8.71685 -42.96279,10.84086 -54.45245,5.27882 -10.71778,-5.18838 -16.84473,-17.50935 -16.88161,-33.94798 -0.0151,-6.72804 -0.44317,-7.68037 -5.6999,-12.681 -5.39292,-5.13014 -5.64709,-5.7304 -4.97009,-11.73674 0.56873,-5.0458 0.25716,-6.49098 -1.53568,-7.12316 -7.29819,-2.57335 -9.11318,-10.7168 -4.99195,-22.39762 2.59311,-7.34965 1.60206,-8.65295 -8.25769,-10.85946 -4.17737,-0.93486 -9.44443,-3.25575 -11.70458,-5.15754 -6.78967,-5.71314 -5.89283,-12.55187 4.1493,-31.63978 14.70861,-27.95783 19.30436,-41.90331 16.35005,-49.61306 -3.7274,-9.72727 -8.28686,-29.81669 -9.58721,-42.24213 -1.43381,-13.70081 -1.43973,-13.71632 -7.50329,-19.69424 -3.33759,-3.29045 -8.09625,-10.10188 -10.5748,-15.13653 -4.08437,-8.29655 -4.50595,-10.3157 -4.50121,-21.55868 0.007,-14.76656 1.39912,-17.95126 12.82483,-29.32286 18.62513,-18.5369 53.09692,-36.90281 85.48938,-45.5471 49.3769,-13.17676 95.878,-14.33819 140.2583,-3.50312 20.2208,4.93673 24.7863,6.58459 41.9421,15.13852 30.2224,15.06902 50.1384,35.98405 65.5192,68.8058 2.973,6.34413 10.5696,27.17144 16.8815,46.28289 6.3118,19.11144 12.6832,37.53266 14.1586,40.93603 15.9979,36.90296 19.2484,68.46809 9.948,96.60449 -5.0362,15.23601 -15.8555,35.68831 -23.22,43.894 -13.1506,14.65267 -30.7601,24.85887 -56.4729,32.73079 -7.9412,2.43119 -14.9687,4.92251 -15.6167,5.53628 -1.9012,1.80063 6.0496,30.15953 13.0042,46.38402 1.9732,4.60325 3.2335,5.86677 5.852,5.86677 2.7333,0 5.1253,2.74211 13.2166,15.15107 36.4384,55.88273 58.9589,125.8245 68.178,211.73999 2.7679,25.79497 2.6751,30.25214 -0.6297,30.25214 -2.3199,0 -2.7274,-1.40572 -3.4878,-12.0321 -5.1077,-71.37245 -22.7165,-139.8413 -49.7759,-193.54495 -8.2193,-16.31267 -25.5366,-44.69067 -27.2718,-44.69067 -0.3953,0 -4.3332,3.61452 -8.7509,8.03225 -19.1452,19.14514 -62.6677,40.24118 -107.1437,51.93425 -16.4742,4.33116 -21.1652,5.00093 -36.6002,5.22559 l -17.7041,0.25769 -3.1785,10.93446 c -13.8971,47.80892 -32.2776,82.26589 -65.24798,122.31733 -23.54077,28.59663 -32.69843,46.31455 -35.1534,68.01373 -0.74612,6.59481 -0.54913,8.30486 0.95697,8.30751 4.06216,0.007 39.37671,2.75531 45.55581,3.54514 4.2997,0.54958 6.5317,1.49564 6.5317,2.7685 0,2.33312 -7.4387,2.49545 -29.56456,0.64512 -8.31934,-0.69571 -26.4729,-1.69201 -40.34126,-2.21399 l -25.21518,-0.94903 2.20966,4.273 c 3.06269,5.9226 5.70266,26.05788 3.68149,28.07905 -2.69701,2.69701 -4.43817,-0.92778 -5.82974,-12.13647 -2.10144,-16.9265 -3.1398,-17.91927 -24.28517,-23.21866 -20.84947,-5.22524 -24.86009,-4.76314 -20.36431,2.34634 2.68614,4.24778 4.94957,16.0802 4.94957,25.87472 0,11.69239 -3.6472,26.5887 -9.01298,36.81178 l -4.59904,8.7623 6.46223,-0.83308 c 5.38943,-0.69478 8.40265,-0.0417 18.15057,3.93422 6.42858,2.62201 11.79896,4.77771 11.93419,4.79043 0.13517,0.0124 2.56141,-2.1607 5.39151,-4.82984 3.6066,-3.40148 5.5792,-4.41941 6.59519,-3.40342 1.01599,1.01599 0.91196,2.31033 -0.34779,4.32754 -0.98855,1.58289 -1.28245,3.38309 -0.65312,4.00044 0.62931,0.61733 7.02276,3.27062 14.20764,5.89621 14.25469,5.2091 59.22199,24.06083 60.7908,25.48545 0.53574,0.48649 0.43819,1.7516 -0.21677,2.81134 -1.34623,2.17824 -0.55392,2.42651 -24.65672,-7.72611 -7.85055,-3.30682 -14.49846,-5.78767 -14.77314,-5.51301 -0.27466,0.27468 0.82983,6.63989 2.45441,14.14494 3.694,17.0649 3.77927,18.94577 0.88559,19.53294 -1.70582,0.34615 -2.68479,-0.93197 -3.6535,-4.76992 z M 819.75335,885.28055 c 5.71536,-1.29627 12.03342,-3.87489 15.55261,-6.34756 6.1018,-4.28731 9.23601,-4.27294 8.1089,0.0371 -0.48302,1.84703 0.38244,2.66107 3.48983,3.28256 9.34757,1.86951 10.61125,1.29163 13.97976,-6.39284 4.00068,-9.12663 6.92305,-27.80441 5.69538,-36.4009 -2.09338,-14.65843 -3.18426,-16.84184 -9.83994,-19.69479 -8.43625,-3.61621 -16.30662,-9.17915 -35.15605,-24.84903 -26.77561,-22.25906 -42.7608,-31.75171 -60.95968,-36.20035 -17.314,-4.23231 -35.71224,-9.30694 -37.73547,-10.40826 -1.16248,-0.63279 -3.30272,-0.21464 -5.17268,1.0106 -4.00471,2.62399 -9.46025,1.63505 -17.7364,-3.2151 -3.81317,-2.23467 -5.93355,-4.34701 -5.49935,-5.47851 0.91279,-2.3787 -0.84315,-3.44711 -3.23542,-1.96862 -1.53616,0.94941 -1.5682,2.21654 -0.18026,7.12853 2.93281,10.37945 9.26327,15.71576 24.05565,20.27792 5.22498,1.61145 11.58712,4.21986 14.1381,5.79645 3.93333,2.43092 6.35217,2.79316 15.91768,2.3838 9.68135,-0.41432 11.34264,-0.15719 11.72483,1.81478 0.36123,1.86381 -1.06232,2.45213 -7.54138,3.1167 -13.14234,1.34805 -26.57932,3.54247 -38.2388,6.24485 -6.05043,1.40236 -14.50772,3.25347 -18.79398,4.11361 -9.95365,1.99745 -14.8959,6.56493 -14.8959,13.76637 0,8.96414 3.05845,10.36524 22.22648,10.18206 14.37663,-0.13737 16.35326,0.11647 15.98049,2.05206 -0.55147,2.8636 -5.86292,3.92939 -20.58181,4.12997 -10.69977,0.1458 -12.03109,0.45144 -12.82213,2.94378 -1.32628,4.17875 0.51271,10.53943 4.37383,15.1281 3.04507,3.61887 4.31147,4.09236 10.94546,4.09236 4.12607,0 11.5189,-1.00902 16.42848,-2.24227 9.21448,-2.3146 11.08966,-2.05305 9.77845,1.3639 -0.87633,2.28372 -17.27851,6.37876 -25.54932,6.37876 -3.02036,0 -5.89881,0.65895 -6.39655,1.46433 -1.69429,2.74139 0.79849,10.59232 4.55761,14.35403 3.53482,3.53729 4.25675,3.70324 12.68624,2.91617 4.91598,-0.459 11.00983,-1.22841 13.54189,-1.70981 3.99224,-0.75897 4.54019,-0.53223 4.12516,1.70702 -0.3544,1.91216 -2.70889,3.11666 -9.07282,4.64152 -4.72683,1.13258 -8.59423,2.81016 -8.59423,3.72794 0,3.52002 6.29916,7.26511 15.67822,9.32131 22.34903,4.89963 76.33019,5.76966 95.01712,1.53143 z m -65.31712,-5.96922 c -2.25281,-0.73598 -5.50039,-4.34979 -5.50039,-6.12069 0,-1.92169 3.30114,-1.15624 6.87548,1.59424 3.56624,2.74426 2.62758,5.83407 -1.37509,4.52645 z m -12.10086,-26.75935 c -1.85131,-1.85131 -2.26106,-7.97556 -0.53362,-7.97556 1.11998,0 7.13409,7.48799 7.13409,8.88245 0,1.41663 -4.95819,0.73539 -6.60047,-0.90689 z m -4.09434,-22.49205 c -3.13801,-2.19795 -4.17869,-6.10997 -1.62539,-6.10997 1.90322,0 9.57,5.7153 9.57,7.13408 0,1.85853 -4.69271,1.2536 -7.94461,-1.02411 z M 732.62476,805.227 c -4.23454,-2.96599 -1.89474,-5.37143 3.03846,-3.12371 3.74363,1.70571 5.03072,5.3455 1.89026,5.3455 -0.96618,0 -3.1841,-0.99981 -4.92872,-2.22179 z m 215.08556,6.69085 c 2.3786,-13.85803 6.61447,-27.88301 11.27709,-37.33844 2.83313,-5.7454 5.38535,-10.99407 5.67158,-11.66369 0.29032,-0.67917 -1.8377,-0.7929 -4.81284,-0.25721 -7.68597,1.38393 -28.61505,6.43069 -29.23996,7.05083 -0.29152,0.28929 0.38035,1.93759 1.49307,3.66287 2.86146,4.4368 5.22491,14.83937 5.22491,22.99717 0,6.03738 -0.36254,6.95412 -2.75019,6.95412 -2.28612,0 -2.7502,-0.91674 -2.7502,-5.43271 0,-8.88149 -2.86305,-19.55691 -6.1179,-22.81177 -2.10579,-2.10578 -7.78329,-4.15491 -18.42748,-6.65086 -19.97708,-4.68442 -26.60143,-4.71427 -22.39069,-0.10093 3.39499,3.71965 5.68315,15.62933 5.68315,29.58042 0,14.04527 0.14197,14.7678 3.09397,15.74653 1.70168,0.5642 12.37588,1.45386 23.72043,1.97703 11.34455,0.52317 22.6095,1.06192 25.03322,1.19721 4.07912,0.22772 4.47256,-0.13737 5.29184,-4.91061 z m -87.89256,-1.05878 c 3.04045,-1.61343 6.36912,-1.88654 14.59571,-1.19753 l 10.657,0.89256 -0.0602,-12.8972 c -0.0734,-15.72291 -3.14361,-26.41924 -7.77231,-27.07787 -1.9481,-0.2772 -6.24982,-4.76798 -12.12218,-12.65492 -5.00639,-6.7239 -12.67532,-15.50306 -17.04208,-19.50924 -9.79864,-8.98959 -38.05894,-26.53535 -42.73945,-26.53535 -1.89523,0 -3.52575,-0.77349 -3.62338,-1.71887 -0.0976,-0.94538 -0.25488,-2.26147 -0.34942,-2.92464 -0.0946,-0.66317 -3.34949,-2.57272 -7.23322,-4.24345 -5.36142,-2.30642 -8.25795,-2.78844 -12.0321,-2.00224 -6.36283,1.32546 -7.72963,1.1112 -15.62777,-2.44969 -6.34933,-2.86261 -8.31037,-5.71623 -4.81284,-7.00343 0.94538,-0.34794 0.0186,-1.08503 -2.05957,-1.63799 -6.37291,-1.69574 -8.36954,-0.0609 -7.53396,6.16884 0.96867,7.22191 8.74259,17.623 17.83237,23.85867 9.16127,6.28474 22.93163,11.89171 29.20524,11.89171 3.51201,0 4.84016,0.60132 4.84016,2.19139 0,1.20526 -1.27258,2.52417 -2.82797,2.93091 -1.94454,0.50851 -2.54869,1.43482 -1.93395,2.96523 0.49171,1.22414 2.02586,5.71467 3.40924,9.97897 3.09934,9.55383 7.3159,17.96727 10.20726,20.3669 1.66269,1.37989 1.80977,2.25556 0.61969,3.68952 -0.85824,1.03412 -2.07197,1.8802 -2.69717,1.8802 -2.78939,0 -9.01464,-10.94727 -13.53805,-23.80701 l -4.92738,-14.00817 -12.47547,-6.18794 c -6.8615,-3.40336 -14.9972,-8.20086 -18.07931,-10.6611 -6.86012,-5.47594 -13.99777,-16.29938 -15.0582,-22.834 -0.96426,-5.94207 -2.8447,-6.72088 -24.11021,-9.98558 -11.4577,-1.759 -15.51492,-1.95127 -15.91398,-0.75412 -0.6212,1.86361 -4.4317,2.19906 -4.4317,0.39013 0,-2.19433 -14.18112,-3.01695 -27.65502,-1.60422 -15.00577,1.57335 -17.72319,2.33926 -17.72319,4.99533 0,5.10607 -21.05596,8.76524 -22.89286,3.97839 -0.62074,-1.61765 -1.24028,-1.73647 -2.70703,-0.51918 -1.04613,0.86821 -1.90206,2.31523 -1.90206,3.21557 0,2.57725 7.36123,8.96429 11.79184,10.2313 4.60574,1.3171 51.31436,-0.0898 53.77969,-1.61988 2.36937,-1.47053 33.5213,2.86154 42.00991,5.84199 11.24885,3.94963 12.05203,4.37134 12.05203,6.32791 0,3.29685 -2.10167,3.26585 -11.56936,-0.17074 -12.08195,-4.3855 -38.34668,-7.93671 -44.8678,-6.06648 -2.60508,0.74713 -15.94724,1.35842 -29.64923,1.35842 -24.40671,0 -25.01719,-0.071 -30.05653,-3.49068 -4.03208,-2.73626 -5.56029,-3.14504 -7.07079,-1.89145 -1.12552,0.9341 -3.71105,1.24243 -6.21653,0.74134 -7.71043,-1.54209 -1.81909,2.96521 7.73135,5.91504 13.12413,4.05363 27.5162,5.59649 52.69975,5.64954 14.62461,0.0308 26.17166,0.7606 31.87151,2.01434 4.91597,1.08132 11.80163,1.98777 15.30148,2.01434 7.06801,0.0536 11.67202,3.30051 7.98676,5.63244 -2.57171,1.6273 -1.33931,1.72848 -20.05763,-1.64671 -12.38066,-2.23242 -22.89925,-3.01994 -43.79598,-3.27897 -18.87632,-0.23397 -29.99016,-0.98293 -35.43535,-2.38798 -8.11807,-2.09473 -9.91641,-1.59327 -8.40559,2.34384 1.49396,3.89322 7.90292,6.05151 20.56253,6.9247 6.75269,0.46577 17.49346,1.47299 23.86834,2.23827 10.10969,1.21365 12.15708,1.08643 16.02318,-0.99561 4.22613,-2.27591 4.87079,-2.26756 13.84859,0.17933 5.22014,1.42274 14.62463,2.65633 21.10445,2.76826 6.42858,0.11111 12.79737,0.68759 14.15286,1.28122 4.61929,2.023 1.53304,4.18244 -5.70107,3.98904 -3.89219,-0.1041 -7.07669,0.005 -7.07669,0.24497 0,1.28243 17.6107,6.71171 29.56365,9.11432 23.21805,4.66696 42.71377,15.14026 68.42661,36.7595 14.74054,12.39378 31.14823,24.88792 32.6836,24.88792 0.56162,0 2.79352,-0.94054 4.95981,-2.09011 z M 684.05502,744.59276 c -0.57729,-2.99762 -6.16199,-4.21654 -24.50051,-5.34751 -13.86106,-0.85483 -14.34457,-0.79167 -12.08948,1.57904 2.97807,3.13077 15.53101,5.85599 27.66015,6.00497 8.14726,0.10011 9.3231,-0.19443 8.92984,-2.2365 z m 29.751,1.08155 c 0.8022,-1.29798 -14.2183,-7.59414 -15.36985,-6.44259 -0.69636,0.69635 6.93778,5.11084 11.30939,6.53973 1.51261,0.4944 2.86837,0.9606 3.01281,1.03599 0.14444,0.0754 0.61588,-0.43452 1.04765,-1.13313 z m -89.81249,-42.58543 c -1.70651,-1.08124 -7.06704,-0.54992 -7.06704,0.70044 0,0.28994 2.01108,0.51769 4.46907,0.50612 3.03847,-0.0143 3.87012,-0.40056 2.59797,-1.20656 z m 24.5602,-11.14827 3.43775,-1.10096 h -3.43775 c -1.89076,0 -4.98473,0.49544 -6.87548,1.10096 l -3.43775,1.10096 h 3.43775 c 1.89075,0 4.98472,-0.49543 6.87548,-1.10096 z m 443.46887,-91.27883 c 21.3552,-3.24068 59.5634,-15.7754 81.1308,-26.61603 19.0435,-9.57208 39.015,-23.025 44.4623,-29.95016 l 2.7072,-3.4417 -5.9737,-15.56067 c -3.2855,-8.55837 -7.286,-21.08309 -8.89,-27.83271 l -2.9163,-12.27205 -22.9453,-0.003 -22.9454,-0.003 -15.8136,-6.555 c -8.6975,-3.60524 -16.6591,-7.08844 -17.6925,-7.74046 -2.6359,-1.66311 -0.7053,-4.5982 7.4592,-11.34065 22.4003,-18.49849 27.4914,-42.97426 16.4049,-78.86609 -4.635,-15.00544 -5.2243,-15.78545 -9.1932,-12.16791 -4.8875,4.45485 -8.6697,5.97997 -14.83,5.97997 -4.3504,0 -6.435,-0.84009 -9.0285,-3.63854 -3.9715,-4.28538 -4.1968,-5.75699 -1.0651,-6.95874 1.5131,-0.58063 2.9905,0.14408 4.2931,2.10581 1.4167,2.13369 3.3808,2.99108 6.8518,2.99108 4.3625,0 6.1913,-1.3871 17.6764,-13.4072 13.8091,-14.45224 17.258,-20.77828 18.9295,-34.72121 3.3095,-27.60576 -15.6478,-45.25607 -32.0743,-29.86307 -5.026,4.70981 -14.9448,8.49577 -26.3552,10.05975 -7.3511,1.00757 -25.7797,-2.24063 -40.7327,-7.17944 -30.8965,-10.20479 -73.16351,-36.68771 -98.4826,-61.70549 -5.16436,-5.1029 -9.8836,-8.73868 -10.48718,-8.0795 -0.6036,0.65916 -2.47866,4.91125 -4.16681,9.44907 -5.72698,15.39438 -4.09767,37.10875 5.3961,71.91572 4.14796,15.20765 2.16382,22.98379 -13.63813,53.44979 -5.31009,10.23779 -9.6547,20.31119 -9.6547,22.38533 0,4.82966 3.2421,7.66902 11.00078,9.63421 15.05733,3.81386 16.98595,6.36467 13.2041,17.46379 -3.63739,10.67517 -3.04803,14.01444 2.9131,16.50516 6.72074,2.8081 16.80984,1.59885 19.50258,-2.33753 1.90366,-2.78285 1.99246,-2.76056 6.53171,1.63905 2.53101,2.45314 4.60182,4.82832 4.60182,5.27817 0,0.44985 -4.60452,0.906 -10.23228,1.01364 -11.21875,0.21461 -15.24131,1.65505 -16.60302,5.9454 -1.18363,3.72929 2.63132,9.41446 7.44299,11.09182 3.76216,1.3115 3.78038,1.38006 3.71666,13.98772 -0.0556,10.99618 0.38518,13.47106 3.33674,18.7359 5.85651,10.4465 8.90336,11.82618 25.85254,11.70653 12.2336,-0.0863 16.5065,-0.73121 25.6766,-3.87502 25.4942,-8.74027 56.9339,-27.03143 72.7975,-42.35256 6.2538,-6.03996 8.5901,-7.53819 9.9695,-6.39339 0.9908,0.82233 1.8015,1.80776 1.8015,2.18981 0,0.38205 -3.8462,4.37724 -8.5471,8.87821 -8.5129,8.15082 -23.3972,18.62919 -38.6763,27.22771 -9.0963,5.11903 -8.8585,3.74065 -3.8616,22.38524 7.452,27.80517 10.2537,61.47579 7.2787,87.47552 -0.8135,7.10935 -1.154,13.45199 -0.7568,14.09475 1.0492,1.69751 10.4733,1.41858 24.6242,-0.72884 z M 954.67705,390.46056 c -3.55404,-1.73647 -4.87743,-3.06607 -3.96248,-3.98102 1.60068,-1.60068 11.36135,1.97618 11.36135,4.16344 0,2.49868 -2.0131,2.44904 -7.39887,-0.18242 z m 170.00415,-45.95517 c -0.9454,-0.38147 -1.7189,-1.57752 -1.7189,-2.65789 0,-1.51563 1.2341,-1.76697 5.4028,-1.10036 4.6083,0.73688 5.9226,0.34406 8.9381,-2.67145 5.4081,-5.40812 4.6271,-9.47446 -2.9963,-15.60042 -8.7967,-7.06874 -8.7945,-7.06473 -8.1573,-14.65833 0.7117,-8.48118 6.1861,-14.51545 14.1298,-15.575 5.9875,-0.79862 12.0021,2.70484 13.3244,7.76139 1.2185,4.65946 -1.8941,4.78353 -5.4672,0.21791 -1.8547,-2.36976 -4.5173,-4.30866 -5.9171,-4.30866 -3.8481,0 -10.69,6.4291 -11.6908,10.98543 -1.13,5.1451 0.011,7.08214 7.2674,12.33809 3.2426,2.34866 6.4559,5.74394 7.1407,7.54507 1.7608,4.6311 -0.7152,12.43715 -5.0186,15.82217 -3.3796,2.65841 -11.0039,3.61015 -15.237,1.90205 z M 983.61182,323.15501 c -1.10801,-1.74803 -2.41381,-5.09793 -2.90176,-7.44424 -0.71703,-3.44781 -1.46821,-4.16685 -3.9165,-3.74897 -1.66612,0.28438 -3.9575,-0.12816 -5.09196,-0.91673 -1.78989,-1.24418 -1.70968,-1.70307 0.6066,-3.47029 2.32911,-1.77701 2.37292,-2.03652 0.34378,-2.03652 -1.40874,0 -2.32547,-1.08416 -2.32547,-2.75019 0,-3.66776 2.78154,-3.47746 11.14929,0.76281 3.81289,1.93213 12.30074,4.62196 18.8619,5.97738 9.2281,1.90638 12.0391,3.02684 12.4144,4.94826 0.4385,2.24463 -0.3009,2.40169 -7.6767,1.63077 -4.489,-0.4692 -9.15551,-1.23437 -10.36994,-1.70039 -1.7841,-0.68462 -2.29032,0.29683 -2.63651,5.11148 -0.35373,4.91967 -0.95283,6.03344 -3.4355,6.38682 -1.95323,0.27802 -3.71309,-0.6858 -5.02163,-2.75019 z m -16.76028,-34.17814 c -2.98541,-4.83049 12.33832,-11.00657 29.67967,-11.96214 15.58129,-0.85857 20.93609,0.0597 20.27609,3.47714 -0.3969,2.05547 -2.0372,2.30418 -12.811,1.94256 -13.04084,-0.43774 -26.84088,2.22393 -30.98765,5.97671 -2.60233,2.35507 -4.91965,2.56799 -6.15711,0.56573 z m 235.62866,189.10701 c 15.7174,-3.70532 35.0924,-10.5484 47.6786,-16.83963 17.6435,-8.81909 30.8336,-22.24156 39.502,-40.19781 7.4324,-15.39599 9.6976,-21.86567 12.635,-36.08636 4.6928,-22.71932 1.7982,-39.93803 -13.3977,-79.69637 -4.1337,-10.8154 -11.0414,-30.49325 -15.3505,-43.72856 -12.6689,-38.91303 -20.3606,-55.44106 -34.4317,-73.98667 -29.4743,-38.84728 -95.0079,-60.76617 -165.5481,-55.37054 -38.6102,2.95331 -70.093,11.31362 -99.80355,26.50302 -20.47098,10.4657 -39.68743,25.16203 -46.98041,35.9296 -3.40303,5.02436 -3.88379,7.00716 -3.89052,16.04599 -0.008,11.37857 2.26666,18.50398 9.06173,28.38027 5.30552,7.71132 7.5559,7.67195 8.72928,-0.15273 0.50723,-3.38242 2.68683,-9.64822 4.84356,-13.92396 l 3.92133,-7.77408 -2.61965,-4.29607 c -3.27379,-5.36886 -3.28351,-6.35872 -0.0624,-6.35872 1.46043,0 4.09571,2.30933 6.11185,5.35592 1.94941,2.94576 7.75548,9.61042 12.90237,14.81035 39.66391,40.07256 108.82221,73.7738 139.57591,68.01609 9.5222,-1.78276 16.3212,-4.71803 19.6956,-8.50298 5.7409,-6.4394 17.7149,-8.71658 25.2756,-4.80682 5.367,2.77537 11.8698,10.53041 14.085,16.79724 1.0965,3.10196 1.8054,10.37221 1.7212,17.65043 -0.1846,15.95232 -3.6569,25.35519 -13.2318,35.83163 l -6.9928,7.65133 5.0906,15.05576 c 12.693,37.54037 8.7922,64.87381 -12.1248,84.95929 -8.3752,8.04237 -8.7336,8.63417 -5.8842,9.71871 1.6687,0.63518 5.5093,2.23197 8.5345,3.54842 13.9423,6.06718 20.5008,7.41068 36.44,7.46472 9.4037,0.0319 19.3404,-0.77779 24.5141,-1.99747 z m -50.4765,314.46943 c -17.7432,-58.41576 -18.2381,-97.93145 -1.6073,-128.33566 4.3123,-7.8837 11.8111,-16.28015 14.5397,-16.28015 3.4396,0 2.2576,4.22681 -2.724,9.74083 -14.0613,15.56422 -20.5666,43.15209 -17.3795,73.7042 1.6409,15.73102 8.7,48.46858 13.1034,60.7693 2.8086,7.84588 2.7166,9.79657 -0.4623,9.79657 -2.0379,0 -3.2471,-2.07698 -5.47,-9.39509 z M 850.00549,700.72715 c -20.87521,-4.10591 -24.0642,-4.89666 -24.0642,-5.96701 0,-0.61093 1.85638,-1.87972 4.12529,-2.81953 5.02653,-2.08206 5.21833,-3.68623 0.68755,-5.75059 -3.6216,-1.65011 -4.18354,-3.31835 -2.18235,-6.4787 1.15349,-1.8216 3.31783,-1.68944 8.71406,0.53208 2.02581,0.83398 2.40642,0.21901 2.40642,-3.88813 0,-2.68335 0.56928,-5.23063 1.26505,-5.66065 1.11243,-0.68752 18.01252,21.83737 22.0637,29.40706 1.81635,3.39388 1.2082,3.42311 -13.01552,0.62547 z m -48.47218,-28.36388 c -5.90498,-2.26468 -7.21926,-3.3632 -7.21926,-6.03422 0,-4.17996 3.33703,-4.27259 12.46473,-0.34596 7.49947,3.22619 7.36509,3.0559 5.36316,6.79656 -1.6701,3.12059 -1.35387,3.13301 -10.60863,-0.41638 z m -35.22739,-11.46624 c -8.04291,-2.19296 -8.23927,-2.35859 -7.08975,-5.98042 1.02555,-3.23119 3.16526,-3.48874 11.03368,-1.32809 7.06388,1.93974 8.82109,3.43764 7.94824,6.77542 -0.79746,3.04951 -2.39956,3.12133 -11.89217,0.53309 z m -79.31449,-6.12424 c -2.90847,-1.79753 -0.75109,-6.09185 3.51956,-7.00578 8.00499,-1.71308 14.46662,-1.31258 15.33503,0.95047 0.45484,1.18529 0.28071,2.70007 -0.38694,3.36618 -1.71029,1.70636 -16.55929,3.86857 -18.46765,2.68913 z m 49.50148,0.92526 c -0.34127,-0.3218 -3.40507,-0.93054 -6.80844,-1.35275 -3.40336,-0.42221 -6.34263,-0.7991 -6.53171,-0.83753 -0.18907,-0.0384 -0.34377,-1.61687 -0.34377,-3.50763 0,-3.0847 0.52958,-3.42103 5.15661,-3.27505 10.10763,0.31891 13.4072,1.63124 13.4072,5.33238 0,3.01638 -3.09399,5.32462 -4.87989,3.64058 z"
       id="path1" />
  </g>
</svg>
