<?xml version="1.0" encoding="UTF-8" standalone="no"?>
<!-- Created with Inkscape (http://www.inkscape.org/) -->

<svg
   version="1.1"
   id="svg1"
   width="1920"
   height="1080"
   viewBox="0 0 1920 1080"
   xmlns="http://www.w3.org/2000/svg"
   xmlns:svg="http://www.w3.org/2000/svg">
  <defs
     id="defs1" />
  <g
     id="g1">
    <path
       style="fill:#000000;stroke-width:1.43207"
       d="m 58.254783,564.23531 c 6e-6,-279.61127 0.164682,-393.78424 0.365948,-253.71769 0.201265,140.06654 0.20126,368.83941 -1.1e-5,508.38414 -0.201272,139.54473 -0.365943,24.94483 -0.365937,-254.66645 z m 1802.973517,0 c 10e-5,-279.61127 0.1647,-393.78424 0.366,-253.71769 0.2012,140.06654 0.2012,368.83941 0,508.38414 -0.2013,139.54473 -0.366,24.94483 -0.366,-254.66645 z M 685.2612,864.84148 c -0.48041,-1.25193 -0.51421,-7.21291 -0.0752,-13.24663 0.4391,-6.03373 0.0129,-18.15157 -0.9465,-26.92856 l -1.74486,-15.95814 -7.29439,-7.98123 c -16.38979,-17.93305 -29.02231,-50.86969 -34.3744,-89.62411 -1.82999,-13.2509 -2.29849,-30.67776 -2.35064,-87.43667 -0.0647,-70.48325 0.79431,-89.5182 5.62298,-124.58992 1.13864,-8.27019 3.34786,-26.63646 4.90939,-40.81394 3.85221,-34.97531 10.74383,-75.65652 15.83907,-93.49798 7.45346,-26.0988 15.2521,-37.53624 25.59419,-37.53624 4.91466,0 14.223,4.21134 17.17785,7.7717 2.79776,3.37109 4.38307,2.73146 4.38307,-1.76844 0,-10.89394 10.1123,-73.81199 12.86242,-80.0291 4.59104,-10.37877 9.35271,-15.691 16.51747,-18.42725 5.61517,-2.14445 7.35104,-2.23878 12.55523,-0.68221 8.07264,2.41449 13.15661,6.21791 15.3322,11.47026 0.98723,2.38335 2.22826,4.33337 2.75787,4.33337 0.52962,0 1.83102,-3.91298 2.89203,-8.6955 2.45903,-11.08431 9.99019,-26.84355 15.54266,-32.52364 2.36754,-2.42195 6.85198,-5.16676 9.96542,-6.09957 4.92258,-1.47484 6.52572,-1.31342 12.29316,1.2378 12.66133,5.60071 18.98911,21.39472 17.87848,44.62442 l -0.58748,12.28755 11.7953,-0.0453 c 11.55632,-0.0444 11.9011,0.0563 17.01705,4.96696 2.87197,2.75673 6.08967,6.6678 7.15043,8.69125 3.85467,7.35294 8.45568,49.93355 12.05907,111.60246 3.69916,63.30782 6.01026,98.37828 6.69454,101.58849 0.61291,2.87535 1.31741,1.86403 3.99042,-5.72828 6.78224,-19.264 13.95877,-28.37846 28.33033,-35.98055 9.44254,-4.99479 15.376,-5.14661 20.85817,-0.53366 5.96651,5.02049 7.80583,12.93185 7.6515,32.91107 -0.24253,31.39795 4.64086,92.43686 8.83095,110.38055 3.87241,16.58328 4.24605,52.64038 0.72714,70.17134 -1.26478,6.3011 -3.94039,20.15635 -5.9458,30.78946 -5.55205,29.4383 -11.90452,45.96407 -24.49892,63.73327 -8.45945,11.9353 -25.24903,27.46779 -37.60062,34.78536 l -10.3812,6.15023 v 29.38856 29.38855 l -3.93819,-0.45313 -3.93818,-0.45314 -0.71604,-27.20929 c -0.69007,-26.22247 -0.81991,-27.19169 -3.58017,-26.72408 -12.67221,2.14677 -23.31428,1.7625 -30.78946,-1.11176 -9.95654,-3.82836 -16.47947,-9.0187 -15.2759,-12.15515 1.56611,-4.08122 4.71839,-3.96204 11.66103,0.44085 29.54916,18.73953 82.38246,-14.265 101.74419,-63.55876 4.63228,-11.79351 14.09096,-57.73601 16.4988,-80.13758 1.87799,-17.4721 1.09381,-31.45452 -2.97485,-53.04474 -4.63626,-24.60207 -8.52477,-74.56384 -8.53772,-109.69753 -0.009,-25.11492 -2.51978,-30.73749 -12.09844,-27.09568 -17.43866,6.63017 -26.82599,22.35638 -33.89955,56.79052 -2.72344,13.25771 -3.22953,20.57963 -3.42087,49.49189 l -0.22455,33.93228 -3.82183,5.77516 c -5.2068,7.86803 -19.18326,19.06794 -37.40284,29.97248 -18.07378,10.8173 -20.22425,11.56879 -21.51029,7.51683 -0.5206,-1.64024 -0.60618,-3.53296 -0.19018,-4.20604 0.41599,-0.67309 8.19112,-5.61179 17.27805,-10.9749 17.01613,-10.04291 32.32242,-22.52813 35.75142,-29.16218 1.50394,-2.90969 1.77483,-8.74516 1.18184,-25.45983 -0.4678,-13.18545 -0.0693,-28.02415 1.01667,-37.85834 1.62077,-14.67706 1.56655,-16.33385 -0.586,-17.90785 -2.0051,-1.46615 -2.69286,-7.57216 -4.44619,-39.47333 -3.62147,-65.8917 -9.42061,-150.22336 -11.50735,-167.34105 -3.22589,-26.46226 -8.09081,-34.36963 -21.14553,-34.36963 -3.46187,0 -5.93276,1.3091 -9.58692,5.07925 l -4.92301,5.07924 -0.53142,100.15189 -0.53145,100.15188 3.77814,1.43645 c 8.06007,3.06442 5.74403,9.43541 -2.56387,7.05273 -2.44914,-0.70241 -7.51829,-1.2771 -11.26476,-1.2771 -3.74648,0 -6.90844,-0.64443 -7.02659,-1.43207 -0.64205,-4.28032 -0.13361,-5.04771 3.79498,-5.72724 l 4.29621,-0.74313 0.87112,-99.51569 c 0.51324,-58.63273 1.5839,-107.45803 2.60614,-118.84862 2.64784,-29.50419 -0.46343,-42.34274 -11.66504,-48.13531 -3.30103,-1.70702 -5.18358,-1.9006 -7.63249,-0.7848 -5.23889,2.387 -11.81618,13.4168 -16.53207,27.72349 -3.86641,11.72967 -4.70868,17.42437 -7.05349,47.68988 -1.46453,18.9033 -2.80776,38.55843 -2.98496,43.67808 -0.17719,5.11964 -0.83366,10.91951 -1.45882,12.88861 -0.62517,1.96909 -1.8083,11.95777 -2.62918,22.19705 -3.64775,45.50041 -5.66275,72.86918 -6.57969,89.36865 -0.97527,17.54876 -0.94594,17.79648 2.40648,20.32965 2.55352,1.9295 2.98728,2.97229 1.75197,4.2119 -1.90014,1.90676 -21.76746,5.97241 -23.61255,4.83208 -3.80508,-2.35167 1.07984,-7.75701 7.01016,-7.75701 2.52574,0 2.82328,-2.15686 4.39568,-31.86351 0.9276,-17.52493 3.36521,-49.26314 5.41692,-70.52935 2.77927,-28.80768 3.78199,-47.97631 3.93286,-75.18357 0.21856,-39.41283 -0.67563,-46.11847 -6.99226,-52.4351 -4.35794,-4.35794 -13.05931,-4.64007 -18.20767,-0.59037 -7.89546,6.21057 -10.70224,17.24865 -16.76074,65.91408 -4.96125,39.85169 -6.6733,63.09193 -7.96504,108.12114 -0.49709,17.32802 -1.48367,40.5 -2.19238,51.49327 -1.0859,16.84391 -0.95806,20.353 0.81284,22.30981 3.73174,4.12354 1.72136,7.09344 -4.81804,7.11758 -1.31393,0.004 -4.27991,0.99489 -6.59103,2.20007 -8.0956,4.22162 -10.83847,-0.52246 -3.76103,-6.5051 l 4.23533,-3.58017 1.46138,-26.49325 c 0.80375,-14.5713 2.19314,-45.32254 3.08752,-68.3361 1.62095,-41.70878 1.61615,-41.86353 -1.49916,-48.29887 -3.67311,-7.58764 -10.36182,-13.68322 -15.01466,-13.68322 -5.01256,0 -10.68772,8.65303 -15.88448,24.21939 -4.81812,14.43221 -12.42809,52.98362 -15.00724,76.02537 -0.83755,7.48255 -3.11548,26.45207 -5.06208,42.1545 -5.84195,47.12471 -7.62918,71.4494 -8.60058,117.05561 -1.02221,47.99141 0.93634,104.72781 4.31695,125.05539 5.99222,36.03124 21.05308,68.26748 37.67764,80.64514 8.79824,6.55064 12.53952,7.71239 23.10857,7.17572 7.45286,-0.37842 9.44271,-0.004 10.71623,2.01454 1.19977,1.90196 1.02807,3.01509 -0.73741,4.78057 -2.72982,2.72982 -20.65044,3.25233 -25.34658,0.73903 -1.60556,-0.85927 -3.21768,-1.07723 -3.58251,-0.48437 -0.36484,0.59285 -0.0536,6.8778 0.69183,13.96653 1.23108,11.70852 0.68315,29.08572 -1.1176,35.44369 -0.88654,3.13012 -6.03252,3.29425 -7.20842,0.2299 z m 545.9657,-0.94594 c -1.7123,-8.23394 -2.1217,-22.98224 -0.9641,-34.72765 0.6987,-7.08873 0.9786,-13.37368 0.622,-13.96653 -0.3565,-0.59286 -1.9619,-0.3749 -3.5675,0.48437 -1.6055,0.85927 -7.4475,1.5623 -12.9822,1.5623 -11.1684,0 -15.4397,-2.22728 -12.9168,-6.73549 1.1295,-2.01828 3.5761,-2.52068 12.9408,-2.65726 9.6878,-0.14134 12.199,-0.68948 15.5897,-3.40326 2.2229,-1.77917 5.4314,-3.83469 7.1299,-4.56783 4.2717,-1.84384 15.3386,-17.7457 21.1401,-30.37585 5.8649,-12.76819 12.8216,-36.66763 15.1679,-52.10846 2.9922,-19.69119 3.9644,-51.05026 3.3941,-109.48649 -0.5579,-57.18036 -2.1552,-83.35467 -7.5158,-123.15785 -1.5382,-11.42074 -3.2351,-25.59822 -3.7711,-31.5055 -1.1101,-12.23561 -6.6788,-49.53056 -9.943,-66.59116 -3.2603,-17.03987 -10.5585,-38.59139 -15.2723,-45.0986 -6.6378,-9.16323 -14.1065,-6.97703 -21.9628,6.4289 l -3.7811,6.45192 0.8348,26.13337 c 0.4591,14.37335 1.8486,45.46628 3.0877,69.0954 l 2.2529,42.96204 4.1341,3.32595 c 4.2955,3.45578 5.6054,8.84663 2.1497,8.84663 -1.0914,0 -3.8303,-0.96268 -6.0863,-2.13928 -2.256,-1.1766 -5.1769,-2.14325 -6.4909,-2.1481 -6.6146,-0.0245 -8.5492,-2.99461 -4.7122,-7.23454 1.9279,-2.13033 2.0259,-5.49755 0.7739,-26.60601 -0.7884,-13.29187 -1.8232,-38.02228 -2.2996,-54.95649 -1.2208,-43.39298 -3.8339,-73.08638 -10.8383,-123.15785 -3.4622,-24.74994 -6.1279,-34.05712 -11.6854,-40.79934 -3.6111,-4.38085 -4.9667,-5.02683 -10.5487,-5.02683 -7.8302,0 -12.354,3.91251 -15.1259,13.08201 -2.3285,7.70269 -2.2945,67.76224 0.053,93.60705 5.7232,63.01221 7.2917,82.8282 8.1836,103.39079 l 1.0062,23.19497 4.3139,0.43415 c 4.8346,0.48655 8.3026,4.46745 5.9454,6.82469 -1.7321,1.73206 -21.5203,-1.65021 -23.9665,-4.09643 -1.1283,-1.12832 -0.6893,-2.37553 1.5804,-4.4901 2.5628,-2.38759 3.1426,-4.51748 3.1426,-11.54303 0,-10.20114 -5.0414,-75.453 -7.9559,-102.97453 -1.126,-10.6331 -3.0152,-32.54374 -4.1982,-48.69031 -3.4464,-47.03982 -4.6899,-57.23198 -8.6478,-70.8829 -4.1212,-14.21413 -9.4265,-23.98453 -15.476,-28.50116 l -3.96,-2.9565 -5.2638,2.83799 c -11.0692,5.96788 -14.5709,20.15886 -11.6549,47.23209 1.0371,9.62925 2.0382,55.27711 2.5754,117.42958 l 0.8787,101.67682 3.5801,0.47929 c 9.0507,1.2116 6.089,7.39709 -3.5418,7.39709 -3.3304,0 -8.1539,0.7316 -10.7189,1.62577 -3.7433,1.30491 -4.9117,1.23427 -5.9201,-0.35802 -1.9715,-3.113 -1.5926,-3.90711 2.996,-6.27999 l 4.2962,-2.22165 v -69.77654 c 0,-38.3771 -0.4263,-83.77499 -0.9429,-100.88419 l -0.9394,-31.10767 -4.2393,-4.33602 c -3.0433,-3.1121 -5.5877,-4.33603 -9.0148,-4.33603 -10.4953,0 -16.182,5.9476 -19.1261,20.00386 -2.7321,13.04362 -9.538,104.35466 -12.9722,174.04136 -1.8623,37.78757 -2.7428,45.40655 -5.4788,47.40715 -1.916,1.40106 -1.9521,3.40321 -0.302,16.77768 1.1952,9.68753 1.6107,23.42695 1.1475,37.94305 -0.497,15.57553 -0.212,23.71704 0.9033,25.80091 4.7056,8.79251 18.3448,19.43889 42.6872,33.32034 10.8026,6.1603 12.5017,8.3835 9.7421,12.74713 -1.1568,1.82926 -2.6946,1.41876 -10.3605,-2.76576 -25.7985,-14.08224 -44.5658,-28.81812 -49.5613,-38.9149 -2.6833,-5.42348 -2.8481,-7.70066 -2.0994,-29.0027 1.7983,-51.16451 -8.9388,-94.71471 -26.5362,-107.63235 -3.6876,-2.70695 -8.8693,-5.65441 -11.51477,-6.54991 -4.24554,-1.43709 -5.16984,-1.26877 -7.87637,1.43443 -2.73843,2.73504 -3.10295,4.85842 -3.40823,19.85341 -0.98446,48.35579 -4.20579,90.11366 -8.91804,115.6035 -5.9028,31.92987 -5.16614,48.64798 4.22784,95.94856 5.44194,27.40129 9.14335,38.62301 17.94967,54.41858 17.9697,32.2318 58.3146,57.32101 82.0664,51.03451 3.681,-0.97428 9.1444,-3.38258 12.1408,-5.35177 6.0683,-3.98795 11.0207,-3.54418 11.0207,0.98751 0,3.69279 -10.8879,10.56289 -20.3304,12.82809 -6.1996,1.48726 -19.2971,1.31753 -27.0613,-0.35068 -1.6665,-0.35808 -2.0819,4.34648 -2.4039,27.22655 l -0.3892,27.6594 -3.907,-0.45011 -3.9069,-0.45013 -0.3875,-28.95295 -0.3875,-28.95295 -10.353,-6.06529 c -12.1723,-7.13114 -32.2311,-26.5522 -40.69144,-39.39764 -11.22144,-17.03774 -16.15979,-32.0039 -24.01358,-72.77553 -7.53961,-39.14061 -8.13078,-60.83999 -2.39945,-88.07218 1.57478,-7.48256 3.24399,-16.8268 3.70935,-20.76499 2.0461,-17.31571 5.03133,-69.08266 5.07882,-88.07218 0.0428,-17.14949 0.51816,-21.79167 2.72965,-26.66153 5.1542,-11.34995 12.8859,-13.28966 25.78195,-6.46808 13.9531,7.38072 21.5447,17.0052 28.109,35.63573 2.9025,8.23801 4.9468,9.71704 4.9483,3.58017 10e-4,-4.62664 8.1199,-136.44346 9.3715,-152.15723 1.6779,-21.06562 5.0446,-46.65609 7.0661,-53.70928 1.3918,-4.85634 3.9457,-9.01173 7.9212,-12.88861 l 5.8671,-5.72154 11.7378,0.044 11.7379,0.044 v -17.22874 c 0,-16.04042 0.2813,-17.80172 4.0792,-25.53615 4.3448,-8.84817 11.0632,-14.55521 19.0042,-16.14342 5.5806,-1.11611 14.8731,3.39005 19.0302,9.22821 5.0447,7.08465 11.5214,21.97651 13.316,30.61735 0.9405,4.52892 2.0645,8.23265 2.4976,8.23053 0.4332,-0.001 2.0764,-2.369 3.6517,-5.2597 3.4603,-6.34991 11.6395,-10.88756 19.9569,-11.07173 13.4547,-0.29795 24.53,13.50282 27.8742,34.73364 3.3652,21.36384 8.7358,61.33718 8.7357,65.01962 -10e-5,2.166 0.2573,3.93818 0.572,3.93818 0.3147,0 3.9238,-2.2555 8.0203,-5.01224 8.5622,-5.76196 14.2516,-6.35341 21.0779,-2.1912 13.4964,8.22912 25.141,53.13462 33.2473,128.21319 1.6158,14.96511 3.5874,31.39809 4.3814,36.51773 4.9776,32.09426 6.0499,54.49082 6.1367,128.17009 0.075,63.90311 -0.2635,76.67449 -2.3872,90.02422 -6.6216,41.62257 -19.662,74.21881 -36.0142,90.0224 l -5.5195,5.33434 -1.7679,17.34828 c -1.0881,10.67734 -1.3371,21.29162 -0.6473,27.60323 1.3288,12.16005 0.8933,13.83512 -3.5964,13.83512 -2.3724,0 -3.6022,-0.97369 -4.0698,-3.22215 z m 325.0129,-222.98975 c -0.4162,-0.67319 1.8227,-5.69753 4.975,-11.16519 3.1524,-5.46768 5.7315,-10.73072 5.7315,-11.69566 0,-0.96494 -2.6338,-6.18779 -5.8528,-11.60635 -6.1177,-10.2975 -6.382,-13.66722 -0.8988,-11.45953 38.0443,15.31775 51.8618,21.4708 51.8618,23.09458 0,1.14502 -9.0349,5.63984 -22.1971,11.04282 -29.3617,12.05285 -32.7275,13.23309 -33.6196,11.78933 z M 336.79996,630.27726 c -13.78365,-5.73478 -25.06119,-11.22015 -25.06119,-12.1897 0,-1.84037 49.68535,-23.02349 54.06057,-23.04846 3.43158,-0.0196 3.29548,0.47805 -3.22215,11.78274 -3.15055,5.46455 -5.72827,10.57204 -5.72827,11.34998 0,0.77794 2.57772,5.8281 5.72827,11.22259 3.15055,5.39448 5.72827,10.17904 5.72827,10.63234 0,2.40543 -8.94114,-0.36144 -31.5055,-9.74949 z m 197.98341,-6.23483 -7.51836,-0.52597 v -5.70718 -5.70716 l 13.24663,0.41174 13.24663,0.41177 0.43333,5.18354 c 0.36635,4.38225 -0.0763,5.32004 -2.86414,6.06672 -1.8136,0.48576 -4.58633,0.77279 -6.1616,0.63785 -1.57528,-0.1349 -6.2474,-0.48204 -10.38249,-0.77131 z m 45.71994,-0.19038 c -1.14046,-0.72307 -1.71128,-3.14028 -1.43207,-6.06435 l 0.46425,-4.86207 h 12.88861 12.88861 l 0.46425,4.86207 c 0.60406,6.32624 -1.12396,7.26664 -13.35286,7.26664 -5.51346,0 -10.87781,-0.54102 -11.92079,-1.20229 z m 739.68999,0.24372 c -2.0109,-0.52129 -2.4882,-1.8366 -2.1481,-5.92017 l 0.4373,-5.24997 h 12.8886 12.8887 l 0.4642,4.86207 c 0.2792,2.92407 -0.2916,5.34128 -1.4321,6.06435 -1.9655,1.24621 -18.5559,1.42127 -23.0986,0.24372 z m 51.5545,0.0443 c -2.0051,-0.55404 -2.4873,-1.89268 -2.1481,-5.96436 l 0.4373,-5.25003 13.2466,-0.41177 c 12.9251,-0.40175 13.2508,-0.33224 13.4163,2.86414 0.1628,3.14297 -0.1991,7.37081 -0.6638,7.75597 -0.8367,0.69333 -22.2152,1.57881 -24.2883,1.00599 z m -1000.30991,-5.78922 0.44774,-5.42517 h 12.88861 12.88861 v 5.01223 5.01224 l -13.33634,0.41294 -13.33635,0.41295 z m 51.84399,3.27139 c -0.43138,-1.12418 -0.57227,-3.54079 -0.31307,-5.37026 0.44877,-3.16752 1.09538,-3.34585 13.54493,-3.73578 14.22741,-0.4456 15.80217,0.41997 13.97911,7.68361 -0.83908,3.34313 -1.32431,3.46638 -13.64831,3.46638 -9.74805,0 -12.96432,-0.48472 -13.56266,-2.04395 z m 52.42868,-3.68433 v -5.83574 l 13.24663,0.41174 13.24663,0.41177 v 5.01223 5.01224 l -13.24663,0.41176 -13.24663,0.41175 z m 945.70224,3.63103 c -0.4655,-1.21295 -0.4363,-3.83893 0.065,-5.83554 0.9027,-3.59665 1.033,-3.62637 14.1171,-3.21894 l 13.2059,0.41122 v 5.01223 5.01224 l -13.2708,0.41208 c -10.8879,0.33808 -13.4228,0.016 -14.1171,-1.79329 z m 52.4491,-3.63103 v -5.83574 l 13.2466,0.41174 13.2467,0.41177 v 5.01223 5.01224 l -13.2467,0.41176 -13.2466,0.41175 z m 52.1339,3.74042 c -0.4432,-1.15503 -0.5939,-3.59688 -0.3347,-5.42635 0.4497,-3.1734 1.0844,-3.34528 13.8077,-3.73924 l 13.3363,-0.41295 -0.4477,5.42519 -0.4478,5.42517 -12.5541,0.41411 c -9.9841,0.32935 -12.7189,-0.0158 -13.3597,-1.68593 z M 682.88307,602.66247 c -0.88637,-0.88635 -1.39664,-6.19827 -0.5967,-6.21158 2.2642,-0.0377 57.93796,-7.45342 64.5433,-8.59715 28.83286,-4.99252 53.31703,-12.60388 76.67698,-23.83649 14.23502,-6.84488 20.96142,-8.40052 20.96142,-4.8478 0,3.02538 -22.99901,14.71282 -42.24601,21.46818 -25.99991,9.12553 -41.07075,12.4708 -80.66001,17.90409 -42.8177,5.87638 -37.49087,5.30886 -38.67898,4.12075 z M 1201.053,598.4969 c -37.6127,-5.2137 -56.3345,-9.443 -79.8848,-18.04611 -23.1323,-8.45043 -42.5571,-18.19295 -42.5571,-21.34451 0,-3.07616 9.6063,-0.87808 21.8899,5.00878 30.1573,14.45276 64.0133,22.99639 116.0808,29.29323 12.479,1.50917 23.3588,3.41359 24.1773,4.23206 2.1162,2.11618 0.2456,6.01034 -2.7854,5.79877 -1.4031,-0.0979 -18.0174,-2.32193 -36.9207,-4.94222 z M 897.28184,517.04329 c -1.31563,-3.42846 1.07276,-5.21506 8.93531,-6.68395 5.32331,-0.9945 7.31818,-0.82835 8.88671,0.74018 2.86139,2.86139 1.13039,4.74619 -5.1097,5.56371 -2.95858,0.38761 -6.82137,1.17322 -8.58399,1.74581 -2.33523,0.75861 -3.45533,0.38805 -4.12833,-1.36575 z m 121.89846,0.66663 c -1.5752,-0.68618 -4.6811,-1.29287 -6.9019,-1.34822 -3.3456,-0.0833 -3.9593,-0.65303 -3.5801,-3.32282 0.4814,-3.38969 2.2817,-3.61143 13.7931,-1.69893 3.8749,0.64377 4.6613,1.36026 4.2962,3.91397 -0.4952,3.46331 -3.2516,4.35323 -7.6073,2.456 z M 669.54091,465.37907 c -1.29501,-3.37472 2.3291,-5.85572 10.29972,-7.05098 7.20419,-1.08034 9.24806,-0.32664 9.24806,3.41032 0,1.88364 -1.46618,2.83026 -5.37025,3.46717 -2.95364,0.48185 -7.13442,1.28472 -9.29063,1.78415 -2.96534,0.68687 -4.15583,0.29449 -4.8869,-1.61066 z m 575.90619,0.78632 c -1.5753,-0.69161 -4.6364,-1.30279 -6.8024,-1.35814 -2.9707,-0.0759 -3.9381,-0.81531 -3.9381,-3.00974 0,-4.15947 3.3859,-4.90895 11.8974,-2.63348 5.8042,1.5517 7.4355,2.61342 7.4355,4.83924 0,3.19076 -3.9727,4.19042 -8.5924,2.16212 z m -568.61592,-51.7186 c -1.4977,-2.42335 2.58418,-5.59551 8.4185,-6.54229 4.70773,-0.76397 5.27108,-0.52547 5.27108,2.23158 0,4.61741 -11.30075,8.1759 -13.68958,4.31071 z m 560.73952,0.29399 c -2.2885,-0.63285 -3.7551,-2.20633 -4.065,-4.36142 -0.4536,-3.15359 -0.1362,-3.31481 4.913,-2.49545 5.945,0.96474 10.0546,4.12091 8.5454,6.56288 -1.0647,1.7226 -3.9055,1.81151 -9.3934,0.29399 z m -392.37408,-1.21829 c -5.59907,-0.67568 -7.77364,-2.93315 -5.48352,-5.69257 3.10604,-3.74256 15.49548,-1.28689 15.49548,3.07128 0,1.56537 -3.83695,4.3428 -4.77135,3.45382 -0.13247,-0.12602 -2.49077,-0.50069 -5.24061,-0.83253 z m 225.18018,0.11284 c -2.6927,-1.08592 -2.1521,-4.48493 0.9799,-6.16112 3.2938,-1.76278 10.0937,-1.90872 12.6732,-0.27198 3.081,1.95491 0.3799,5.94987 -4.0228,5.94987 -2.2142,0 -4.8841,0.27116 -5.933,0.60257 -1.049,0.33142 -2.7128,0.27772 -3.6973,-0.11929 z m -345.48641,-3.29695 c 0,-3.37287 3.35897,-5.36594 11.14055,-6.61026 4.945,-0.79073 6.00434,-0.48678 7.40145,2.12375 1.80185,3.36678 2.01683,3.20743 -7.80149,5.78213 -8.41938,2.20787 -10.74051,1.92787 -10.74051,-1.29562 z m 461.48391,0.8928 c -4.3655,-1.07106 -6.0863,-2.22532 -6.0863,-4.08235 0,-2.7716 0.816,-3.02069 8.5924,-2.62285 6.3046,0.32256 11.6446,3.60564 10.5412,6.48091 -0.9157,2.38625 -4.0181,2.43958 -13.0473,0.22429 z M 785.54348,382.33233 c -1.11178,-2.89726 0.43361,-4.64621 4.98967,-5.64688 5.52859,-1.21428 12.03086,1.40972 11.41701,4.60734 -0.62712,3.26671 -15.19777,4.18992 -16.40668,1.03954 z m 336.53592,0 c -1.1118,-2.89726 0.4336,-4.64621 4.9897,-5.64688 5.5286,-1.21428 12.0309,1.40972 11.417,4.60734 -0.6271,3.26671 -15.1978,4.18992 -16.4067,1.03954 z M 831.8178,342.36947 c -1.28432,-3.34688 2.78222,-5.54067 8.33837,-4.49832 3.71266,0.6965 5.02793,1.6755 5.02793,3.74248 0,2.35281 -1.00332,2.79925 -6.29109,2.79925 -4.12775,0 -6.56073,-0.70268 -7.07521,-2.04341 z m 246.7933,-0.66135 c 0,-1.93679 1.3686,-2.96151 4.82,-3.609 5.9515,-1.1165 9.9367,0.2478 8.867,3.03551 -0.4391,1.14424 -0.7983,2.34994 -0.7983,2.67934 0,0.32939 -2.9,0.59891 -6.4443,0.59891 -5.3631,0 -6.4444,-0.45384 -6.4444,-2.70476 z M 735.86958,326.27334 c -3.13584,-3.13584 5.2223,-10.30305 9.91506,-8.50228 3.65302,1.40179 2.10883,5.26935 -2.9474,7.38198 -5.71919,2.38962 -5.70123,2.38674 -6.96766,1.1203 z m 444.77642,-1.1835 c -4.8225,-2.09275 -6.1881,-5.95547 -2.5931,-7.335 3.213,-1.23296 10.1114,2.71926 10.1114,5.79301 0,3.60129 -1.8829,3.98747 -7.5183,1.54199 z M 792.67852,294.91027 c -1.16556,-3.03742 1.36337,-5.27399 5.96337,-5.27399 4.60001,0 7.12894,2.23657 5.96338,5.27399 -0.55898,1.45665 -2.65196,2.24436 -5.96338,2.24436 -3.31141,0 -5.40439,-0.78771 -5.96337,-2.24436 z m 326.54488,0.0871 c -1.3156,-3.4284 1.3353,-5.27392 6.8219,-4.74941 3.7275,0.35632 4.8363,1.11899 4.8363,3.32646 0,2.27707 -1.1031,2.95537 -5.3817,3.30928 -3.936,0.32557 -5.6222,-0.18118 -6.2765,-1.88633 z"
       id="path1" />
  </g>
</svg>
