<?xml version="1.0" encoding="UTF-8" standalone="no"?>
<!-- Created with Inkscape (http://www.inkscape.org/) -->

<svg
   version="1.1"
   id="svg1"
   width="1920"
   height="1080"
   viewBox="0 0 1920 1080"
   xmlns="http://www.w3.org/2000/svg"
   xmlns:svg="http://www.w3.org/2000/svg">
  <defs
     id="defs1" />
  <g
     id="g1">
    <path
       style="fill:#000000;stroke-width:4.47718"
       d="m 646.14744,1006.4284 c 0.0358,-3.0781 3.20441,-18.69224 7.03997,-34.69818 20.58109,-85.8849 20.68052,-87.9016 6.51202,-132.07695 -53.19764,-165.86242 -75.22557,-247.86873 -79.19531,-294.83037 -3.15283,-37.29795 -6.64253,-27.7307 47.60116,-130.5022 32.21129,-61.02846 53.54042,-92.41578 70.91293,-104.35341 6.59023,-4.52852 29.10747,-14.4266 50.03831,-21.99574 87.88504,-31.78154 102.75753,-33.29346 165.2803,-16.8022 47.18921,12.44682 131.91928,43.49505 142.37268,52.17063 3.1625,2.62462 5.75,10.59687 5.75,17.71613 0,7.11925 2.4061,16.79694 5.3469,21.50598 7.1243,11.40778 -1.1294,29.88158 -16.474,36.87306 -6.1924,2.82144 -11.2589,6.79765 -11.2589,8.83601 0,2.03835 6.806,20.35124 15.1243,40.6953 32.5233,79.54162 31.9786,102.24341 -4.1039,171.04229 -17.7811,33.90335 -27.1457,58.87221 -35.5475,94.7808 -23.61656,100.9341 -57.51382,163.20539 -100.88507,185.33177 l -16.33201,8.33195 -7.06706,49.88184 c -3.88687,27.43503 -8.2596,51.07439 -9.71719,52.53199 -6.51216,6.5122 -7.68536,-5.0269 -3.38037,-33.24804 10.2425,-67.1442 10.54006,-62.91805 -4.8067,-68.26793 -16.7787,-5.84913 -12.77417,-11.67583 6.89634,-10.03436 19.60984,1.63641 52.02216,-19.70163 70.3166,-46.29167 18.32087,-26.62846 41.47132,-84.0707 51.40136,-127.54005 12.1683,-53.26731 19.84,-74.48119 43.1363,-119.2821 18.9621,-36.46551 21.7902,-45.35191 21.5399,-67.68062 -0.3273,-29.18757 -17.7389,-84.53977 -26.0229,-82.72723 -14.8487,3.24887 -38.9865,-26.15621 -35.2107,-42.89426 1.1561,-5.12514 4.0414,-2.14549 9.0226,9.31787 6.7654,15.56916 18.4422,25.41275 23.7954,20.05957 1.2376,-1.23768 -2.3219,-11.66121 -7.9101,-23.16341 -10.1128,-20.8153 -10.2446,-20.89916 -28.1872,-17.93365 -9.91479,1.63869 -19.40235,3.78952 -21.08353,4.77964 -6.46927,3.81001 -13.55132,54.12482 -11.02306,78.3138 3.30958,31.66439 10.83291,48.69144 21.51418,48.69144 4.52961,0 8.23569,3.0221 8.23569,6.71578 0,4.11829 -4.18787,6.71578 -10.8278,6.71578 -7.48657,0 -13.73377,4.70194 -20.24512,15.23747 -5.17947,8.38066 -17.20475,22.27305 -26.72279,30.87202 l -17.30558,15.63451 13.05064,9.64874 c 17.30777,12.7962 11.77334,21.21657 -5.74571,8.74188 -15.02919,-10.70172 -40.17588,-19.05588 -86.66652,-28.79206 -39.49988,-8.27218 -39.28873,-8.28525 -33.7364,2.08932 5.80042,10.83824 5.9359,18.20307 0.3349,18.20307 -2.36494,0 -13.70171,-19.89181 -25.19285,-44.20409 -17.18366,-36.35622 -22.38181,-43.81472 -29.279,-42.01104 -10.90745,2.85232 -10.58451,0.30848 2.38773,-18.807 6.19794,-9.13319 11.968,-25.85623 13.58548,-39.3742 1.54646,-12.92397 3.87858,-32.62992 5.18256,-43.79104 l 2.37085,-20.29294 -17.39225,1.65862 -17.3923,1.65862 -0.56368,30.39766 c -0.34653,18.70091 -4.27042,40.51488 -10.19687,56.69041 -10.90526,29.76455 -11.12523,32.38706 -6.3358,75.54175 2.16821,19.53606 7.18087,37.24243 13.3087,47.01044 14.17539,22.59622 44.21381,87.69202 53.71579,116.40681 10.48158,31.67505 10.50589,80.82644 0.0528,106.34979 -11.18253,27.30344 -29.62428,41.39731 -54.16848,41.39731 -10.89209,0 -19.8038,-2.01473 -19.8038,-4.47719 0,-2.46245 5.94942,-4.47718 13.22091,-4.47718 36.07317,0 54.51053,-24.62461 57.53326,-76.8404 1.66909,-28.832 0.2055,-40.26145 -8.08289,-63.12997 -12.69976,-35.03916 -52.6033,-115.22917 -57.33949,-115.22917 -1.94748,0 -5.92501,2.3841 -8.8389,5.29799 -8.72232,8.72231 -9.91482,2.19131 -3.17298,-17.37703 8.77985,-25.48374 4.33987,-64.0331 -7.37509,-64.0331 -10.79668,0 -10.51789,-2.18697 2.46389,-19.32676 16.60404,-21.92235 26.48693,-62.093 23.96117,-97.39417 l -2.15272,-30.08706 29.58958,-1.75374 c 19.82578,-1.17505 37.72991,-5.63763 54.25901,-13.52397 23.96695,-11.43512 25.36916,-11.58508 49.24903,-5.26692 13.79963,3.65113 31.38435,5.28097 40.09507,3.71622 21.26556,-3.82003 40.4494,-14.34439 40.4494,-22.19076 0,-6.14904 -30.08901,-24.60054 -40.11629,-24.60054 -10.43516,0 -3.71607,14.22486 8.77599,18.57963 13.73637,4.78852 18.30923,12.76067 7.31958,12.76067 -11.38396,0 -30.55769,-18.64365 -28.24983,-27.46884 2.61114,-9.985 1.10098,-11.10052 -20.51782,-15.15623 -14.41663,-2.70457 -16.80467,-1.98016 -17.1088,5.19002 -0.20013,4.71416 -1.3342,5.90279 -2.61168,2.73687 -1.24201,-3.07807 -7.85746,-5.59649 -14.70101,-5.59649 -16.93715,0 -119.25094,21.06709 -129.84226,26.73538 -9.60835,5.14224 -25.87831,37.44618 -43.31542,86.00283 -6.47249,18.02367 -19.81584,47.4835 -29.65195,65.46629 -15.54049,28.41172 -17.49926,35.10109 -14.94874,51.05106 2.58602,16.17231 2.11717,17.67628 -3.94279,12.64692 -12.31951,-10.22427 -8.19978,-36.42579 11.65179,-74.10533 10.19132,-19.34372 24.32298,-51.04447 31.40373,-70.44613 29.04869,-79.59539 33.92122,-84.03408 106.7681,-97.26241 16.00594,-2.90653 38.77086,-7.1376 50.5887,-9.40238 50.46137,-9.67045 103.63434,1.66935 129.60483,27.63986 11.00958,11.00958 11.81744,13.70777 7.16283,23.92356 -2.8855,6.33292 -4.07084,12.68989 -2.63415,14.12657 1.43668,1.43669 14.35604,3.6744 28.70967,4.97269 21.67179,1.96022 27.96829,0.84397 37.12949,-6.58232 9.7547,-7.90745 10.4224,-10.28066 5.7671,-20.49785 -4.4802,-9.83295 -35.76268,-34.26874 -43.8706,-34.26874 -1.44371,0 -1.98742,5.48996 -1.20825,12.19992 1.02652,8.83997 6.34887,14.98492 19.32541,22.31227 17.36644,9.80616 17.52974,10.11459 5.39294,10.18601 -19.2634,0.11337 -35.51432,-18.64872 -33.71047,-38.91959 l 1.45442,-16.3441 -42.46342,-22.08673 C 885.77298,272.28843 885.7312,272.27774 849.863,274.32483 c -36.36088,2.07521 -83.44197,15.64413 -130.39797,37.58112 -28.89441,13.49894 -45.69889,37.05538 -95.41709,133.75505 -36.29614,70.59441 -36.78854,71.99264 -33.90111,96.25947 3.90155,32.78987 20.88334,103.76861 38.0267,158.94007 7.65155,24.62451 20.76706,68.27218 29.14558,96.99485 8.37851,28.72266 20.35856,62.84647 26.62241,75.83075 13.63366,28.26125 13.60787,28.0338 2.86307,25.22397 -7.20441,-1.884 -8.98674,0.9839 -11.50072,18.50586 -1.63628,11.40446 -5.64828,31.8164 -8.9156,45.35988 -3.26731,13.54349 -7.19667,30.16504 -8.7319,36.93678 -2.77482,12.23927 -11.63539,17.40967 -11.50896,6.71577 z M 937.7298,578.85725 c 30.70959,-31.94803 35.7967,-40.92573 29.56706,-52.17985 -5.86185,-10.58966 -7.42609,-91.61958 -2.16898,-112.3567 3.16708,-12.49293 2.21567,-13.92791 -13.61467,-20.53433 -10.2904,-4.29445 -20.48768,-5.74652 -25.79095,-3.67256 -13.2852,5.19545 -52.64494,4.68726 -68.63288,-0.88616 -11.26325,-3.92641 -17.18204,-3.52464 -28.71774,1.94941 -7.99173,3.79232 -19.86791,8.92446 -26.39157,11.40474 -10.81056,4.11018 -12.09113,7.20917 -14.45714,34.98737 -1.42778,16.76274 -5.3086,42.10773 -8.62404,56.32212 -5.85146,25.08679 -5.66011,26.61709 6.52804,52.20648 13.95176,29.29221 16.56263,30.76905 80.0364,45.27231 48.983,11.19225 49.57963,11.08892 72.26647,-12.51283 z m 110.3019,-191.65353 c 10.3982,-7.2832 13.0062,-17.47652 5.6367,-22.03113 -5.5117,-3.40642 -22.5492,13.43146 -22.5492,22.285 0,8.55442 4.4319,8.48789 16.9125,-0.25386 z m 2.9032,-40.79099 c 3.6808,-9.59213 -0.7222,-14.88183 -18.6076,-22.35483 -21.6888,-9.06214 -23.6563,-4.11589 -2.7499,6.9133 14.2761,7.53142 15.4668,9.11395 6.9807,9.27808 -8.7624,0.16946 -9.556,1.45942 -5.5282,8.98552 5.1141,9.55577 15.7328,8.05028 19.905,-2.82207 z m -46.4385,-27.90242 c -2.5036,-4.67791 -13.9793,-11.71753 -25.50169,-15.6436 -23.49264,-8.00475 -22.69113,-5.88216 4.36109,11.54924 22.4359,14.45682 27.1779,15.37523 21.1406,4.09436 z m -122.82893,479.729 c -1.26941,-4.30929 -4.59748,-20.87671 -7.39568,-36.81648 -5.07176,-28.89109 -13.16163,-49.52272 -28.57478,-72.87455 -4.46967,-6.77175 -6.01738,-12.31226 -3.43938,-12.31226 13.69128,0 37.78762,57.70164 43.47011,104.09455 3.01888,24.64677 0.8033,34.41912 -4.06027,17.90874 z m 15.13616,-500.06119 c 0,-3.839 2.01473,-6.98 4.47718,-6.98 2.46245,0 4.47719,1.89582 4.47719,4.21295 0,2.31713 -2.01474,5.45813 -4.47719,6.98001 -2.46245,1.52188 -4.47718,-0.37394 -4.47718,-4.21296 z m 373.31657,-28.61083 c 8.3245,-9.36771 8.2809,-9.53692 -3.6274,-14.06443 -14.0668,-5.34818 -11.3909,-13.55378 4.42,-13.55378 8.7391,0 10.9287,-2.295 10.9287,-11.45464 0,-11.2486 0.5033,-11.07331 27.9824,9.74497 15.3903,11.65979 28.8555,21.88479 29.9225,22.72222 6.2618,4.91427 -10.9714,10.19463 -42.2347,12.941 l -35.8175,3.14644 z m -65.5101,-26.38331 c -7.1208,-1.05818 -12.3123,-4.64996 -12.3123,-8.51833 0,-4.99136 4.2605,-6.33604 16.7895,-5.29909 10.8463,0.89768 16.7894,3.63474 16.7894,7.73224 0,7.3764 -4.2994,8.60661 -21.2666,6.08518 z m -73.8736,-13.15442 c -8.4471,-3.40849 -6.7107,-14.95228 2.2386,-14.88245 15.0404,0.11735 27.9824,5.50738 27.9824,11.654 0,6.10765 -18.2531,8.05759 -30.221,3.22845 z m -69.7694,-8.97401 c -6.6828,-6.6827 -2.3523,-14.92395 7.8419,-14.92395 15.4557,0 24.9907,4.45335 24.9907,11.67197 0,6.44962 -26.9643,9.12035 -32.8326,3.25198 z m -201.13132,-4.13518 c -6.31355,-6.31354 -3.28079,-10.08741 10.54726,-13.12455 12.71279,-2.7922 27.03951,3.20926 21.31847,8.9303 -4.31649,4.31648 -28.55342,7.50661 -31.86573,4.19425 z m 63.83095,-11.05903 c 0,-7.91873 2.37157,-9.02792 16.7522,-7.83508 11.70761,0.97113 17.19933,3.74894 18.23705,9.22464 1.21712,6.42265 -1.80278,7.83507 -16.75224,7.83507 -15.4303,0 -18.23701,-1.41967 -18.23701,-9.22463 z m 67.15778,2.23859 c 0,-5.31407 3.9354,-6.65348 16.44339,-5.59648 23.6188,1.99594 25.1657,12.58252 1.8384,12.58252 -13.58003,0 -18.28179,-1.79668 -18.28179,-6.98604 z m -98.49807,-17.5235 c 0,-5.55944 20.95564,-20.26231 28.87937,-20.26231 8.02705,0 0.3613,14.28743 -10.74829,20.03236 -16.36188,8.46104 -18.13108,8.48348 -18.13108,0.22995 z m 61.00652,-27.12141 c -2.61803,-6.82252 12.28827,-15.52682 26.59005,-15.52682 11.99841,0 6.4929,12.53167 -7.67533,17.47076 -17.3871,6.06117 -15.77948,6.2264 -18.91472,-1.94394 z m 64.35464,-21.68295 c 0,-5.18136 17.8363,-11.75261 31.8999,-11.75261 6.8076,0 4.2346,12.35188 -3.1644,15.19114 -12.6688,4.86149 -28.7355,2.93893 -28.7355,-3.43853 z m 68.6809,-8.1307 c -2.0689,-3.2893 -9.668,-7.96827 -16.8867,-10.39771 -7.2187,-2.42944 -12.8391,-6.4319 -12.4896,-8.89435 1.0762,-7.58334 18.8365,-7.78647 30.1931,-0.34532 5.9271,3.88361 15.8843,7.0611 22.1271,7.0611 7.1045,0 11.3505,2.51222 11.3505,6.71578 0,3.69368 -3.8648,6.71578 -8.5882,6.71578 -4.7235,0 -11.5934,1.15318 -15.2664,2.56264 -3.6729,1.40945 -8.3709,-0.12863 -10.4398,-3.41792 z M 626.44349,118.57565 c -16.95689,-3.36887 -32.90807,-6.81767 -35.44704,-7.664 -2.53901,-0.84633 8.91296,-10.996431 25.44872,-22.55578 36.82395,-25.741767 44.72681,-27.416973 33.89941,-7.185814 -4.35608,8.139432 -3.3171,8.677881 14.55085,7.540734 14.66341,-0.933202 19.24191,0.373402 19.24191,5.491191 0,4.444891 -5.92743,7.472739 -17.52939,8.954369 -15.60992,1.99346 -16.71301,2.91145 -10.07366,8.38328 7.65724,6.31076 10.07707,14.33107 4.09783,13.58194 -1.84684,-0.23138 -17.2317,-3.17705 -34.18863,-6.54592 z m 375.94331,-5.87535 c -19.01546,-4.11715 -20.33919,-14.037457 -1.8617,-13.952574 17.6082,0.0809 28.5056,5.875864 24.1877,12.862434 -1.6921,2.73776 -4.4686,4.73937 -6.1701,4.44803 -1.7016,-0.29133 -8.9717,-1.8024 -16.1559,-3.35789 z m -73.12358,-8.22646 c -5.54052,-1.06715 -10.07367,-4.957933 -10.07367,-8.646184 0,-10.022935 33.03043,-6.075307 35.00617,4.183754 1.49018,7.73793 -3.39084,8.61154 -24.9325,4.46243 z m -64.91919,-4.52429 c -19.91433,-3.016777 -15.46625,-14.701938 5.59649,-14.701938 14.92393,0 17.90874,1.492393 17.90874,8.954369 0,4.924904 -2.51842,8.652499 -5.59649,8.283549 -3.07806,-0.36897 -11.13699,-1.51015 -17.90874,-2.53598 z m -146.6278,-7.986161 c 0,-4.850282 4.97464,-6.715777 17.90874,-6.715777 12.93409,0 17.90874,1.865495 17.90874,6.715777 0,4.850282 -4.97465,6.715777 -17.90874,6.715777 -12.9341,0 -17.90874,-1.865495 -17.90874,-6.715777 z m 67.15777,0 c 0,-4.850282 4.97465,-6.715777 17.90874,-6.715777 12.9341,0 17.90874,1.865495 17.90874,6.715777 0,4.850282 -4.97464,6.715777 -17.90874,6.715777 -12.93409,0 -17.90874,-1.865495 -17.90874,-6.715777 z"
       id="path1" />
  </g>
</svg>
