<?xml version="1.0" encoding="UTF-8" standalone="no"?>
<!-- Created with Inkscape (http://www.inkscape.org/) -->

<svg
   version="1.1"
   id="svg1"
   width="1920"
   height="1080"
   viewBox="0 0 1920 1080"
   xmlns="http://www.w3.org/2000/svg"
   xmlns:svg="http://www.w3.org/2000/svg">
  <defs
     id="defs1" />
  <g
     id="g1">
    <path
       style="fill:#000000;stroke-width:1.42676"
       d="m 980.46335,995.35125 c -1.09235,-2.15797 -2.41028,-6.26879 -2.92877,-9.13513 -0.60185,-3.32738 -2.25087,-6.06872 -4.56106,-7.58243 -1.99012,-1.30397 -4.87449,-5.3012 -6.40971,-8.88273 -3.16443,-7.38233 -11.06551,-38.01075 -15.57129,-60.36195 -6.20457,-30.77813 -23.15824,-71.33156 -31.07979,-74.34333 -6.35916,-2.41775 -38.41919,-1.68351 -60.23785,1.37958 -11.3784,1.5974 -24.37974,3.3327 -28.89187,3.85624 -4.51212,0.52353 -8.20386,1.49189 -8.20386,2.15189 0,6.01852 9.49739,59.88195 12.2077,69.23468 4.08444,14.09452 4.1541,14.84206 1.38314,14.84206 -4.49243,0 -8.35028,-13.04291 -14.13733,-47.79644 -1.96003,-11.77076 -3.96936,-24.67129 -4.46519,-28.66784 l -0.90151,-7.26647 -32.35569,-0.93259 c -38.45457,-1.10837 -60.75127,-2.80486 -88.71269,-6.74983 -72.15476,-10.18009 -108.31242,-25.87925 -119.80215,-52.01644 -10.40093,-23.66037 -9.97677,-69.37817 0.84301,-90.86308 3.61996,-7.18817 62.28303,-69.932 117.77151,-125.964 17.09633,-17.26379 34.44777,-35.88299 38.55878,-41.37601 18.93426,-25.29947 42.50495,-45.10935 68.68346,-57.72469 16.54711,-7.97402 27.48668,-11.61672 62.30297,-20.7459 16.87143,-4.42385 36.7028,-9.77829 44.06971,-11.89875 l 13.39437,-3.85541 8.3222,-16.29152 c 9.72599,-19.0396 18.06385,-28.35944 32.76998,-36.62948 6.36986,-3.58212 9.82298,-6.41477 9.84441,-8.07553 0.0181,-1.40693 -2.46437,-5.90122 -5.51675,-9.98732 -6.88115,-9.2115 -12.33274,-19.91226 -17.23208,-33.82431 -3.31946,-9.42582 -4.22658,-10.75448 -7.61404,-11.15211 -6.02818,-0.70764 -10.89074,-8.37339 -13.00847,-20.5077 -1.00111,-5.73627 -3.46203,-13.65972 -5.46869,-17.60767 -4.7454,-9.33614 -6.16777,-19.02527 -3.95378,-26.93284 1.56316,-5.58315 1.36895,-7.18202 -2.0107,-16.55116 -12.18795,-33.78787 -12.37978,-67.03784 -0.5028,-87.14917 5.1547,-8.72844 23.57482,-26.52241 36.07908,-34.85266 28.16067,-18.760405 58.794,-28.979506 90.5992,-30.223377 30.672,-1.199549 49.9234,5.091804 66.2217,21.641197 5.8433,5.93332 11.7451,10.23375 18.0452,13.14892 14.602,6.75659 25.5837,18.81045 38.2413,41.97504 16.6464,30.46459 17.5562,54.50337 2.9351,77.55836 -3.511,5.53624 -4.1155,7.54284 -2.9877,9.91764 0.7775,1.63743 1.8057,4.1864 2.2847,5.66433 1.3343,4.11644 -1.8609,19.171 -5.6602,26.66854 -1.8694,3.68903 -4.0127,10.47091 -4.763,15.07086 -0.7502,4.59993 -1.9918,9.96862 -2.759,11.93042 -1.8695,4.78044 -7.3377,9.62698 -11.5298,10.21893 -2.788,0.39367 -3.7542,1.82508 -5.2844,7.82891 -2.7299,10.71041 -9.6973,24.6723 -18.2862,36.64342 -4.1422,5.7734 -7.9412,11.16028 -8.4422,11.97084 -0.5025,0.81316 3.0757,3.81325 7.9829,6.69319 15.2779,8.96608 24.0808,18.43554 32.2649,34.70806 3.9628,7.87927 5.4202,9.3771 12.6682,13.0193 12.6902,6.377 26.3876,10.89362 57.0178,18.80117 56.8428,14.6747 71.7823,21.99951 88.9994,43.63648 9.2234,11.5912 19.1305,28.88812 26.7505,46.70366 6.9901,16.34292 7.7684,22.11475 10.1276,75.10249 6.5215,146.47289 5.3663,270.88294 -2.964,319.23736 -1.2939,7.51101 -1.9937,8.91724 -4.4372,8.91724 -2.6445,0 -2.8161,-0.59926 -1.9405,-6.7771 5.6429,-39.81378 7.1741,-74.20938 7.0662,-158.72695 -0.095,-74.8928 -3.1324,-173.60916 -6.3344,-205.91584 -1.2534,-12.64691 -2.5689,-17.93818 -7.2643,-29.22015 -15.1783,-36.46947 -32.3497,-58.07191 -54.6775,-68.78635 -14.7953,-7.09986 -23.7256,-9.98871 -59.5261,-19.25606 -16.2603,-4.20917 -35.4144,-9.99362 -42.5646,-12.85435 -7.1502,-2.86075 -13.3324,-4.86922 -13.7384,-4.4633 -1.8928,1.89281 15.4746,31.00339 27.2036,45.59778 7.0576,8.78177 13.4092,16.36048 14.1146,16.84158 0.7054,0.48111 1.0658,2.40724 0.801,4.28029 -0.448,3.16815 -1.1777,3.43665 -10.4689,3.85204 -5.6996,0.25482 -14.9929,-0.59654 -21.6469,-1.98311 -21.3803,-4.45521 -28.3155,-2.95801 -68.2389,14.73185 -11.9387,5.28998 -19.8421,7.82085 -50.1891,16.07195 l -11.6666,3.17206 -24.7157,-6.73009 c -17.63102,-4.8009 -30.95516,-9.551 -46.48227,-16.57102 -11.97157,-5.4125 -24.49138,-10.46965 -27.82181,-11.2381 -8.57241,-1.97796 -21.62886,-1.70711 -32.45036,0.6732 -16.45926,3.62039 -31.3887,2.36748 -31.3887,-2.63417 0,-1.00122 5.29912,-8.20161 11.77584,-16.00085 6.4767,-7.79925 13.4703,-16.74861 15.54133,-19.88748 5.60258,-8.49134 12.94528,-22.27714 12.24071,-22.98172 -0.83537,-0.83538 -58.33734,14.0616 -75.22687,19.48893 -7.45481,2.39556 -16.76441,5.34405 -20.68801,6.55222 -29.74279,9.15846 -59.84572,31.78768 -83.23695,62.5715 -5.96271,7.84717 -18.50093,21.65106 -27.86272,30.67531 -13.61592,13.12499 -91.73735,94.46543 -120.43285,125.3953 -12.48399,13.45605 -16.6924,29.35689 -15.52443,58.65663 1.49795,37.57762 9.13249,51.79718 34.38354,64.04051 35.71006,17.31455 88.44651,26.41006 170.58402,29.42082 24.27203,0.88969 58.2756,-1.11953 74.39765,-4.39606 l 3.77306,-0.76681 -4.71074,-7.00014 c -7.75357,-11.52174 -9.97283,-19.95526 -9.94234,-37.78216 0.0301,-17.57398 2.67063,-25.96328 10.82427,-34.38994 l 4.28455,-4.428 -6.99117,-3.00752 c -14.31247,-6.15707 -58.75514,-17.38797 -119.43171,-30.18105 -47.49901,-10.01472 -47.79643,-10.09657 -47.79643,-13.15539 0,-1.42108 0.46389,-2.58379 1.03088,-2.58379 1.3047,0 38.22058,7.72582 55.74336,11.66607 11.64975,2.61961 13.46708,2.72488 14.98098,0.86775 0.94757,-1.16244 9.10635,-7.59431 18.13061,-14.29304 9.02425,-6.69874 18.57227,-14.04031 21.21783,-16.3146 l 4.81012,-4.1351 -1.64217,-32.76839 c -3.52674,-70.37394 -4.54841,-96.69707 -3.82611,-98.57932 0.41368,-1.07806 1.6481,-1.96012 2.74315,-1.96012 2.45075,0 3.80299,8.8003 3.81239,24.81074 0.009,14.1668 5.25454,116.41377 7.14079,139.17151 0.7523,9.07654 1.37797,16.95958 1.39039,17.51787 0.0129,0.55829 2.75126,1.71463 6.08631,2.56968 21.95044,5.62761 42.65867,13.26511 48.15312,17.7596 1.17708,0.96284 6.95545,2.57766 12.84084,3.58848 11.83178,2.0321 31.05827,7.47051 38.02321,10.75524 2.47192,1.16577 13.06561,3.07337 23.54152,4.23908 21.22067,2.36137 37.10303,6.87908 50.69393,14.41981 14.59184,8.09607 20.34774,16.58696 31.76574,46.85904 2.9792,7.89882 7.494,18.42741 10.0329,23.39688 7.651,14.97553 7.274,24.32257 -1.1093,27.5099 -5.7924,2.20229 -12.6754,0.23641 -18.9178,-5.40325 -3.2139,-2.90361 -5.6185,-4.24406 -5.6139,-3.12958 0,1.07221 1.2977,11.58009 2.8739,23.35086 9.0816,67.81798 9.8191,80.49746 5.5168,94.85712 -1.978,6.60181 -7.082,11.43643 -12.0738,11.43643 -1.80964,0 -3.68708,0.64204 -4.17206,1.42676 -0.48498,0.78472 -4.03762,1.42676 -7.89474,1.42676 -6.21784,0 -7.23812,-0.44485 -8.99905,-3.92359 z m 12.6214,-1.79621 c 1.45089,-2.34759 -0.60968,-6.75905 -3.51159,-7.51792 -1.65845,-0.43369 -2.87558,-2.23495 -3.16296,-4.68098 -0.25693,-2.1868 -1.33907,-4.26266 -2.40476,-4.61303 -1.5357,-0.50486 -1.72061,0.65612 -0.89138,5.59703 1.58927,9.46954 3.16892,12.65442 6.27639,12.65442 1.54256,0 3.20498,-0.64779 3.6943,-1.43952 z m 15.04045,-11.65152 c 3.3664,-12.50196 1.9931,-30.47042 -7.9415,-103.90321 -3.60652,-26.65834 -4.01876,-28.31307 -9.8576,-39.56951 -3.35152,-6.46125 -5.76229,-12.07911 -5.35725,-12.48414 2.73899,-2.739 5.96204,0.18004 10.60814,9.60757 6.26951,12.72159 17.59991,29.1374 22.70061,32.88931 4.5477,3.34508 10.5405,2.41045 11.8943,-1.85504 0.4965,-1.56451 0.089,-5.09426 -0.9049,-7.84384 -1.4657,-4.05327 -2.5453,-4.99925 -5.7053,-4.99925 -4.4466,0 -6.1647,3.34138 -4.7061,9.1526 0.5712,2.27583 0.3305,3.68823 -0.6286,3.68823 -2.3055,0 -3.6363,-6.98793 -2.144,-11.25774 0.9115,-2.60806 2.4939,-3.8609 5.2832,-4.18285 2.1901,-0.25279 3.7555,-0.89483 3.4787,-1.42675 -2.9828,-5.73336 -7.87,-17.48943 -11.3749,-27.36219 -7.6995,-21.68817 -12.9202,-29.99093 -23.38576,-37.19145 -11.81799,-8.13099 -41.39027,-16.98609 -56.93126,-17.04744 -3.13887,-0.0129 -9.37958,-0.88682 -13.86825,-1.94316 -10.0804,-2.37229 -11.10379,-1.52214 -16.35926,13.58998 -2.74523,7.89393 -3.66759,13.47125 -3.7394,22.6117 -0.14182,18.05167 3.54304,23.82438 16.5168,25.87526 7.3051,1.15478 13.28513,4.40793 15.52254,8.44429 11.14173,20.09996 21.03909,47.81093 26.21071,73.3855 2.06056,10.18977 4.3117,19.20795 5.00257,20.04038 0.69086,0.83244 1.16941,2.76801 1.06346,4.30129 -0.10601,1.53326 0.99091,7.60307 2.43746,13.48845 3.03154,12.33407 6.30616,20.79868 6.39341,16.52645 0.0854,-4.18908 -6.82899,-45.50815 -10.16719,-60.75598 -1.63209,-7.45482 -3.28463,-14.9988 -3.67233,-16.76442 -0.54623,-2.48761 -0.0675,-3.21021 2.12695,-3.21021 3.29155,0 5.78154,7.61177 9.91794,30.31864 2.07106,11.36903 2.99305,13.91089 5.04579,13.91089 3.10085,0 3.2151,1.31123 0.29998,3.44283 -1.98507,1.45152 -1.87486,3.58141 1.07536,20.78222 3.02457,17.63421 3.55269,19.22765 6.61216,19.9499 1.82878,0.43171 4.2113,2.38622 5.29449,4.34335 1.08319,1.95713 1.9922,2.98044 2.01999,2.27401 0.13469,-3.42101 -14.03667,-72.96745 -17.28817,-84.84244 -2.07948,-7.59461 -2.44544,-10.94056 -1.31967,-12.06631 4.13458,-4.1346 7.70529,7.37554 16.51948,53.25024 2.78929,14.51727 5.36523,27.75321 5.72429,29.41316 0.53265,2.46243 1.64182,2.98782 6.02421,2.85352 l 5.3714,-0.1646 v 7.72828 c 0,4.61998 -0.6695,7.95143 -1.6646,8.28313 -1.1347,0.37825 -1.5888,-1.62751 -1.4267,-6.30151 0.2143,-6.17838 -0.091,-6.90298 -3.08941,-7.32764 -3.25358,-0.46081 -3.30486,-0.28723 -2.31798,7.84717 0.55506,4.57515 1.59772,9.45018 2.31702,10.8334 2.05887,3.95918 6.52597,0.58745 8.38917,-6.33207 z m -18.61524,-55.39339 c 0,-0.78473 1.00097,-1.42676 2.22435,-1.42676 1.22339,0 1.82754,0.64203 1.34255,1.42676 -0.48498,0.78471 -1.48594,1.42675 -2.22434,1.42675 -0.73841,0 -1.34256,-0.64204 -1.34256,-1.42675 z M 953.1276,875.14679 c -0.48497,-0.78471 0.11914,-1.42676 1.34257,-1.42676 1.22338,0 2.22434,0.64205 2.22434,1.42676 0,0.78473 -0.60415,1.42676 -1.34256,1.42676 -0.7384,0 -1.73936,-0.64203 -2.22435,-1.42676 z m 11.28459,-4.81661 c -0.51501,-1.34213 -0.52537,-2.85129 -0.023,-3.35366 0.50237,-0.50238 1.67316,-0.15368 2.60176,0.77491 1.28679,1.28679 1.29227,2.08439 0.023,3.35367 -1.26927,1.26927 -1.88803,1.08498 -2.60175,-0.77492 z m -66.38472,-43.12513 c 0.2989,-0.25632 -0.52635,-2.72049 -1.83389,-5.47592 -5.70869,-12.03018 -3.88011,-34.61041 4.21501,-52.04919 4.23066,-9.11386 4.52947,-8.77924 -11.39341,-12.75872 -19.70739,-4.9253 -25.16237,-5.2244 -29.72549,-1.6299 -5.35912,4.22153 -7.70518,9.20141 -9.68156,20.55066 -3.13216,17.98611 2.35884,39.54328 12.41968,48.75865 l 5.14156,4.70947 15.15731,-0.8195 c 8.33653,-0.45074 15.40188,-1.02924 15.70079,-1.28555 z M 802.16703,703.49936 c -0.93096,-12.41749 -1.88018,-18.06807 -2.96298,-17.63796 -4.81338,1.91194 -37.9684,28.14854 -36.32685,28.74657 1.05501,0.38435 6.73351,1.73657 12.6189,3.00497 5.88538,1.26839 14.23192,3.08116 18.54786,4.02839 4.31595,0.94723 8.21745,1.36373 8.67002,0.92554 0.45257,-0.43817 0.20644,-9.01855 -0.54695,-19.06751 z M 1049.9995,525.00328 c 11.3024,-4.99845 23.1796,-13.57812 33.0817,-23.89695 10.9807,-11.44279 15.4811,-17.47137 24.3259,-32.58589 11.838,-20.22956 11.3763,-18.45552 7.8787,-30.27867 -3.6808,-12.44238 -10.1897,-45.64358 -10.2006,-52.03247 0,-2.50401 -0.6143,-4.92762 -1.3556,-5.38579 -0.7413,-0.45816 -5.7628,2.38818 -11.1587,6.3252 -13.4547,9.81687 -23.0853,12.96787 -42.5396,13.91836 -27.438,1.34056 -41.5237,-2.76981 -60.57502,-17.67643 -5.55995,-4.35037 -10.27325,-7.6817 -10.47398,-7.40296 -0.20075,0.27874 -1.49138,7.89028 -2.86808,16.91452 -3.40522,22.32128 -6.28867,36.1364 -9.73545,46.64433 l -2.89809,8.83521 6.76172,12.56617 c 12.28562,22.83203 27.62648,41.89404 42.5062,52.81677 7.3708,5.41063 24.8616,14.66801 27.7273,14.67525 0.9585,0.003 5.2441,-1.54408 9.5236,-3.43665 z m -53.09088,-17.60365 c -13.23954,-13.07762 -24.40095,-28.77918 -34.42009,-48.42122 -5.60304,-10.98447 -5.83827,-11.92179 -3.93858,-15.69436 3.68708,-7.32207 12.3958,-49.00745 12.4076,-59.39038 l 0.004,-4.01488 -6.06372,3.30151 c -9.57564,5.2136 -22.66735,19.23713 -27.72334,29.69653 -2.46563,5.10066 -8.98699,18.58354 -14.49194,29.96194 -7.99015,16.5152 -12.62009,23.9433 -22.95438,36.82714 -7.11997,8.87652 -12.94541,16.42052 -12.94541,16.76442 0,1.32228 11.64578,0.53292 22.34595,-1.5146 22.64751,-4.3337 35.13027,-2.35884 60.10426,9.5089 13.04166,6.19744 35.60683,15.0367 39.21243,15.36029 0.6057,0.0544 -4.586,-5.51902 -11.53732,-12.38529 z m 89.81998,8.13683 c 4.7682,-1.6063 16.0785,-6.42861 25.1339,-10.71623 25.9821,-12.30214 39.3364,-14.46561 60.9855,-9.87998 10.1502,2.15 22.1153,2.82479 22.1153,1.24723 0,-0.47747 -4.049,-5.7743 -8.9978,-11.77076 -11.3264,-13.72418 -19.4539,-25.80124 -24.1402,-35.87091 -16.4219,-35.28704 -22.6342,-46.82237 -28.3275,-52.60051 -7.1688,-7.27551 -20.9028,-16.74331 -22.2841,-15.36199 -1.5635,1.56357 6.3114,45.06572 10.3168,56.99138 l 3.7068,11.03647 -7.2101,13.69561 c -9.5494,18.13938 -20.9945,33.80976 -33.6703,46.10081 -5.7002,5.52718 -9.4491,10.04943 -8.3309,10.04943 1.1182,0 5.9343,-1.31425 10.7026,-2.92055 z m -22.6271,-121.8802 c 13.3348,-2.82563 22.3735,-8.12089 36.2391,-21.23017 13.1663,-12.44814 22.8169,-26.63526 29.032,-42.67905 11.0092,-28.41924 16.7992,-102.67178 8.695,-111.50703 -9.4116,-10.26063 -24.5702,-39.25082 -30.1787,-57.7156 -1.6991,-5.59419 -3.5432,-10.17126 -4.0978,-10.17126 -0.5547,0 -3.8629,1.79139 -7.3516,3.98086 -28.0865,17.62687 -78.2127,30.49668 -127.28899,32.68123 -22.88928,1.01888 -20.26259,-1.92942 -21.99557,24.68856 -2.53665,38.96207 0.0795,80.39862 6.72323,106.48691 7.02103,27.56987 26.50566,53.84424 51.32613,69.21155 3.8004,2.35297 15.4953,6.37911 21.4014,7.36778 8.294,1.38838 28.5233,0.78749 37.4958,-1.11378 z m -32.8588,-40.74777 c -1.7656,-0.7097 -3.2102,-2.31737 -3.2102,-3.57261 0,-1.76116 0.7329,-2.01598 3.2102,-1.11605 3.2516,1.18128 19.5019,1.3964 24.458,0.32379 4.6691,-1.0105 4.0705,2.58141 -0.7079,4.24715 -5.3918,1.87961 -19.1966,1.94802 -23.7501,0.11771 z m -23.8656,-12.74362 c -0.4829,-0.7813 -0.1837,-2.71789 0.6649,-4.30354 1.6125,-3.01283 4.9681,-3.83179 6.3747,-1.55579 0.4592,0.74298 12.7335,1.32722 27.8833,1.32722 15.1499,0 27.4242,-0.58424 27.8834,-1.32722 1.5505,-2.50889 6.0203,-1.34919 6.837,1.77389 0.9993,3.82114 -0.1717,5.99307 -2.3886,4.43048 -1.9835,-1.39804 -62.5208,-1.30759 -64.7932,0.0969 -0.871,0.53829 -1.9787,0.33945 -2.4615,-0.44184 z m 27.7892,-25.66778 c -1.1771,-0.79734 -3.8756,-1.45954 -5.9966,-1.47156 -6.8276,-0.0386 -11.1246,-2.89103 -11.1246,-7.38465 0,-2.64995 0.7403,-4.05126 2.1402,-4.05126 1.1821,0 2.1401,1.2652 2.1401,2.82634 0,1.78606 1.1816,3.06705 3.2102,3.48032 1.7656,0.3597 5.1364,1.05288 7.4905,1.5404 2.3542,0.48753 6.0981,1.24906 8.32,1.69231 2.2218,0.44323 5.432,0.10301 7.1338,-0.7562 1.7017,-0.85916 5.3412,-1.74224 8.0877,-1.96242 3.9841,-0.31939 5.0881,-1.06622 5.4606,-3.69394 0.3093,-2.18248 1.272,-3.14022 2.8535,-2.83895 3.2152,0.61252 3.7981,5.9172 0.9132,8.31148 -3.9281,3.26001 -27.3189,6.5501 -30.6286,4.30813 z m -43.16581,-61.56077 c -4.33324,-4.33324 -4.51348,-4.37721 -8.80748,-2.14894 -2.41106,1.25117 -5.48963,3.06691 -6.8413,4.03501 -1.91585,1.37219 -2.83617,1.38157 -4.17522,0.0425 -2.46272,-2.46272 1.71567,-6.64615 11.04742,-11.06077 9.78001,-4.62669 21.66669,-4.87355 28.59149,-0.59379 4.6973,2.9031 7.391,8.26299 5.605,11.15282 -1.2831,2.07612 -4.8236,0.35245 -5.8375,-2.84192 -1.1022,-3.47277 -4.5048,-3.52428 -5.5965,-0.0848 -0.704,2.21807 -6.21267,5.92356 -8.80614,5.92356 -0.41579,0 -2.74669,-1.9907 -5.17977,-4.42376 z m 9.56161,-5.68541 c -0.4594,-0.7433 -1.4434,-0.97559 -2.18668,-0.5162 -0.7433,0.45937 -0.97559,1.44338 -0.5162,2.18668 0.45938,0.7433 1.44338,0.97559 2.18668,0.5162 0.7433,-0.45937 0.9756,-1.44338 0.5162,-2.18668 z m 82.5038,8.54742 c -1.6888,-0.62474 -3.9683,-2.84929 -5.0655,-4.94345 l -1.995,-3.80757 -2.9337,3.72964 c -5.2766,6.70807 -10.1565,3.85312 -5.29,-3.09487 6.9582,-9.93423 27.0967,-9.84922 40.8634,0.17251 9.4051,6.84667 4.3543,10.47713 -5.4975,3.95153 l -6.6717,-4.41913 -2.4744,4.06877 c -2.7864,4.5819 -6.4046,6.0187 -10.9356,4.34257 z m 6.3576,-7.8608 c -0.4741,-0.4741 -1.7047,-0.52478 -2.7347,-0.11258 -1.1381,0.45545 -0.8001,0.79354 0.862,0.862 1.5041,0.0619 2.3467,-0.27527 1.8727,-0.74937 z m -75.9452,-18.57536 c -15.66841,-4.87965 -34.80478,-6.04477 -44.79302,-2.72722 -4.10772,1.36439 -7.86849,2.08079 -8.35725,1.59203 -0.48876,-0.48877 1.93365,-3.76439 5.38315,-7.27918 7.02203,-7.15492 9.80952,-7.66644 26.77461,-4.91338 14.98881,2.43235 32.55651,10.28534 34.19891,15.28731 0.7593,2.3128 0.2866,2.24265 -13.2064,-1.95956 z m 42.0893,2.45124 c 0,-2.75549 13.0176,-10.05409 23.5002,-13.17594 5.4808,-1.63228 14.8996,-3.30598 20.9306,-3.71936 l 10.9653,-0.75158 6.889,6.50885 c 3.7889,3.57987 6.476,6.92168 5.9715,7.42625 -0.5046,0.50458 -4.3075,-0.0893 -8.4509,-1.31981 -13.6464,-4.05255 -28.5869,-2.54519 -56.5955,5.71 -2.0035,0.59052 -3.2102,0.33551 -3.2102,-0.67841 z m -111.89055,71.55966 c -1.90479,-11.0659 -2.51106,-13.19752 -3.75362,-13.19752 -4.28191,0 -7.24775,-15.71328 -4.08223,-21.62807 2.2845,-4.26863 0.58156,-8.7302 -4.47154,-11.71513 -5.9851,-3.53549 -3.49267,-6.35706 2.75953,-3.12394 4.1691,2.15593 4.44285,2.14137 4.42236,-0.23528 -0.0518,-6.00729 -6.56387,-9.89239 -11.17163,-6.66498 -4.79513,3.35862 -4.29765,16.25593 1.07734,27.93019 2.2833,4.95923 4.59685,12.64785 5.1412,17.08579 1.10563,9.01383 5.15569,16.89928 8.67964,16.89928 1.89333,0 2.15056,-0.9838 1.39895,-5.35034 z m 202.28025,2.72842 c 1.305,-1.44207 3.578,-8.02299 5.051,-14.62428 1.473,-6.6013 4.3507,-15.53359 6.3949,-19.84953 4.78,-10.09208 5.1297,-21.13242 0.7936,-25.05653 -2.6942,-2.43823 -3.284,-2.48436 -6.7771,-0.53013 -2.1044,1.17726 -4.0313,3.56363 -4.282,5.30302 -0.4628,3.20988 1.698,4.34317 3.3094,1.73576 1.0896,-1.76294 6.4204,-1.89919 6.4204,-0.16408 0,0.69446 -1.5825,2.29956 -3.5167,3.5669 -4.7996,3.14485 -7.114,7.65693 -5.1447,10.02986 0.8382,1.0099 1.8978,4.6606 2.3548,8.11266 0.7126,5.38212 0.2181,7.19278 -3.4699,12.70699 -2.6884,4.01962 -4.6728,9.23502 -5.2931,13.9109 -1.0589,7.98243 0.1034,9.34018 4.1594,4.85846 z M 941.24469,277.33471 c -0.29934,-3.13887 -0.79783,-5.70703 -1.10778,-5.70703 -0.30994,0 -0.56351,2.56816 -0.56351,5.70703 0,3.13887 0.49849,5.70704 1.10778,5.70704 0.60926,0 0.86284,-2.56817 0.56351,-5.70704 z m 206.15371,-1.78345 c -0.3958,-0.98089 -0.7197,-0.17834 -0.7197,1.78345 0,1.9618 0.3239,2.76435 0.7197,1.78345 0.3958,-0.98089 0.3958,-2.58599 0,-3.5669 z M 940.86317,217.76752 c 0.91734,-12.3593 1.80495,-25.36064 1.9725,-28.89187 l 0.30463,-6.42042 22.82814,-1.02234 c 54.81936,-2.45505 101.14256,-14.9656 134.65686,-36.36684 4.2214,-2.69569 8.1437,-4.37448 8.7162,-3.73066 0.5724,0.64382 1.7371,4.78919 2.5882,9.21192 3.1833,16.54207 17.5812,47.0184 29.1285,61.65679 4.7209,5.98469 6.7352,12.52352 6.788,22.03579 l 0.034,6.12839 5.3503,-0.95875 c 7.1281,-1.27731 9.1789,-3.30649 14.7229,-14.56799 9.2437,-18.77675 7.2446,-36.70213 -7.1409,-64.02755 -12.0127,-22.81833 -25.6604,-37.15517 -40.0408,-42.06263 -2.7901,-0.95214 -9.2237,-5.96155 -14.5797,-11.35204 -15.5601,-15.66057 -30.7051,-21.250328 -57.5761,-21.250328 -40.3067,0 -84.83251,18.849308 -113.5679,48.077188 -12.67757,12.89485 -16.08674,18.82665 -19.18988,33.38957 -3.66005,17.17653 -0.20189,45.61475 7.82094,64.31539 2.28055,5.31578 3.68034,6.79593 6.88172,7.27672 9.23743,1.3873 8.49301,2.93657 10.30229,-21.44034 z m 294.04933,711.07875 c 0,-1.06927 1.3408,-7.32918 2.9795,-13.9109 4.6002,-18.47592 8.9113,-45.35622 17.594,-109.69978 4.8055,-35.6118 17.5893,-155.87656 24.4173,-229.70821 2.8048,-30.3289 3.2321,-32.81547 5.6396,-32.81547 3.4409,0 3.7866,2.46532 2.2619,16.13749 -0.8155,7.315 -2.4253,23.53016 -3.577,36.03367 -15.1479,164.45353 -35.1373,317.22572 -43.5683,332.97921 -1.7602,3.28896 -5.747,3.97158 -5.747,0.98399 z"
       id="path1" />
  </g>
</svg>
