<?xml version="1.0" encoding="UTF-8" standalone="no"?>
<!-- Created with Inkscape (http://www.inkscape.org/) -->

<svg
   version="1.1"
   id="svg1"
   width="1920"
   height="1080"
   viewBox="0 0 1920 1080"
   xmlns="http://www.w3.org/2000/svg"
   xmlns:svg="http://www.w3.org/2000/svg">
  <defs
     id="defs1" />
  <g
     id="g1">
    <path
       style="fill:#000000;stroke-width:1.5912"
       d="m 831.13269,923.60956 c -0.48765,-2.40669 -2.29141,-7.0238 -4.00831,-10.26025 -1.71692,-3.23644 -3.12167,-7.266 -3.12167,-8.95457 0,-1.68856 -1.02803,-3.92331 -2.28452,-4.9661 -1.25649,-1.0428 -2.73459,-3.94517 -3.28468,-6.4497 -0.5501,-2.50453 -2.02819,-5.4069 -3.28469,-6.44969 -1.25649,-1.0428 -2.28452,-2.94667 -2.28452,-4.23085 0,-3.62398 -8.34882,-11.59627 -12.14395,-11.59627 -1.87147,0 -5.69347,0.9632 -8.49333,2.14046 -5.90495,2.48283 -12.77794,1.65969 -12.77794,-1.53037 0,-1.41233 1.85346,-2.21944 5.17141,-2.2519 2.84427,-0.0278 6.56133,-1.1019 8.26013,-2.3868 1.6988,-1.28491 4.65429,-2.3362 6.56776,-2.3362 4.47936,0 7.43595,-3.60711 6.77546,-8.26623 -0.42393,-2.99048 -1.64427,-3.76031 -6.60858,-4.16888 -3.60761,-0.29692 -7.62624,0.50637 -9.86204,1.97131 -2.07535,1.35984 -4.17106,1.82896 -4.65712,1.04251 -1.93892,-3.13725 1.29364,-6.22777 8.37781,-8.00973 11.61929,-2.9227 17.28092,-6.31985 25.09784,-15.05941 3.9774,-4.44687 8.25856,-9.21933 9.5137,-10.60548 1.25514,-1.38616 2.28207,-3.97474 2.28207,-5.75242 0,-1.77767 1.43208,-5.05273 3.1824,-7.2779 1.96712,-2.50079 3.1824,-6.45515 3.1824,-10.35512 0,-3.47014 1.35612,-9.44356 3.01361,-13.27423 2.12163,-4.9034 3.08879,-11.2036 3.26763,-21.28569 0.15227,-8.5869 1.07754,-15.59501 2.31082,-17.50321 1.17348,-1.81567 2.46754,-10.69943 3.01317,-20.68561 0.52601,-9.62677 2.18203,-21.44144 3.68007,-26.25482 2.36935,-7.61301 2.74256,-17.09167 2.8686,-72.85531 0.10836,-47.89905 -0.33272,-64.39894 -1.74454,-65.27164 -2.74066,-1.69407 -5.27095,-9.20255 -5.27095,-15.6412 0,-3.0686 -0.98744,-6.56671 -2.19432,-7.77358 -1.20686,-1.20687 -2.67404,-5.39342 -3.26038,-9.30345 -0.58634,-3.91001 -2.10505,-7.97139 -3.37489,-9.02527 -1.26984,-1.05387 -2.30882,-3.65572 -2.30882,-5.78187 0,-3.64777 -0.96215,-5.95186 -9.31826,-22.31467 -1.87624,-3.67402 -3.41135,-8.07267 -3.41135,-9.77477 0,-1.70209 -1.00654,-3.48095 -2.23675,-3.95303 -1.23022,-0.47208 -2.74961,-3.19329 -3.37642,-6.04711 -0.6268,-2.85383 -2.1264,-6.17554 -3.33243,-7.38158 -1.20605,-1.20603 -2.21543,-3.75274 -2.24309,-5.65934 -0.05,-3.44274 -6.59153,-12.26438 -9.02279,-12.16763 -0.69836,0.0278 -3.74141,2.53392 -6.76234,5.5692 -3.02094,3.03528 -6.42213,5.51868 -7.5582,5.51868 -1.13609,0 -2.0656,0.60056 -2.0656,1.33456 0,1.18721 -19.04124,14.3987 -23.07242,16.00847 -0.87516,0.34948 -3.29886,1.96057 -5.38599,3.5802 -2.08713,1.61964 -4.83835,2.94479 -6.11383,2.94479 -1.27547,0 -4.13963,1.43208 -6.3648,3.1824 -2.22517,1.75032 -5.65163,3.1824 -7.61434,3.1824 -1.96273,0 -4.41353,1.01809 -5.44622,2.26242 -1.03271,1.24432 -4.8796,2.74042 -8.54865,3.32464 -3.66906,0.58424 -9.82116,2.10012 -13.67136,3.36864 -6.9665,2.29524 -18.60946,1.75185 -24.18209,-1.12859 -2.96628,-1.53325 -6.21078,1.08195 -6.21078,5.00615 0,1.45727 -1.43208,4.47018 -3.1824,6.69535 -1.75032,2.22517 -3.1824,5.56639 -3.1824,7.42492 0,1.85854 -1.07406,3.79133 -2.3868,4.29507 -1.31274,0.50376 -2.3868,2.17482 -2.3868,3.71348 0,1.53866 -1.33359,4.50523 -2.96352,6.59236 -1.62993,2.08713 -3.44729,5.33974 -4.03858,7.228 -0.59127,1.88827 -2.12185,3.83491 -3.40129,4.32586 -1.27942,0.49096 -2.32622,1.87822 -2.32622,3.08279 0,1.20457 -1.43208,3.48613 -3.1824,5.07016 -1.75032,1.58402 -3.18241,3.75544 -3.18241,4.82538 0,1.06995 -1.01405,2.78694 -2.25344,3.81555 -1.2394,1.0286 -5.71465,7.00775 -9.94501,13.28698 -4.23036,6.27923 -8.76562,12.52407 -10.07836,13.87744 -1.31274,1.35334 -3.81888,5.30745 -5.5692,8.78686 -1.75033,3.47942 -4.07746,6.89883 -5.17141,7.59869 -1.09395,0.69986 -1.989,2.21438 -1.989,3.36561 0,1.15124 -1.43208,3.91375 -3.1824,6.13892 -1.75032,2.22517 -3.1824,5.05088 -3.1824,6.27936 0,1.22847 -1.43208,3.77073 -3.18241,5.64949 -1.75032,1.87875 -3.1824,5.13937 -3.1824,7.24585 0,2.10647 -1.43208,5.65055 -3.1824,7.87572 -1.88183,2.39237 -3.21095,6.54432 -3.25224,10.15959 -0.0383,3.36261 -1.1017,8.97799 -2.36285,12.47863 -2.74016,7.60604 -3.20187,41.28637 -0.6577,47.97806 0.92577,2.43495 2.33033,11.79267 3.12126,20.79494 0.79092,9.00227 2.53962,19.61238 3.88598,23.57802 1.39976,4.12288 2.44795,12.67101 2.44795,19.96329 0,8.58132 0.83331,14.36446 2.54747,17.67926 1.71698,3.3203 2.83078,11.07553 3.41653,23.789 0.66189,14.36603 1.38224,18.86275 3.02174,18.86275 1.18396,0 2.15267,-1.38094 2.15267,-3.06874 0,-1.68782 0.92127,-4.01495 2.04729,-5.17141 1.12601,-1.15647 4.08553,-6.04088 6.57672,-10.85426 2.49118,-4.81339 5.86615,-10.45927 7.49992,-12.5464 1.63376,-2.08713 2.97048,-4.68461 2.97048,-5.77216 0,-1.08757 1.02803,-2.83057 2.28452,-3.87337 1.25649,-1.04279 2.74546,-3.99463 3.30884,-6.55965 0.56337,-2.565 1.68346,-4.66365 2.48908,-4.66365 0.80561,0 1.46477,-0.93494 1.46477,-2.07766 0,-1.14272 1.7526,-4.45318 3.89465,-7.35658 2.14208,-2.9034 4.34709,-7.33875 4.90004,-9.85635 0.55296,-2.51758 1.62896,-4.57742 2.39113,-4.57742 0.76217,0 1.8771,-4.34287 2.47763,-9.6508 0.60052,-5.30794 2.02154,-10.58048 3.15782,-11.71676 1.13628,-1.13627 2.56993,-6.52056 3.18592,-11.96507 0.68141,-6.0229 1.96811,-10.22458 3.28599,-10.73029 1.43666,-0.55131 2.16957,-3.58687 2.17652,-9.01476 0.006,-5.48891 1.05147,-9.7554 3.17192,-12.95717 1.86544,-2.81673 3.16572,-7.46596 3.17191,-11.34138 0.006,-3.70564 0.99035,-7.38098 2.25898,-8.43384 1.23669,-1.02636 2.73851,-5.42888 3.33741,-9.78339 0.59889,-4.35451 1.97148,-8.79987 3.05017,-9.87856 1.07869,-1.07869 2.41041,-4.7291 2.95938,-8.11201 0.54898,-3.38292 2.0121,-7.31502 3.2514,-8.73801 1.2393,-1.42298 2.72146,-5.20326 3.2937,-8.40062 0.57223,-3.19736 2.09501,-6.21805 3.38395,-6.71266 1.28893,-0.49462 2.34352,-2.41993 2.34352,-4.27847 0,-1.85854 1.43208,-5.19976 3.1824,-7.42492 1.75032,-2.22517 3.1824,-5.00078 3.1824,-6.16802 0,-3.68752 13.1463,-21.58959 23.19542,-31.58657 9.46395,-9.41485 20.42766,-16.6502 22.33691,-14.74093 1.34671,1.34669 -5.55267,10.6901 -7.89382,10.6901 -1.05866,0 -3.09985,1.25307 -4.53599,2.7846 -1.43615,1.53153 -4.88047,4.93272 -7.65406,7.5582 -2.77359,2.62549 -6.20832,6.74272 -7.63274,9.14941 -1.42442,2.40669 -3.15151,4.3758 -3.83799,4.3758 -0.68646,0 -1.24812,1.08107 -1.24812,2.40238 0,1.3213 -1.43208,3.62856 -3.1824,5.12724 -1.75032,1.49867 -3.1824,3.70585 -3.1824,4.90484 0,1.199 -1.43209,4.0006 -3.18241,6.22577 -1.75032,2.22516 -3.1824,5.08933 -3.1824,6.3648 0,1.27548 -1.43208,4.13964 -3.1824,6.3648 -1.75032,2.22517 -3.1824,5.65163 -3.1824,7.61435 0,1.96273 -0.99622,4.39537 -2.21383,5.4059 -1.2176,1.0105 -2.6998,5.07812 -3.2938,9.03912 -0.59398,3.961 -2.1039,7.59474 -3.35538,8.07498 -1.36161,0.5225 -2.2754,3.0668 -2.2754,6.33551 0,3.00428 -1.43208,8.26945 -3.1824,11.70037 -1.75032,3.43091 -3.18241,8.24627 -3.18241,10.70078 0,2.45452 -1.43208,7.1347 -3.1824,10.40042 -1.7622,3.2879 -3.1824,8.9777 -3.1824,12.7498 0,3.74666 -1.03415,8.28859 -2.29811,10.09313 -1.26397,1.80455 -2.78874,7.15517 -3.38838,11.89027 -0.59964,4.73508 -1.97572,9.6833 -3.05794,10.99604 -1.08224,1.31274 -2.39022,6.16576 -2.90666,10.7845 -0.51644,4.61873 -2.04442,9.50314 -3.39555,10.85426 -1.48161,1.48162 -2.45657,5.27845 -2.45657,9.56672 0,8.70285 -4.70563,18.39307 -11.29279,23.25507 -2.69619,1.99006 -5.91107,5.76641 -7.14417,8.3919 -1.2331,2.62548 -3.67708,6.92172 -5.43106,9.5472 -1.75398,2.62548 -4.31082,6.92173 -5.68187,9.54721 -1.37105,2.62548 -4.20463,7.63776 -6.29682,11.13841 -2.09219,3.50064 -4.83408,8.60453 -6.0931,11.34195 -1.25901,2.73744 -3.07821,5.46485 -4.04267,6.06092 -0.96445,0.59606 -1.75355,2.3626 -1.75355,3.92563 0,1.56304 -1.43208,4.13789 -3.18241,5.72191 -1.75032,1.58403 -3.1824,4.10457 -3.1824,5.60124 0,1.49665 -1.43208,4.5418 -3.1824,6.76696 -1.75032,2.22517 -3.1824,5.09823 -3.1824,6.38456 0,1.28634 -1.05511,3.21446 -2.3447,4.28472 -1.28957,1.07026 -2.79657,4.35461 -3.34884,7.29853 -0.55229,2.94395 -2.00332,6.18187 -3.22452,7.19537 -1.22119,1.0135 -2.22035,3.45747 -2.22035,5.43105 0,1.97359 -1.12864,4.52501 -2.50808,5.66985 -5.26963,4.37342 -6.51293,-6.75606 -1.43329,-12.83025 1.09778,-1.31274 2.50122,-4.76232 3.11872,-7.66572 0.61751,-2.9034 2.12928,-5.66517 3.3595,-6.13725 1.23021,-0.47208 2.24148,-2.03478 2.24724,-3.47268 0.006,-1.43789 1.43313,-4.76249 3.17192,-7.38797 1.73878,-2.62548 3.16615,-5.99109 3.17191,-7.47914 0.006,-1.48804 1.26356,-3.40548 2.79509,-4.26099 4.18043,-2.33517 4.91382,-43.80833 1.07264,-60.65952 -1.49617,-6.5637 -3.04226,-18.47023 -3.43578,-26.45893 -0.65271,-13.25111 -1.11335,-14.96057 -5.25236,-19.49222 -2.49531,-2.73201 -5.56367,-4.96728 -6.81857,-4.96728 -1.25492,0 -3.17306,-1.07406 -4.26254,-2.3868 -1.08948,-1.31274 -3.22871,-2.3868 -4.75386,-2.3868 -1.52513,0 -4.59357,-1.43209 -6.81874,-3.18241 -2.22517,-1.75032 -5.07635,-3.1824 -6.33593,-3.1824 -1.25957,0 -3.94135,-1.43208 -5.95949,-3.1824 -2.01814,-1.75032 -4.90418,-3.1824 -6.41343,-3.1824 -1.50927,0 -3.6355,-1.07406 -4.72498,-2.3868 -1.08948,-1.31275 -3.2287,-2.38681 -4.75385,-2.38681 -1.52514,0 -4.59358,-1.43208 -6.81875,-3.1824 -2.22516,-1.75032 -5.00688,-3.2067 -6.18159,-3.23639 -1.1747,-0.0297 -4.99998,-1.43748 -8.50062,-3.12841 -3.50065,-1.69094 -8.58097,-3.09872 -11.28959,-3.12842 -2.8491,-0.0312 -6.13867,-1.3953 -7.80483,-3.23639 -1.98906,-2.19789 -4.90085,-3.1824 -9.41229,-3.1824 -7.25883,0 -15.25132,-5.76874 -15.25132,-11.00796 0,-4.65781 -3.16287,-6.01008 -16.25783,-6.95091 -7.3134,-0.52544 -13.73113,-1.89879 -15.86827,-3.3957 -1.97363,-1.3824 -6.4159,-2.51345 -9.8717,-2.51345 -3.45579,0 -7.41369,-1.01305 -8.79535,-2.25123 -1.38165,-1.23817 -5.01713,-2.8945 -8.07886,-3.68072 -3.18255,-0.81725 -5.78815,-2.57906 -6.08367,-4.11357 -0.74421,-3.86428 9.86465,-3.67427 13.78583,0.24691 1.73085,1.73084 6.4054,3.34248 11.4163,3.93595 4.66693,0.55272 9.00675,1.84864 9.64406,2.87981 0.67029,1.08457 7.76352,2.38359 16.82751,3.08173 8.61783,0.66377 17.50439,1.68707 19.7479,2.27399 3.51453,0.91941 4.6708,0.17304 8.35381,-5.39236 3.53755,-5.34562 4.27468,-8.24253 4.27468,-16.79973 0,-9.57016 -0.32588,-10.5397 -4.3758,-13.01854 -13.21095,-8.08607 -17.9302,-11.64582 -26.02101,-19.62781 -17.67236,-17.43466 -27.1126,-25.50328 -29.83871,-25.50328 -1.52682,0 -3.55395,-0.7779 -4.50473,-1.72868 -2.34974,-2.34974 -85.88878,-3.44325 -90.11842,-1.17962 -1.68161,0.89997 -6.37153,2.11036 -10.42206,2.68977 -9.86192,1.41068 -9.97441,5.23196 -0.20418,6.93576 3.93822,0.68677 11.09862,2.06572 15.91201,3.06435 4.81338,0.99862 16.27003,1.73674 25.45921,1.6403 9.18919,-0.0964 19.21376,0.38194 22.27682,1.06307 4.94407,1.09944 5.51351,1.74578 5.07307,5.75827 -0.61141,5.56995 2.52363,7.81743 6.90245,4.94831 2.81853,-1.84676 3.77171,-1.71394 7.11226,0.99108 3.61665,2.92859 3.71003,3.38893 1.49525,7.37153 -1.29928,2.33634 -3.95584,4.95471 -5.90347,5.81861 -1.94763,0.86389 -3.54115,2.11696 -3.54115,2.7846 0,1.74938 -7.44027,1.49255 -14.1362,-0.48797 -4.83611,-1.43043 -6.95931,-1.16476 -13.31202,1.66565 -7.66611,3.41559 -9.8443,6.35946 -4.77361,6.4516 3.84648,0.0699 7.67335,3.25477 9.02391,7.51001 1.26652,3.99042 4.16071,4.95215 16.70804,5.55212 5.54656,0.26522 8.88023,1.18165 9.33711,2.56681 0.57076,1.7304 -2.0661,2.04352 -13.40013,1.5912 -12.72521,-0.50783 -14.83819,-1.05571 -21.51958,-5.5799 -4.07487,-2.75923 -8.83084,-5.46809 -10.5688,-6.0197 -7.76034,-2.46304 -2.99146,-15.6392 6.44145,-17.79739 4.76508,-1.09021 5.66514,-4.96099 2.86568,-12.32413 -1.23406,-3.24582 -2.90667,-4.14498 -9.14941,-4.91856 -4.2016,-0.52065 -12.396,-2.00208 -18.20975,-3.29207 -5.81377,-1.28997 -13.05554,-2.34541 -16.09284,-2.34541 -11.15573,0 -18.7323,-14.42048 -10.33211,-19.66516 4.62863,-2.88989 46.68624,-4.55142 63.25024,-2.49878 28.50301,3.53218 28.95065,3.55292 30.27962,1.40262 1.98426,-3.2106 20.08703,-4.07631 23.48006,-1.12287 1.50038,1.30598 3.5163,2.64695 4.47982,2.97994 2.73872,0.94648 21.06953,17.22192 29.80503,26.46309 9.63487,10.19258 14.50763,12.77577 22.36844,11.85806 3.31953,-0.38754 7.58118,0.0342 9.47032,0.93706 1.88913,0.90293 7.73104,2.48676 12.982,3.51963 5.25096,1.03288 11.33731,2.22913 13.52521,2.65835 2.1879,0.42921 14.7196,1.38754 27.8482,2.1296 13.12862,0.74207 25.83441,2.09601 28.23511,3.00876 3.88799,1.47821 4.66787,1.18608 7.13759,-2.67357 1.52498,-2.38321 3.67701,-5.2793 4.78231,-6.43577 1.10531,-1.15646 2.00964,-3.90769 2.00964,-6.11383 0,-2.20613 1.43208,-5.83177 3.1824,-8.05693 1.75032,-2.22517 3.1824,-5.29361 3.1824,-6.81875 0,-1.52515 1.00381,-3.60607 2.23069,-4.62428 1.22686,-1.01823 2.6726,-3.61204 3.21272,-5.76405 0.54011,-2.152 1.67481,-3.91273 2.52156,-3.91273 0.84674,0 2.649,-2.32713 4.00502,-5.1714 4.54222,-9.52745 7.28735,-13.92301 8.69523,-13.92301 0.76842,0 1.85032,-1.42785 2.40421,-3.17298 0.55388,-1.74514 1.85521,-4.07227 2.89183,-5.17141 1.03662,-1.09914 4.03288,-5.2206 6.65836,-9.15882 5.65303,-8.47956 5.94962,-8.88904 11.11443,-15.34612 2.20109,-2.75181 4.00198,-5.44431 4.00198,-5.98331 0,-0.53902 2.41392,-4.41433 5.36426,-8.61181 2.95033,-4.19747 5.84222,-9.13775 6.42642,-10.97839 0.58419,-1.84064 2.10851,-4.215 3.38736,-5.27635 1.27885,-1.06134 2.32518,-3.28113 2.32518,-4.93286 0,-1.65173 1.43208,-4.22934 3.1824,-5.72801 1.75032,-1.49867 3.1824,-4.67291 3.1824,-7.05387 0,-2.38096 1.45652,-6.79764 3.23673,-9.81486 1.7802,-3.01722 3.67252,-9.1654 4.20514,-13.66265 0.53264,-4.49722 1.58225,-8.55615 2.33248,-9.01981 2.03325,-1.25662 1.68406,-20.96898 -0.38364,-21.65821 -0.96124,-0.32042 -2.07737,-4.1393 -2.4803,-8.4864 -1.38679,-14.96203 -1.45093,-15.06987 -8.92972,-15.01365 -3.70276,0.0279 -8.12223,1.10191 -9.82102,2.3868 -2.09722,1.58627 -7.03711,2.3362 -15.38859,2.3362 h -12.29987 l -7.28602,-7.28603 c -6.96909,-6.96909 -7.28603,-7.68512 -7.28603,-16.46099 0,-7.15415 -0.70094,-9.80931 -3.1824,-12.055 -1.75032,-1.58403 -3.1824,-3.84571 -3.1824,-5.02598 0,-1.18028 -1.43208,-4.81791 -3.1824,-8.08364 -1.87377,-3.49604 -3.1824,-8.97768 -3.1824,-13.33057 0,-6.48566 -0.64091,-7.88176 -5.22255,-11.37634 -2.87239,-2.19088 -6.6316,-4.25142 -8.35381,-4.57897 -4.73632,-0.90083 -5.29437,-14.23847 -0.83304,-19.91014 1.79905,-2.28712 3.27099,-5.0482 3.27099,-6.13575 0,-1.08757 1.02802,-2.83058 2.28452,-3.87337 1.25649,-1.04279 2.74708,-4.002 3.31243,-6.576 0.56534,-2.57403 2.158,-5.81015 3.53926,-7.19139 2.97717,-2.97718 3.7739,-20.81466 1.00874,-22.58433 -2.63254,-1.6848 -3.62596,-6.30082 -3.97948,-18.49097 -0.22647,-7.80985 -1.08661,-11.76739 -2.96598,-13.64676 -1.45585,-1.45585 -3.10685,-3.84537 -3.66891,-5.31004 -0.56205,-1.46469 -1.69037,-2.66305 -2.50739,-2.66305 -0.81701,0 -2.29378,-1.96911 -3.28169,-4.3758 -0.9879,-2.4067 -2.87667,-6.16591 -4.19725,-8.35381 -3.38586,-5.60959 -2.43051,-25.01945 1.36816,-27.79711 1.49753,-1.09502 2.72278,-2.64761 2.72278,-3.45019 0,-1.45035 9.1453,-10.12393 10.67453,-10.12393 0.44004,0 2.80828,-1.61109 5.26274,-3.5802 9.49258,-7.61549 11.83475,-9.14941 13.97041,-9.14941 1.2155,0 4.03059,-1.43208 6.25576,-3.1824 2.22516,-1.75032 5.50391,-3.1824 7.28609,-3.1824 1.78218,0 4.52071,-1.15874 6.08564,-2.57498 1.56494,-1.41624 6.08511,-2.94016 10.04483,-3.38647 3.95973,-0.44632 8.01469,-1.79372 9.01102,-2.99423 1.15764,-1.39489 5.17554,-2.18273 11.13167,-2.18273 5.21125,0 12.31576,-1.22448 16.11497,-2.77745 9.94574,-4.06542 51.13282,-4.0706 56.8739,-0.007 2.71872,1.92427 6.96019,2.7846 13.72817,2.7846 6.76453,0 10.40663,0.73828 11.77479,2.38681 1.08948,1.31274 3.86231,2.39879 6.16183,2.41346 2.29955,0.0146 8.1192,2.14588 12.93259,4.73606 4.81338,2.59016 11.07089,5.80668 13.90557,7.14781 6.06145,2.86776 29.05686,25.74506 29.05686,28.90763 0,1.19648 1.43208,3.40161 3.1824,4.90028 1.75032,1.49867 3.18713,3.81879 3.19289,5.15583 0.006,1.33703 1.43313,4.57909 3.17191,7.20457 1.73879,2.62549 3.16616,6.70714 3.17192,9.07034 0.006,2.36321 1.10159,4.90735 2.43514,5.65365 1.4427,0.80736 2.82131,4.70595 3.40404,9.62628 0.53867,4.54814 1.52565,8.26936 2.1933,8.26936 1.58024,0 4.70761,9.01339 4.70761,13.56782 0,1.95014 1.07406,4.43711 2.38681,5.52659 1.31274,1.08948 2.3868,3.94475 2.3868,6.34506 0,2.40029 1.43208,6.18477 3.1824,8.40994 1.75032,2.22517 3.1824,6.38259 3.1824,9.2387 0,2.85611 1.25307,6.57757 2.7846,8.26989 2.3722,2.62123 2.78461,6.3681 2.78461,25.29863 0,19.50905 -0.33992,22.41191 -2.78461,23.78003 -1.78198,0.99725 -2.7846,3.46495 -2.7846,6.85365 0,2.91241 -1.04632,6.16368 -2.32517,7.22502 -1.27885,1.06135 -2.80655,3.47616 -3.39486,5.36625 -1.07104,3.44088 -8.63585,14.02857 -13.28679,18.59616 -7.95619,7.81361 -25.58151,17.45996 -31.90191,17.45996 -2.52752,0 -5.05667,0.74621 -5.62034,1.65824 -0.56367,0.91203 -3.77624,2.75913 -7.13904,4.10465 l -6.1142,2.44642 2.27153,6.43821 c 1.24935,3.54101 2.27154,8.06823 2.27154,10.06049 0,2.59769 1.35619,4.09507 4.79459,5.29369 2.63702,0.91927 5.26504,2.95844 5.84004,4.53147 0.57501,1.57303 2.35568,4.56772 3.95703,6.65485 1.60135,2.08713 2.91155,5.40065 2.91155,7.36336 0,1.96273 1.02803,4.42177 2.28452,5.46457 1.25649,1.04279 2.73459,3.94516 3.28468,6.44969 0.5501,2.50454 1.9533,5.34474 3.11823,6.31155 1.16494,0.96681 2.56995,4.16653 3.12224,7.11047 0.55227,2.94393 2.05927,6.22828 3.34884,7.29854 1.28959,1.07026 2.3447,3.59721 2.3447,5.61544 0,2.01824 1.05459,4.72409 2.34352,6.01304 1.28894,1.28894 2.98616,5.20366 3.77159,8.69938 0.78545,3.49573 2.59501,8.02192 4.02129,10.05819 1.42627,2.03628 2.59321,5.36867 2.59321,7.40531 0,2.03663 0.99011,5.63651 2.20023,7.99975 1.21013,2.36323 2.71938,8.235 3.35389,13.04839 0.63451,4.81338 2.17578,9.90993 3.42504,11.32566 3.40648,3.86039 3.38469,128.58882 -0.024,137.63416 -1.28138,3.40026 -2.77692,13.48828 -3.32339,22.41785 -0.54648,8.92956 -2.03718,20.24213 -3.31267,25.13905 -1.27549,4.89692 -2.31906,13.18269 -2.31906,18.41281 0,5.43035 -1.36508,13.3932 -3.18241,18.56382 -1.75032,4.97998 -3.18712,11.58547 -3.19289,14.67886 -0.006,3.09339 -1.43313,7.77248 -3.17191,10.39796 -1.73879,2.62548 -3.16616,6.29702 -3.17192,8.15898 -0.006,1.86195 -1.08454,4.27675 -2.39728,5.36623 -1.31275,1.08948 -2.38681,2.93036 -2.38681,4.09085 0,2.06877 -2.44044,5.11116 -13.55582,16.89946 -5.15449,5.46654 -5.53861,6.59181 -5.53861,16.22563 0,10.2761 2.54712,17.37628 10.10404,28.16527 1.44406,2.06171 2.62557,4.71443 2.62557,5.89494 0,1.18053 1.00873,3.15515 2.24161,4.38802 1.23289,1.2329 2.72095,5.07875 3.3068,8.54635 0.58585,3.46761 2.08326,7.14968 3.32758,8.18238 3.11911,2.58863 3.04217,14.21757 -0.094,14.21757 -1.29606,0 -2.75548,-1.96911 -3.24313,-4.3758 z M 589.77919,725.13192 c 0.33066,-7.65547 -0.31376,-12.838 -2.08467,-16.7652 -2.0508,-4.54785 -2.4322,-9.64625 -1.90763,-25.50034 0.36063,-10.89879 1.17991,-21.66332 1.82062,-23.92115 0.9655,-3.40226 0.39282,-4.62564 -3.3446,-7.14492 -3.93826,-2.65468 -7.53336,-3.04174 -28.37758,-3.05525 l -23.86802,-0.0159 -0.47647,8.22425 c -0.26665,4.60289 -1.46392,9.04379 -2.71902,10.08544 -2.42267,2.01062 -2.90474,0.78478 -4.56893,-11.61816 -0.49233,-3.66934 -2.2494,-7.20824 -4.47888,-9.02092 -3.79398,-3.08468 -16.68604,-5.87625 -18.53315,-4.01305 -0.57616,0.58118 -1.04757,7.35738 -1.04757,15.05822 0,11.09778 -0.57749,14.6418 -2.7846,17.08897 -1.53153,1.6981 -2.7846,4.14368 -2.7846,5.43462 0,1.29094 -2.50614,4.77623 -5.56921,7.74506 -3.06306,2.96883 -5.5692,5.97347 -5.5692,6.67695 0,0.70349 2.95865,1.27906 6.5748,1.27906 3.88846,0 8.76968,1.35651 11.94681,3.3201 4.16247,2.57254 6.77523,3.08303 11.60404,2.26721 5.22872,-0.88339 6.50552,-0.54182 7.93098,2.12167 0.93443,1.74601 4.2106,4.00348 7.28038,5.0166 3.06979,1.01312 5.58143,2.50255 5.58143,3.30983 0,0.80729 1.64689,1.4678 3.65976,1.4678 2.01287,0 4.34,0.64846 5.1714,1.44102 2.33054,2.22168 19.66693,11.28859 21.58434,11.28859 0.93618,0 3.52276,1.43208 5.74793,3.1824 2.22517,1.75032 5.29361,3.1824 6.81874,3.1824 1.52515,0 3.68987,1.10477 4.81049,2.45505 1.12063,1.35028 3.17742,2.23793 4.57064,1.97255 1.97061,-0.37535 2.63942,-2.94314 3.01177,-11.56331 z m -199.3546,-97.93029 c 1.37098,-2.65118 2.06315,-5.51535 1.53815,-6.36481 -2.08785,-3.3782 -13.49633,-0.37092 -13.49633,3.55763 0,2.57653 4.87791,7.62751 7.36616,7.62751 1.15463,0 3.22104,-2.16915 4.59202,-4.82033 z M 713.44905,489.80195 c 1.20688,-1.20686 5.63099,-2.70257 9.83137,-3.32379 4.20035,-0.62122 8.71109,-2.04376 10.02383,-3.16119 1.31274,-1.11742 4.44241,-2.52123 6.95482,-3.11955 2.51241,-0.59834 5.60673,-2.12658 6.87627,-3.39612 1.26952,-1.26954 3.71165,-2.30824 5.42691,-2.30824 1.71529,0 3.51166,-1.02404 3.99193,-2.27561 0.48027,-1.25159 2.78494,-3.00448 5.12146,-3.89531 2.33653,-0.89083 8.18646,-4.54116 12.99984,-8.11183 4.81338,-3.57069 10.63923,-7.69145 12.94634,-9.15727 6.84793,-4.35082 8.07066,-7.65492 6.89509,-18.63215 -0.92689,-8.65509 -1.64011,-10.27889 -5.52209,-12.57202 -2.73985,-1.61847 -7.431,-2.53338 -12.17313,-2.37412 -9.80508,0.32932 -23.64409,-2.34686 -30.80276,-5.9566 -3.05485,-1.54041 -6.62834,-3.29381 -7.94108,-3.89648 -4.6201,-2.12104 -3.26372,-6.02941 4.71373,-13.58246 5.37013,-5.08445 8.67128,-9.79058 9.89641,-14.1084 1.0111,-3.56346 2.4337,-7.15926 3.16132,-7.99066 2.06797,-2.36291 1.50981,-13.74873 -1.01795,-20.76518 -1.26116,-3.50064 -2.32445,-8.61533 -2.36286,-11.36596 -0.0848,-6.079 -3.11118,-7.5531 -9.23476,-4.49825 -4.64624,2.31784 -10.89443,2.01055 -13.57248,-0.66751 -2.49835,-2.49834 0.39888,-5.00474 5.34916,-4.62754 3.33526,0.25413 5.41447,-0.69294 7.23854,-3.29718 3.76779,-5.37928 11.41472,-12.93678 13.08986,-12.93678 2.33281,0 7.02129,-14.46544 7.22025,-22.27682 0.17382,-6.82388 -0.042,-7.18572 -4.5912,-7.69901 -2.62548,-0.29622 -5.62073,-1.23918 -6.65612,-2.09545 -1.26835,-1.04894 -3.21506,-0.68374 -5.96701,1.11941 -2.24646,1.47194 -4.08448,3 -4.08448,3.3957 0,0.3957 2.54764,3.12218 5.66141,6.05885 5.17166,4.87751 5.61901,6.00007 5.1714,12.9768 l -0.49001,7.63742 -6.7626,0.55927 c -5.32857,0.44067 -6.76261,0.0282 -6.76261,-1.94526 0,-1.41461 1.33825,-2.50452 3.07517,-2.50452 5.91617,0 5.58538,-5.99486 -0.71565,-12.96935 -4.51682,-4.99957 -5.70123,-7.50064 -5.19273,-10.96525 0.74887,-5.10233 -3.05746,-7.27665 -6.42591,-3.67071 -2.72868,2.92106 -20.49419,2.7916 -26.21231,-0.19101 -2.44366,-1.27463 -7.09792,-2.78268 -10.34281,-3.3512 -3.24489,-0.56853 -7.48569,-2.02738 -9.42402,-3.2419 -1.93832,-1.21451 -4.5269,-2.2082 -5.75241,-2.2082 -1.22551,0 -4.0488,-1.43208 -6.27396,-3.1824 -4.63773,-3.64804 -13.12167,-4.21879 -15.00096,-1.00917 -1.823,3.11347 -32.30088,4.66 -32.30088,1.63903 0,-3.73668 5.85767,-5.40347 18.9898,-5.40347 12.10602,0 16.55787,-1.7861 9.79881,-3.93135 -1.66947,-0.52987 -3.44369,-2.02739 -3.94273,-3.32785 -0.49903,-1.30046 -2.27452,-2.88429 -3.94554,-3.51962 -3.07068,-1.16753 -10.92299,-7.37831 -23.03314,-18.21806 -9.02623,-8.07934 -11.55505,-7.82084 -12.92601,1.32136 -1.64526,10.97133 0.68108,41.55944 3.3278,43.75601 3.15548,2.61883 2.9948,22.63679 -0.203,25.29074 -1.31274,1.08948 -2.3868,3.22871 -2.3868,4.75386 0,1.52513 -1.43208,4.59357 -3.18241,6.81874 -1.75032,2.22517 -3.1824,4.92238 -3.1824,5.99378 0,1.07141 -1.50414,4.38177 -3.34255,7.35638 -4.05241,6.55694 -3.13287,11.81752 2.60221,14.88685 3.36294,1.79979 4.71378,1.83313 7.35829,0.1816 1.78154,-1.11258 3.70478,-1.55726 4.27387,-0.98816 0.56909,0.56909 1.0364,6.50217 1.03845,13.18462 0.003,11.86694 0.10741,12.18673 4.45697,13.73075 3.25954,1.15709 5.36085,1.01402 7.8392,-0.53374 2.93234,-1.83126 3.66805,-1.72874 5.49176,0.76534 3.09137,4.22769 2.75508,4.69655 -4.54869,6.34182 -7.89016,1.77734 -8.85607,3.61825 -4.52105,8.61657 2.48259,2.86245 3.21956,5.95834 3.21956,13.52493 0,8.53059 0.5903,10.47394 4.51774,14.87294 4.36737,4.89177 4.94346,5.0602 17.30837,5.0602 9.42828,0 13.31136,-0.62744 14.77151,-2.3868 1.08948,-1.31274 3.06784,-2.3868 4.39635,-2.3868 2.15795,0 5.3865,-1.30205 19.47167,-7.85276 7.39873,-3.44098 13.48972,-7.00087 15.61508,-9.12622 1.1635,-1.16348 2.60132,-2.11886 3.19519,-2.12304 0.59385,-0.005 3.68957,-2.4048 6.87935,-5.33473 6.73737,-6.18848 10.39206,-7.9182 11.82646,-5.59729 1.73901,2.81377 -15.21925,17.62548 -27.13803,23.70298 -6.95275,3.54526 -13.39976,8.48616 -12.65189,9.69622 0.49709,0.80432 1.57729,6.99959 2.40045,13.76723 0.82315,6.76765 1.94166,15.12601 2.48558,18.57413 0.54394,3.44813 0.0697,12.17887 -1.05393,19.40169 -1.83222,11.77805 -1.76798,13.55195 0.62289,17.2009 2.37299,3.62163 3.72295,4.06854 12.29,4.06854 6.058,0 10.43727,-0.81309 11.81848,-2.19432 z M 632.20882,295.59874 c -1.25322,-2.99936 -3.72282,-5.91179 -5.48801,-6.47203 -3.67674,-1.16696 -4.01679,-2.54274 -1.29999,-5.25954 2.94078,-2.94078 7.81685,-2.27286 14.79817,2.02704 3.50064,2.15611 8.03556,3.94255 10.0776,3.96986 5.74034,0.0767 3.21055,3.8829 -3.2823,4.93828 -3.12011,0.50716 -6.87166,2.12083 -8.33678,3.58594 -3.59059,3.5906 -3.84956,3.47893 -6.46869,-2.78955 z m 162.84368,113.6555 c 6.39397,-0.84488 13.17667,-2.62268 15.07266,-3.95068 1.89598,-1.328 4.68211,-2.41455 6.1914,-2.41455 6.12242,0 31.40525,-16.27021 31.50497,-20.27434 0.0271,-1.08653 1.48128,-2.86986 3.2316,-3.96295 1.75032,-1.09309 3.1824,-3.15072 3.1824,-4.57251 0,-1.42178 1.43208,-4.40565 3.1824,-6.63082 1.75033,-2.22516 3.18241,-5.86636 3.18241,-8.09153 0,-2.22516 1.25232,-4.74658 2.78293,-5.60316 2.35299,-1.31679 2.86935,-4.48414 3.34222,-20.50116 0.48995,-16.59525 0.14496,-19.85329 -2.78293,-26.28037 -1.83822,-4.03516 -3.34695,-8.98701 -3.35271,-11.00414 -0.006,-2.01712 -1.43313,-5.81562 -3.17192,-8.4411 -1.73878,-2.62548 -3.16615,-6.45076 -3.17191,-8.50063 -0.006,-2.04986 -1.44257,-5.54762 -3.19289,-7.77279 -1.90018,-2.41568 -3.1824,-6.45515 -3.1824,-10.02575 0,-3.84766 -0.85107,-6.30656 -2.3868,-6.89588 -1.55653,-0.59729 -2.3868,-3.07267 -2.3868,-7.11606 0,-3.79076 -1.23669,-7.77235 -3.18241,-10.24592 -1.75032,-2.22516 -3.1824,-5.81426 -3.1824,-7.97575 0,-2.1615 -1.02803,-4.78318 -2.28452,-5.82597 -1.25649,-1.0428 -2.74452,-3.99037 -3.30675,-6.55017 -0.56222,-2.5598 -1.93579,-5.19547 -3.05239,-5.85705 -1.11659,-0.66159 -2.9476,-2.94788 -4.06891,-5.08066 -4.14762,-7.88902 -18.43976,-22.18743 -24.28285,-24.29354 -2.4067,-0.86747 -4.37581,-2.16769 -4.37581,-2.88936 0,-0.72168 -2.50614,-2.13925 -5.5692,-3.15015 -3.06306,-1.0109 -5.5692,-2.41882 -5.5692,-3.12871 0,-0.7099 -2.68516,-1.7814 -5.96701,-2.38112 -3.28185,-0.59972 -7.39908,-2.00964 -9.14941,-3.13317 -1.75032,-1.12353 -8.19468,-2.57793 -14.3208,-3.23199 -6.12613,-0.65407 -13.07196,-2.18799 -15.4352,-3.40872 -6.04145,-3.12071 -42.2956,-3.07247 -49.80769,0.0663 -3.00884,1.25718 -10.68328,2.79554 -17.05431,3.41858 -6.37102,0.62304 -13.01575,2.06439 -14.76607,3.20301 -1.75032,1.13861 -6.21205,2.55377 -9.91497,3.14479 -3.70291,0.59102 -7.5498,2.0593 -8.54864,3.26282 -0.99883,1.20353 -2.98147,2.19296 -4.40583,2.19873 -1.42438,0.006 -4.7379,1.43312 -7.36338,3.17191 -2.62548,1.73879 -6.02668,3.16615 -7.55821,3.17192 -1.53153,0.006 -2.7846,0.60593 -2.7846,1.3337 0,0.72777 -3.41332,3.53498 -7.58516,6.23824 -4.17184,2.70326 -10.05485,7.62902 -13.07335,10.94613 -4.77463,5.24697 -5.56999,7.31583 -6.11738,15.91226 -0.56206,8.82703 -0.16574,10.48875 3.71501,15.57668 2.3893,3.13254 4.89024,5.69551 5.55762,5.69551 0.6674,0 2.01411,-3.17968 2.99269,-7.06595 0.97857,-3.88628 2.52479,-7.52674 3.43602,-8.08992 0.91123,-0.56317 1.2214,-2.39577 0.68924,-4.07245 -2.03852,-6.42279 4.25094,-2.74804 17.25039,10.07892 15.05968,14.85984 16.87948,16.39238 22.51233,18.95889 2.22079,1.01186 4.03781,2.37081 4.03781,3.01988 0,0.64906 2.14813,1.92896 4.77361,2.84422 2.62548,0.91524 4.7736,2.27352 4.7736,3.0184 0,0.74487 2.50614,2.26055 5.5692,3.36817 3.06307,1.10762 5.56921,2.68355 5.56921,3.50206 0,0.81851 1.69353,1.4882 3.76341,1.4882 2.06988,0 5.58402,1.43208 7.80919,3.18241 2.22516,1.75032 5.97041,3.1824 8.32276,3.1824 2.35233,0 6.39532,1.50839 8.98441,3.35197 3.99131,2.84206 6.44925,3.25816 16.15765,2.73526 10.16099,-0.54727 12.38896,-1.283 19.7877,-6.53438 10.44868,-7.41611 16.83938,-7.78894 23.99555,-1.39992 2.7831,2.48476 5.06019,5.62509 5.06019,6.97852 0,1.35342 1.06966,4.51174 2.377,7.01847 3.03086,5.8114 3.05729,13.41874 0.0605,17.38097 -1.2849,1.6988 -2.35896,5.05784 -2.3868,7.46453 -0.0279,2.40669 -1.57093,5.89613 -3.42911,7.75431 -1.85817,1.85817 -4.34329,5.23814 -5.52248,7.51102 -1.8217,3.51134 -1.79222,4.66934 0.19611,7.70392 1.28703,1.96427 2.36284,6.63977 2.39067,10.39 0.0278,3.75022 1.10191,8.20851 2.3868,9.90731 3.05197,4.03506 3.02792,18.29362 -0.0407,24.1776 -1.30735,2.50673 -2.38141,6.05923 -2.3868,7.89442 -0.01,3.13111 -2.77304,7.37885 -8.90589,13.68748 -3.56582,3.66803 -1.79306,10.54473 2.95331,11.45624 1.95578,0.37559 7.13618,1.39311 11.51198,2.26114 4.3758,0.86805 10.46215,1.2754 13.52521,0.90524 3.06306,-0.37018 10.80064,-1.3643 17.19461,-2.20918 z m -72.20933,494.67173 c -0.61833,-1.00046 0.99741,-3.42536 3.68264,-5.52686 15.40207,-12.05393 46.78254,-50.8758 50.44085,-62.40215 0.5568,-1.75431 2.05916,-3.59137 3.3386,-4.08232 1.27942,-0.49096 2.32622,-2.35423 2.32622,-4.14057 0,-1.78637 1.43208,-4.47411 3.18241,-5.97278 1.75032,-1.49868 3.1824,-4.37831 3.1824,-6.39918 0,-2.02086 1.00368,-4.05945 2.23038,-4.53018 1.22673,-0.47074 2.67776,-3.24048 3.22453,-6.15499 0.54675,-2.91449 2.04922,-6.17475 3.3388,-7.24501 1.28959,-1.07026 2.34942,-3.46934 2.35518,-5.33128 0.006,-1.86196 1.43313,-5.5335 3.17192,-8.15898 1.73878,-2.62549 3.17086,-6.20569 3.1824,-7.95601 0.0111,-1.75032 1.44362,-5.33052 3.1824,-7.956 1.73879,-2.62549 3.16616,-7.0496 3.17192,-9.83135 0.006,-2.78177 0.96454,-6.0118 2.1306,-7.17786 1.16606,-1.16607 2.56061,-5.83938 3.09899,-10.38515 0.53837,-4.54576 2.00818,-9.9082 3.26623,-11.91654 1.25805,-2.00835 2.66208,-8.15239 3.12009,-13.65343 0.458,-5.50103 1.86188,-11.58738 3.11974,-13.52521 1.51096,-2.32772 2.61699,-10.27274 3.2594,-23.41333 0.53482,-10.9395 1.80313,-24.18625 2.8185,-29.43722 1.5545,-8.03914 1.25969,-33.17235 -0.51329,-43.75803 -0.21988,-1.31274 0.31628,-2.61841 1.19144,-2.90149 3.40493,-1.10135 5.72646,14.54457 4.79839,32.33871 -3.05897,58.65093 -3.51225,63.8143 -6.10682,69.56394 -1.46826,3.25375 -2.66957,9.38225 -2.66957,13.61889 0,4.30964 -1.02916,9.06365 -2.33621,10.79171 -1.28489,1.6988 -2.36337,5.59487 -2.3966,8.65793 -0.0332,3.06307 -1.22739,7.71733 -2.65371,10.34281 -1.4263,2.62548 -3.1832,8.26561 -3.9042,12.53361 -0.72101,4.26801 -2.41377,8.97865 -3.76171,10.46809 -1.34792,1.48946 -2.45079,4.56969 -2.45079,6.84495 0,2.27528 -0.92087,5.08306 -2.04639,6.23952 -1.12554,1.15647 -2.94438,5.14583 -4.04189,8.86526 -1.0975,3.71943 -2.60308,6.76261 -3.34571,6.76261 -0.74263,0 -1.8069,2.43418 -2.36503,5.40932 -0.55815,2.97511 -2.06992,6.28497 -3.35949,7.35523 -1.28959,1.07026 -2.3447,3.18076 -2.3447,4.69003 0,1.50926 -1.43208,4.3953 -3.1824,6.41343 -1.75032,2.01814 -3.1824,4.58269 -3.1824,5.69902 0,1.11632 -0.94072,2.97588 -2.09051,4.13233 -1.14977,1.15647 -3.99528,6.13613 -6.32335,11.06593 -2.32807,4.92978 -5.32557,9.38256 -6.6611,9.89506 -1.33554,0.51249 -2.42825,1.74596 -2.42825,2.74105 0,0.99509 -1.61109,3.81143 -3.58021,6.25857 -1.96911,2.44713 -5.33754,6.84674 -7.48539,9.7769 -6.14246,8.37974 -31.72193,33.1736 -34.22471,33.1736 -1.24186,0 -2.75367,-0.80216 -3.3596,-1.78258 z m 541.64553,-26.41976 c -3.2152,-0.33932 -6.7041,-1.65103 -7.753,-2.91492 -1.0489,-1.26387 -3.241,-2.29796 -4.8713,-2.29796 -1.6303,0 -9.7876,-3.58021 -18.1274,-7.95601 -8.3398,-4.3758 -16.4479,-7.956 -18.0181,-7.956 -1.5702,0 -4.2448,-1.0513 -5.9436,-2.33621 -1.6988,-1.28489 -4.4363,-2.35895 -6.0833,-2.3868 -1.647,-0.0278 -5.5057,-1.60254 -8.5748,-3.49938 -5.2557,-3.24814 -6.146,-3.32754 -15.3043,-1.36481 -12.3079,2.63775 -47.179,2.87521 -63.8248,0.43462 -17.5317,-2.57047 -27.6945,-6.77145 -32.1652,-13.29607 -2.0003,-2.91916 -3.6368,-5.9148 -3.6368,-6.65698 0,-0.74217 -2.2007,-4.54802 -4.8905,-8.45744 -3.4048,-4.94867 -4.7697,-8.66123 -4.493,-12.2207 0.419,-5.3911 -0.7649,-10.65366 -3.7676,-16.74707 -1.3717,-2.78375 -1.3474,-4.42329 0.1001,-6.74101 1.052,-1.68445 1.9127,-4.03542 1.9127,-5.2244 0,-1.18897 1.432,-3.45779 3.1824,-5.04181 1.888,-1.70866 3.1824,-4.90085 3.1824,-7.84857 0,-6.11561 3.1158,-10.75733 10.1316,-15.09334 4.786,-2.9579 7.8344,-3.31291 28.448,-3.31291 16.5737,0 23.5295,-0.56117 24.6542,-1.989 3.497,-4.43985 3.6564,-10.78398 0.4479,-17.8271 -1.769,-3.88283 -3.2162,-8.4974 -3.2162,-10.25454 0,-1.75717 -0.8551,-5.07169 -1.9003,-7.36561 -1.473,-3.23283 -1.473,-4.85507 0,-7.21368 1.0452,-1.67361 1.9003,-4.70362 1.9003,-6.73337 0,-3.65176 6.0824,-13.27439 9.9379,-15.72228 6.8749,-4.36487 12.3389,0.84951 12.3389,11.77508 0,6.12025 4.8135,21.98286 7.5297,24.81354 1.1096,1.15645 2.0175,3.48358 2.0175,5.1714 0,1.68781 0.6678,3.06875 1.484,3.06875 0.8162,0 1.9598,1.49929 2.5414,3.33175 0.5816,1.83246 2.957,6.30771 5.2787,9.945 6.5508,10.26309 7.8223,12.42902 12.1323,20.667 2.2126,4.22892 4.0229,8.62757 4.0229,9.77477 0,3.08174 3.7609,4.01751 16.1467,4.01751 6.1121,0 12.6765,0.83679 14.5875,1.85957 6.4708,3.46303 23.5272,5.6439 38.9959,4.98608 21.0783,-0.89637 22.5595,-1.30078 22.5595,-6.15938 0,-2.2147 0.9429,-5.96026 2.0953,-8.3235 1.1525,-2.36323 2.2899,-7.16094 2.5278,-10.66158 0.2378,-3.50065 1.443,-7.49525 2.6783,-8.8769 1.2352,-1.38166 2.2458,-5.05319 2.2458,-8.15898 0,-3.10577 0.9987,-6.47568 2.2193,-7.48867 1.2205,-1.01297 2.5767,-4.14382 3.0137,-6.95743 1.0937,-7.04197 5.2242,-18.3967 12.054,-33.13595 1.8692,-4.03408 3.3984,-7.9723 3.398,-8.75161 -5e-4,-1.22271 7.4404,-17.40618 11.2599,-24.48933 7.3448,-13.62098 17.2946,-35.33482 18.2282,-39.78003 2.415,-11.49884 12.4174,-26.24423 28.4041,-41.873 l 12.9169,-12.62767 -0.4076,-14.19458 c -0.2241,-7.80702 -1.1139,-17.34654 -1.9773,-21.19894 -0.8633,-3.85239 -2.0403,-15.24404 -2.6154,-25.31476 -1.137,-19.90708 -2.0407,-21.45471 -10.1161,-17.32398 -2.4888,1.27305 -10.3117,2.0385 -20.8962,2.04464 l -16.9182,0.01 -6.552,-6.55201 c -6.0323,-6.03224 -6.552,-7.22317 -6.552,-15.01282 0,-4.65345 0.7085,-10.32428 1.5744,-12.60187 1.2963,-3.40962 0.8472,-5.24001 -2.543,-10.36295 -3.7153,-5.61417 -4.13,-7.78823 -4.2457,-22.2584 -0.123,-15.40051 -0.2746,-16.0733 -3.8217,-16.96356 -2.0315,-0.50988 -3.6936,-1.48783 -3.6936,-2.17324 0,-0.68541 -1.7771,-1.69223 -3.9491,-2.23736 -2.172,-0.54513 -5.049,-3.11828 -6.3935,-5.71808 -2.3235,-4.49331 -2.2115,-5.16335 2.2677,-13.55703 2.5916,-4.85657 6.7718,-11.49057 9.2894,-14.74224 12.1435,-15.68437 14.3418,-25.45432 8.9211,-39.64829 -2.4792,-6.49161 -2.4364,-7.28215 0.9668,-17.86599 3.5451,-11.02532 3.5471,-11.09341 0.4586,-15.53787 -6.3524,-9.14153 -8.4793,-15.73642 -9.44,-29.27097 -1.5861,-22.34424 2.4526,-30.12225 26.7778,-51.5707 5.9439,-5.24097 9.6223,-7.763 15.6548,-10.7336 2.1879,-1.07739 4.9242,-2.8623 6.0806,-3.96646 1.1565,-1.10415 3.754,-2.00756 5.7722,-2.00756 2.0182,0 4.5609,-1.07406 5.6504,-2.3868 1.0895,-1.31274 4.2203,-2.39121 6.9574,-2.3966 2.7371,-0.005 7.0276,-1.07945 9.5343,-2.3868 5.5313,-2.8848 55.2235,-3.3371 65.4551,-0.59578 3.5007,0.93791 13.1672,2.05207 21.4813,2.47589 9.1035,0.46407 16.5182,1.66946 18.6406,3.03034 1.9383,1.24287 5.3175,2.25975 7.5092,2.25975 6.0242,0 15.8616,5.77198 21.8265,12.8064 2.9309,3.45647 9.1292,8.21327 13.7741,10.57067 4.6448,2.3574 10.9514,6.86855 14.0146,10.02479 6.1305,6.31662 9.1354,10.94686 12.4007,19.10778 0.5252,1.31274 3.0525,5.967 5.6161,10.34281 2.5636,4.3758 4.7087,9.1214 4.7669,10.54578 0.058,1.42436 1.1798,3.48115 2.4925,4.57063 1.3128,1.08948 2.3868,3.95128 2.3868,6.35958 0,2.40829 1.0741,7.42292 2.3868,11.14363 1.7123,4.85319 2.3868,13.4678 2.3868,30.48399 0,17.48396 -0.6274,25.2207 -2.3868,29.43148 -1.3127,3.14184 -2.3868,8.91569 -2.3868,12.83079 0,3.9151 -1.0311,9.01896 -2.2913,11.34189 -1.2602,2.32293 -2.7247,6.90866 -3.2545,10.19051 -0.5297,3.28186 -1.5899,5.96701 -2.3558,5.96701 -0.766,0 -1.8537,2.09865 -2.417,4.66365 -0.5634,2.56502 -2.0524,5.51685 -3.3089,6.55965 -1.2565,1.04279 -2.2845,2.55357 -2.2845,3.3573 0,1.82263 -22.0727,30.57356 -24.029,31.29902 -0.7866,0.29173 -1.4302,1.15089 -1.4302,1.90924 0,3.02654 -10.3385,17.04569 -17.2887,23.44372 -7.1511,6.58294 -7.2784,6.85989 -4.1925,9.12777 9.9258,7.29473 16.7076,17.82611 16.7076,25.94507 0,2.4038 1.0072,5.80849 2.2382,7.56597 1.231,1.75748 2.7404,6.54499 3.3543,10.6389 0.9834,6.55723 2.5167,8.81602 12.8783,18.97138 6.4691,6.34036 11.762,12.09477 11.762,12.78758 0,0.69281 1.4321,2.69174 3.1824,4.44206 1.7503,1.75032 3.1824,4.25646 3.1824,5.5692 0,1.31274 0.581,2.3868 1.2911,2.3868 0.7101,0 4.0345,5.54932 7.3876,12.33181 3.3531,6.7825 6.7149,13.40587 7.4707,14.71861 0.7557,1.31274 1.7853,3.46086 2.288,4.7736 0.5026,1.31274 2.2882,5.3294 3.9679,8.92589 1.6797,3.5965 3.0539,7.71373 3.0539,9.14941 0,1.43568 0.6592,2.61032 1.4648,2.61032 0.8056,0 1.9472,2.19635 2.5368,4.88078 0.5896,2.68444 2.0742,6.80167 3.299,9.14941 1.2249,2.34774 2.2315,5.93085 2.2368,7.96248 0,2.03162 1.0839,4.76792 2.3967,6.08067 2.0061,2.0061 2.3687,9.03065 2.2735,44.04217 -0.062,22.91044 -0.814,47.38369 -1.6706,54.38497 -0.8566,7.00129 -2.1335,26.55234 -2.8375,43.44681 -1.246,29.89779 -3.2635,40.1082 -5.8718,29.7159 -1.4991,-5.97294 0.5682,-56.84554 2.5185,-61.97519 0.8465,-2.22643 1.734,-27.13565 1.9722,-55.35382 0.3918,-46.39323 0.1676,-51.76283 -2.3415,-56.07936 -1.5262,-2.62549 -2.802,-6.20569 -2.8353,-7.95601 -0.033,-1.75032 -1.1117,-4.57233 -2.3966,-6.27113 -1.2849,-1.6988 -2.3362,-4.65429 -2.3362,-6.56776 0,-1.91348 -1.074,-4.37044 -2.3868,-5.45992 -1.3127,-1.08948 -2.3868,-3.17388 -2.3868,-4.63199 0,-1.45813 -1.432,-5.46006 -3.1824,-8.89322 -1.7503,-3.43316 -3.1824,-7.16475 -3.1824,-8.29245 0,-1.1277 -0.6384,-2.05036 -1.4187,-2.05036 -0.7803,0 -1.8643,-1.77552 -2.4089,-3.9456 -0.5447,-2.17008 -3.1285,-7.57189 -5.7418,-12.00404 -2.6132,-4.43213 -4.7514,-8.74295 -4.7514,-9.5796 0,-0.83664 -0.648,-1.52118 -1.44,-1.52118 -0.792,0 -3.2484,-3.04317 -5.4588,-6.7626 -5.1903,-8.73394 -19.8421,-23.47022 -23.3356,-23.47022 -1.4887,0 -8.0047,5.62013 -14.48,12.48915 -17.4957,18.55959 -38.567,41.65734 -43.7674,47.97649 -2.5208,3.06307 -5.4829,6.5154 -6.5824,7.67187 -1.0995,1.15645 -1.999,2.8187 -1.999,3.69386 0,0.87516 -1.0741,2.66526 -2.3868,3.978 -1.3128,1.31274 -2.3868,3.68005 -2.3868,5.2607 0,1.58066 -1.0741,3.76531 -2.3868,4.85479 -1.3128,1.08948 -2.3868,4.34077 -2.3868,7.2251 0,2.88433 -0.4347,6.37685 -0.9659,7.76117 -1.058,2.75707 -8.5814,3.52373 -8.5814,0.87447 0,-0.90337 -1.253,-2.17977 -2.7846,-2.83646 -6.9189,-2.96669 -12.865,-7.78802 -19.4922,-15.80495 -18.5273,-22.41267 -16.7813,-21.08735 -27.7809,-21.08735 -7.6066,0 -11.536,0.91763 -16.9202,3.95139 -3.8571,2.17326 -8.445,4.63025 -10.1953,5.45998 -5.0121,2.37595 -14.6501,12.01934 -17.8619,17.87191 -1.6107,2.93499 -4.759,8.20051 -6.9961,11.70115 -4.6074,7.20946 -5.8539,9.55317 -15.4256,29.00467 -3.7776,7.67676 -7.8948,15.85834 -9.1494,18.18127 -1.2546,2.32293 -2.281,5.27843 -2.281,6.56778 0,1.28933 -1.0741,3.23564 -2.3868,4.32512 -1.3128,1.08948 -2.3868,3.95364 -2.3868,6.36481 0,2.41116 -1.0741,5.27532 -2.3868,6.3648 -1.3128,1.08948 -2.3868,3.95364 -2.3868,6.3648 0,2.41117 -1.0741,5.27533 -2.3868,6.36481 -1.3128,1.08948 -2.4111,3.50428 -2.4408,5.36623 -0.03,1.86196 -1.4375,6.24954 -3.1285,9.75018 -1.6909,3.50064 -3.0987,8.60426 -3.1284,11.34138 -0.03,2.7371 -1.128,5.86795 -2.4408,6.95743 -1.4753,1.22443 -2.4061,4.79275 -2.4374,9.34423 -0.028,4.04987 -1.1019,8.75331 -2.3868,10.45211 -1.2849,1.6988 -2.3362,4.69045 -2.3362,6.6481 0,3.15688 1.0347,3.67202 9.1494,4.55537 5.0322,0.54781 13.8037,1.7157 19.4923,2.59536 5.6885,0.87965 25.3796,1.94762 43.758,2.37328 19.1784,0.44418 39.9697,1.85381 48.7992,3.30855 17.0528,2.8096 20.3926,2.31574 20.472,-3.02724 0.03,-1.99658 1.4375,-6.4943 3.1284,-9.99494 1.691,-3.50064 3.1215,-8.87095 3.1791,-11.93401 0.058,-3.06306 1.1558,-6.95913 2.4407,-8.65793 1.285,-1.6988 2.359,-5.279 2.3868,-7.95601 0.028,-2.677 1.1019,-6.2572 2.3868,-7.956 1.285,-1.6988 2.3362,-4.38655 2.3362,-5.97277 0,-1.58623 1.4321,-5.55599 3.1824,-8.82173 1.7504,-3.26571 3.1825,-6.84332 3.1825,-7.95023 0,-1.10691 0.716,-2.01256 1.5912,-2.01256 0.8751,0 1.5912,-0.90102 1.5912,-2.00227 0,-3.18064 12.3702,-21.2575 20.7376,-30.30425 6.177,-6.67856 8.0419,-7.88461 9.6954,-6.27016 1.66,1.62078 0.6663,3.42697 -5.2525,9.5472 -8.7539,9.05182 -18.8157,23.29044 -18.8157,26.62635 0,1.32172 -0.7024,2.40313 -1.5609,2.40313 -0.8585,0 -2.0287,1.96911 -2.6005,4.3758 -0.5718,2.40669 -1.9269,5.44986 -3.0112,6.7626 -1.0844,1.31275 -2.4527,5.07196 -3.0408,8.35381 -0.5881,3.28185 -1.6899,5.967 -2.4485,5.967 -0.7586,0 -1.8899,3.04318 -2.5141,6.76261 -0.6242,3.71943 -2.1193,8.175 -3.3223,9.90126 -1.2031,1.72625 -2.1874,5.70664 -2.1874,8.84528 0,3.13865 -1.0512,7.09655 -2.3362,8.79535 -3.7195,4.91772 -3.0977,14.19064 1.1428,17.04153 1.9692,1.32381 3.0199,2.98593 2.3349,3.6936 -1.8176,1.87796 -23.3211,0.82555 -27.2377,-1.33304 -2.1632,-1.19219 -16.2432,-2.04115 -39.9386,-2.40811 -20.1287,-0.31171 -40.1778,-1.36028 -44.5536,-2.33015 -8.3033,-1.84039 -69.1535,-3.575 -74.9115,-2.13546 -4.1273,1.03185 -7.3582,7.81461 -6.1035,12.81351 1.1296,4.5007 -0.4713,10.36647 -2.8292,10.36647 -0.9773,0 -1.3332,-1.83476 -0.8489,-4.3758 0.5165,-2.70982 -0.4715,-7.09225 -2.595,-11.51073 -2.9346,-6.10619 -4.276,-7.27259 -9.3033,-8.08977 -3.2309,-0.52516 -6.9255,-1.82724 -8.2103,-2.89348 -1.4199,-1.17846 -5.9763,-1.74997 -11.6196,-1.45745 l -9.2836,0.48121 0.5611,17.66206 c 0.5507,17.33464 -2.8037,39.15641 -6.3566,41.35225 -2.6153,1.61633 -1.4503,7.02054 1.5134,7.02054 1.583,0 4.2682,1.05129 5.967,2.3362 1.6988,1.28489 4.1627,2.38325 5.4755,2.44079 1.3127,0.0574 5.2083,1.43886 8.6568,3.06963 9.15,4.32701 12.9786,2.42643 16.8004,-8.34016 0.873,-2.45937 2.3046,-4.02819 3.1814,-3.48631 2.4416,1.50895 1.8972,8.40304 -1.0144,12.84661 -2.4801,3.78512 -2.4272,4.17421 1.073,7.90003 2.0249,2.15534 5.2957,3.91882 7.2685,3.91882 1.9729,0 4.6611,1.07406 5.9738,2.3868 1.3127,1.31274 2.975,2.3908 3.6939,2.39568 4.6484,0.0315 13.241,3.68842 13.241,5.63512 0,1.2716 -0.537,2.19164 -1.1934,2.04453 -0.6563,-0.14719 -3.824,-0.54511 -7.0393,-0.88444 z m -94.1838,-34.6403 c 2.5067,-1.30735 7.7995,-2.38141 11.7618,-2.3868 8.9572,-0.0127 13.4812,-3.06494 15.9387,-10.75535 1.0479,-3.27914 2.5348,-6.64231 3.3042,-7.47371 1.5653,-1.6914 1.5787,-29.53334 0.017,-36.18684 -0.5639,-2.40305 -3.4318,-5.91115 -6.5334,-7.99179 -3.6396,-2.4416 -6.0904,-5.71224 -7.1738,-9.57364 -0.9051,-3.22579 -2.5346,-6.75409 -3.6212,-7.84064 -1.0865,-1.08657 -1.9755,-3.17677 -1.9755,-4.64491 0,-1.46812 -1.0741,-3.56071 -2.3869,-4.65019 -1.3127,-1.08948 -2.3868,-2.54673 -2.3868,-3.23834 0,-0.69162 -2.5061,-5.06287 -5.5692,-9.71389 -3.063,-4.65103 -5.5692,-9.36778 -5.5692,-10.4817 0,-1.11391 -0.6678,-2.02528 -1.4839,-2.02528 -0.8162,0 -1.9915,-1.61109 -2.6118,-3.58021 -0.6204,-1.96911 -3.9433,-7.87644 -7.3844,-13.1274 -5.3918,-8.22774 -6.1574,-10.48183 -5.5396,-16.30982 0.3942,-3.71943 0.2677,-6.73983 -0.2811,-6.712 -2.7736,0.14066 -6.0688,4.76097 -8.6761,12.16518 -2.4089,6.84076 -2.5637,8.86461 -0.913,11.93401 1.0934,2.03293 2.5574,6.20237 3.2534,9.26543 4.5619,20.07577 5.2792,22.1194 8.2256,23.4341 2.942,1.31279 2.8894,1.52276 -1.0236,4.0867 -3.1629,2.07242 -10.7272,3.11988 -32.4319,4.491 -26.9992,1.70559 -28.5089,1.97683 -32.6826,5.87152 -2.4067,2.24582 -4.3758,5.04113 -4.3758,6.21179 0,2.80558 6.6462,5.23213 14.3305,5.23213 6.5489,0 9.8905,2.41582 5.1848,3.74834 -1.5442,0.43728 -6.7087,1.29156 -11.4766,1.8984 -6.4721,0.82376 -9.8024,2.23691 -13.1422,5.57679 -3.9139,3.91382 -4.2488,4.96656 -2.6774,8.41532 2.075,4.5542 13.0102,9.32101 21.3826,9.32101 3.0258,0 5.9493,0.72449 6.4966,1.60997 1.7202,2.78333 -3.1324,4.56206 -9.8951,3.62708 -11.3825,-1.57365 -18.4779,3.40444 -12.8988,9.04966 1.1429,1.15647 2.5525,3.35573 3.1325,4.88726 0.8271,2.18432 2.9315,2.7846 9.762,2.7846 8.7203,0 12.8176,2.32005 8.7016,4.92714 -1.2061,0.76392 -4.162,1.39991 -6.5687,1.4133 -2.4543,0.0143 -4.3536,0.89778 -4.3252,2.01337 0.1453,5.7077 11.1189,12.26892 20.8805,12.48456 3.8032,0.084 10.4951,1.07301 14.8709,2.19777 11.6531,2.99534 40.6505,3.02417 46.3608,0.0461 z m 283.0415,-223.68107 c 0.5896,-2.68461 2.0745,-5.2658 3.2997,-5.73593 1.2251,-0.47016 1.865,-1.44157 1.4218,-2.15867 -1.8348,-2.96874 8.7902,-19.55405 21.3772,-33.36911 21.6501,-23.76257 30.7556,-33.57153 40.4936,-43.62199 l 10.924,-11.27445 -0.8335,-9.20885 c -0.4584,-5.06488 -1.5215,-10.07716 -2.3626,-11.13841 -0.8411,-1.06125 -2.017,-4.63533 -2.613,-7.94239 -1.1823,-6.55936 -6.7437,-17.05958 -9.0356,-17.05958 -0.7887,0 -1.971,-0.008 -2.6274,-0.0185 -0.6564,-0.01 -1.3129,2.20743 -1.4589,4.92797 -0.2764,5.15153 -5.3963,11.90867 -10.8729,14.34991 -1.7503,0.78021 -4.2565,2.01564 -5.5692,2.74538 -6.6451,3.69397 -13.1731,6.6368 -14.7223,6.6368 -0.9541,0 -2.8652,0.99395 -4.2468,2.20875 -1.3817,1.21482 -6.2713,4.15402 -10.8659,6.53158 -4.5946,2.37754 -8.3538,4.96381 -8.3538,5.74724 0,0.78344 -1.0815,1.42444 -2.4032,1.42444 -1.3217,0 -5.9686,2.50614 -10.3265,5.56921 -4.3578,3.06306 -8.3304,5.5692 -8.8279,5.5692 -2.0479,0 -60.8353,46.23004 -66.1596,52.02753 -6.8321,7.43925 -9.2244,13.21173 -5.4753,13.21173 1.3717,0 2.494,-0.7024 2.494,-1.56089 0,-0.85848 1.7901,-2.01016 3.978,-2.5593 2.1879,-0.54913 3.978,-1.60923 3.978,-2.35578 0,-0.74655 2.8339,-2.12048 6.2976,-3.05314 3.4637,-0.93269 6.7281,-2.39236 7.2543,-3.24373 0.5262,-0.85139 5.1141,-1.54797 10.1954,-1.54797 11.3165,0 17.1534,3.82259 28.0232,18.35244 2.5944,3.46799 6.4034,7.7388 8.4644,9.4907 2.061,1.75191 4.988,4.25934 6.5044,5.57208 3.376,2.92251 8.4678,6.14478 9.9097,6.27123 0.5868,0.0515 1.5494,-2.10293 2.1391,-4.78754 z m -31.619,-82.14601 c 7.127,-5.51988 13.7504,-10.03614 14.7186,-10.03614 0.9682,0 1.7603,-0.66779 1.7603,-1.48397 0,-0.81619 1.5707,-1.98248 3.4904,-2.59176 1.9196,-0.60927 6.9246,-3.5217 11.122,-6.47202 4.1975,-2.95034 8.2675,-5.36426 9.0445,-5.36426 0.777,0 2.3041,-1.07406 3.3936,-2.3868 1.0894,-1.31274 3.3477,-2.3868 5.0183,-2.3868 1.6707,0 3.4227,-1.00368 3.8934,-2.23039 0.4708,-1.22672 3.2405,-2.67775 6.155,-3.22452 2.9145,-0.54675 6.1748,-2.04923 7.245,-3.3388 1.0703,-1.28959 3.2027,-2.3447 4.7387,-2.3447 1.536,0 3.6841,-1.07406 4.7736,-2.3868 1.0895,-1.31274 2.8906,-2.3868 4.0026,-2.3868 3.048,0 3.9534,-3.84662 3.9534,-16.7969 0,-11.61183 -0.065,-11.79667 -5.0667,-14.38307 -12.7578,-6.59734 -31.5309,-32.69648 -31.5309,-43.83563 0,-4.82125 -3.6627,-8.49366 -7.1402,-7.15921 -1.3239,0.50802 -2.407,2.4007 -2.407,4.20595 0,1.80525 -1.0741,3.69444 -2.3868,4.19818 -1.3128,0.50376 -2.3868,2.7239 -2.3868,4.93365 0,4.40704 -4.9564,13.46616 -10.498,19.18805 -5.6782,5.86294 -6.1856,1.13082 -0.7434,-6.93299 2.6821,-3.97409 4.8765,-8.48495 4.8765,-10.02412 0,-1.53918 1.0513,-4.18844 2.3362,-5.88724 2.67,-3.53003 3.2248,-10.24913 0.8462,-10.24913 -0.8751,0 -1.5912,-1.51177 -1.5912,-3.35949 0,-2.95424 0.6482,-3.2379 5.3729,-2.35154 7.1212,1.33594 13.0927,-1.11403 14.284,-5.86034 0.5311,-2.11609 2.8946,-5.21149 5.2522,-6.87864 6.8173,-4.82088 11.9397,-10.58518 14.2622,-16.04981 1.1835,-2.78442 2.8787,-5.51184 3.7671,-6.06091 0.9,-0.55626 1.5899,-7.12179 1.5581,-14.82742 -0.066,-15.86644 -2.6745,-20.76008 -12.7967,-24.00446 -10.9437,-3.50771 -20.3032,3.76723 -22.8149,17.73357 -0.5902,3.28185 -1.7567,5.967 -2.5921,5.967 -0.8356,0 -1.5191,2.21973 -1.5191,4.93273 0,3.48816 -1.5844,6.51708 -5.4101,10.3428 -8.4984,8.49837 -10.502,7.44506 -10.502,-5.52103 0,-6.54972 -1.2755,-14.92399 -3.1824,-20.8929 -1.7503,-5.47899 -3.1824,-11.07453 -3.1824,-12.43453 0,-8.58352 -14.2178,-25.69123 -21.4459,-25.8049 -1.7697,-0.0279 -4.6076,-1.10191 -6.3064,-2.3868 -1.6988,-1.28491 -4.4525,-2.3362 -6.1193,-2.3362 -1.6668,0 -4.9312,-1.02033 -7.2541,-2.2674 -2.3229,-1.24707 -8.5197,-3.89848 -13.7707,-5.892 -5.251,-1.99352 -10.6776,-4.55339 -12.0593,-5.6886 -1.3817,-1.13521 -3.6211,-2.06401 -4.9766,-2.06401 -1.3554,0 -3.3558,-1.07407 -4.4453,-2.38681 -1.0895,-1.31274 -2.8796,-2.3868 -3.978,-2.3868 -1.0984,0 -2.8885,-1.07406 -3.978,-2.3868 -2.7382,-3.29936 -9.4402,-3.04596 -10.5212,0.3978 -0.4807,1.53153 -2.2484,5.72719 -3.928,9.32369 -1.6797,3.5965 -3.054,7.36543 -3.054,8.3754 0,1.00997 -0.6585,3.07966 -1.4632,4.59932 -11.5764,21.86003 -10.5171,28.8335 3.0763,20.25238 7.2228,-4.55957 19.1797,-8.69289 25.2267,-8.72055 4.3141,-0.0197 16.1226,10.90215 16.1226,14.91199 0,3.14028 -0.7715,3.16152 -11.6747,0.32161 -6.8427,-1.78232 -11.1439,-1.9021 -20.6088,-0.57396 -13.7207,1.92534 -15.4525,3.81914 -15.4525,16.8979 0,6.41671 -1.2452,9.4667 -8.2517,20.21295 -4.5384,6.96076 -8.6556,13.01596 -9.1494,13.45599 -0.4938,0.44003 -2.4897,3.77083 -4.4354,7.40178 l -3.5377,6.60172 5.4205,4.13443 c 3.1133,2.37464 7.4975,4.13443 10.3003,4.13443 h 4.8798 l 0.024,10.74061 c 0.013,5.90733 0.5504,11.52895 1.1934,12.49247 2.0862,3.12633 10.4798,3.76307 13.5279,1.02622 2.5864,-2.32246 3.077,-2.23965 6.127,1.03407 1.8234,1.95726 2.8274,4.04835 2.231,4.64686 -0.5964,0.5985 -5.8529,1.44621 -11.6812,1.88379 -12.3874,0.93005 -14.5067,3.93711 -7.4099,10.51423 3.5773,3.31527 4.1022,4.80439 3.1929,9.05844 -0.5984,2.80002 -1.452,8.7699 -1.8969,13.26642 -0.7326,7.40527 -0.3584,8.67942 3.9722,13.5252 l 4.7811,5.34975 17.2349,-0.15037 c 12.8012,-0.1117 18.4629,-0.82545 22.0085,-2.7748 2.6255,-1.44347 6.5834,-2.6289 8.7953,-2.6343 2.212,-0.005 5.4342,-0.97703 7.1604,-2.15919 1.7263,-1.18218 5.1078,-2.6279 7.5145,-3.21273 2.4067,-0.58482 4.3758,-1.76571 4.3758,-2.6242 0,-0.85848 1.1967,-1.56088 2.6593,-1.56088 1.4626,0 3.9421,-1.16091 5.5099,-2.57979 1.6825,-1.52263 3.9876,-2.14349 5.6252,-1.51509 2.4169,0.92745 2.1681,1.56547 -1.9297,4.94932 -2.5874,2.13654 -6.3154,4.32803 -8.2845,4.87 -1.9691,0.54194 -3.5802,1.56688 -3.5802,2.27763 0,0.71075 -2.2866,1.79449 -5.0813,2.40831 -9.0538,1.98854 -9.578,3.47956 -9.3332,26.54392 0.1223,11.52442 0.8371,21.70801 1.5884,22.63021 0.7514,0.9222 1.8829,8.12109 2.5146,15.99754 0.6316,7.87644 1.4393,14.82062 1.7948,15.4315 0.8068,1.38663 11.759,-5.84993 28.6354,-18.92058 z m 37.5624,-159.51923 c -4.9266,-4.10988 -4.7465,-6.91777 0.2963,-4.62012 5.0151,2.28501 8.4571,0.88951 9.1907,-3.72619 0.7023,-4.41853 -1.6667,-12.42911 -3.6757,-12.42911 -3.1105,0 -1.4136,-10.60425 2.2472,-14.04345 4.8329,-4.54024 17.5427,-5.05405 16.701,-0.67516 -0.3838,1.99641 -2.1544,2.83108 -6.2555,2.94878 -3.1461,0.0902 -6.5379,0.66959 -7.5374,1.28731 -2.5929,1.6025 -2.2449,5.78139 0.7577,9.09925 1.4163,1.56493 2.9182,5.91755 3.3376,9.6725 0.5992,5.364 0.023,7.76498 -2.6905,11.20298 -4.0206,5.09507 -7.384,5.44393 -12.3714,1.28321 z m -119.7773,-26.44821 c -0.8535,-2.24487 -1.5518,-5.7654 -1.5518,-7.82342 0,-2.05799 -0.8951,-4.06147 -1.989,-4.45216 -1.094,-0.3907 -1.4566,-1.28114 -0.8059,-1.97874 1.931,-2.07012 14.3845,2.39283 19.1047,6.84656 5.5644,5.25026 5.5148,6.71574 -0.2276,6.71574 -2.624,0 -4.9972,1.02628 -5.5192,2.3868 -1.5095,3.93364 -7.2842,2.84757 -9.0112,-1.69478 z m 177.7804,102.09472 c 2.4993,-2.10304 5.5604,-5.86226 6.8024,-8.35381 2.2246,-4.46282 18.9298,-27.41789 23.795,-32.69749 4.8965,-5.31348 8.8383,-11.28832 12.0508,-18.2664 1.2819,-2.78443 3.0576,-5.51184 3.946,-6.06092 0.8884,-0.54906 1.6153,-2.96732 1.6153,-5.37388 0,-2.40657 1.0513,-5.7655 2.3362,-7.4643 1.2849,-1.69879 2.359,-5.41301 2.3868,-8.25379 0.028,-2.84079 1.56,-9.52665 3.4049,-14.85748 3.0181,-8.72104 3.293,-12.39792 2.7427,-36.68788 -0.4002,-17.6686 -1.2303,-27.37879 -2.4026,-28.10495 -0.9852,-0.61021 -2.2972,-4.4876 -2.9157,-8.61642 -0.6186,-4.12882 -2.1208,-8.33372 -3.3385,-9.34423 -1.2176,-1.01053 -2.2138,-3.20419 -2.2138,-4.87482 0,-1.67063 -1.074,-3.44966 -2.3868,-3.9534 -1.3127,-0.50376 -2.3848,-1.73435 -2.3824,-2.73467 0,-1.70109 -5.7746,-13.99909 -8.3028,-17.6697 -4.1251,-5.9889 -11.9077,-14.11693 -14.6755,-15.32688 -5.7641,-2.51972 -9.3435,-5.19564 -20.5524,-15.36481 -6.059,-5.49692 -12.4766,-9.96916 -14.3484,-9.999 -1.8626,-0.0297 -6.2507,-1.43748 -9.7513,-3.12841 -4.21,-2.03355 -9.8665,-3.09853 -16.7076,-3.14564 -5.6886,-0.0392 -13.8578,-1.13752 -18.1539,-2.44079 -11.3533,-3.44414 -69.6834,-3.43029 -72.5446,0.0172 -1.0895,1.31274 -3.7118,2.3868 -5.8274,2.3868 -2.1156,0 -6.6537,1.43209 -10.0846,3.18241 -3.4309,1.75032 -7.3406,3.1824 -8.6882,3.1824 -1.3476,0 -2.4502,0.62917 -2.4502,1.39816 0,0.76898 -2.1481,2.28793 -4.7736,3.37544 -2.6255,1.08751 -4.7736,2.49704 -4.7736,3.13229 0,0.63525 -1.39,1.80145 -3.0889,2.59156 -5.3768,2.50066 -20.9094,16.96452 -25.7082,23.93939 -4.3751,6.35895 -4.6181,7.58874 -4.6181,23.36847 0,14.48354 0.4805,17.50229 3.6837,23.14165 3.5217,6.20008 3.8367,6.37823 7.1604,4.0502 1.9122,-1.33935 3.4767,-4.09698 3.4767,-6.1281 0,-2.03112 1.074,-4.58433 2.3868,-5.67381 2.7155,-2.25371 3.1727,-7.28247 0.7956,-8.75161 -0.8752,-0.54088 -1.5912,-3.13597 -1.5912,-5.76688 v -4.78346 l 8.5114,8.45756 c 7.9248,7.87465 28.4599,20.3916 33.4542,20.3916 1.2091,0 3.0897,1.07406 4.1792,2.3868 1.0895,1.31274 3.3279,2.3868 4.9742,2.3868 1.6463,0 5.6653,1.43208 8.931,3.1824 3.2657,1.75032 7.0224,3.20517 8.348,3.233 1.3258,0.0279 3.8003,1.10191 5.4991,2.3868 1.6988,1.28492 5.0659,2.33621 7.4825,2.33621 5.0807,0 20.4572,14.18048 20.4572,18.86606 0,1.54138 1.0513,4.19243 2.3362,5.89123 1.2849,1.69879 2.359,5.98869 2.3868,9.53309 0.028,3.5444 0.8271,7.22079 1.776,8.16977 0.949,0.94897 2.1189,6.06462 2.5998,11.36813 0.5458,6.01895 1.6913,9.95622 3.0482,10.47691 1.44,0.55258 2.1738,-0.37229 2.1738,-2.73984 0,-1.96571 0.9668,-4.98641 2.1485,-6.71266 1.1816,-1.72626 2.5691,-5.82636 3.0833,-9.11133 1.1927,-7.62002 8.7056,-18.38411 13.8627,-19.86169 2.1879,-0.62685 7.5099,-1.10182 11.8267,-1.0555 7.158,0.0769 8.3649,0.66583 13.7139,6.69345 10.8004,12.17049 9.9701,32.52637 -2.1192,51.95647 -1.0671,1.71514 -3.7303,4.57234 -5.9182,6.34937 -11.5002,9.34044 -11.6665,9.69915 -10.5607,22.78067 0.6084,7.19783 1.9807,13.12336 3.4033,14.69529 1.3111,1.44873 2.3838,3.57798 2.3838,4.73168 0,2.16469 9.9946,15.24482 14.2846,18.69461 3.4822,2.80016 14.8206,8.39166 17.0195,8.39314 1.0268,7e-4 3.9118,-1.71942 6.4112,-3.82248 z M 339.5087,568.41715 c -0.52618,-0.85137 -3.69714,-2.28588 -7.04657,-3.18779 -6.40088,-1.72358 -14.46136,-7.15831 -14.46136,-9.75047 0,-0.83912 1.25307,-1.94749 2.7846,-2.46305 1.53153,-0.51558 5.64876,-2.2369 9.14941,-3.82517 8.54064,-3.87497 17.65156,-5.42816 19.00408,-3.23973 0.58834,0.95196 -0.12762,3.75767 -1.59092,6.23491 -2.45851,4.16193 -2.46548,4.88139 -0.0918,9.47145 1.41281,2.73206 2.56874,5.71898 2.56874,6.6376 0,2.10398 -9.02521,2.21094 -10.31609,0.12221 z m 47.56727,-8.59121 c -1.88987,-4.92491 0.52887,-7.36403 7.30245,-7.36403 4.40174,0 6.77005,0.79577 7.42163,2.49376 1.31721,3.43262 -1.08628,5.40889 -7.92857,6.51923 -4.47992,0.72701 -6.0279,0.35137 -6.79551,-1.64896 z m -35.26218,-0.46185 c -1.09395,-0.44141 -1.989,-2.17499 -1.989,-3.85237 0,-2.63594 1.18764,-3.04981 8.75161,-3.04981 8.27424,0 8.7516,0.21698 8.7516,3.978 0,3.6389 -0.57646,3.9673 -6.7626,3.85238 -3.71944,-0.0691 -7.65766,-0.48678 -8.75161,-0.9282 z"
       id="path1" />
  </g>
</svg>
