<?xml version="1.0" encoding="UTF-8" standalone="no"?>
<!-- Created with Inkscape (http://www.inkscape.org/) -->

<svg
   version="1.1"
   id="svg1"
   width="1920"
   height="1080"
   viewBox="0 0 1920 1080"
   xmlns="http://www.w3.org/2000/svg"
   xmlns:svg="http://www.w3.org/2000/svg">
  <defs
     id="defs1" />
  <g
     id="g1">
    <path
       style="fill:#000000;stroke-width:1.03203"
       d="m 746.20284,964.14738 c -7.8879,-8.09423 -10.64418,-11.36021 -13.95437,-16.53487 -2.14399,-3.35159 -3.71836,-7.11883 -3.71836,-8.8975 0,-1.69662 -0.46441,-3.37179 -1.03203,-3.72259 -0.56762,-0.35081 -1.03203,-1.31691 -1.03203,-2.1469 0,-0.82999 -2.58999,-4.16959 -5.75552,-7.42134 -7.68134,-7.89056 -16.79243,-20.05934 -18.13447,-24.22045 -0.59683,-1.8505 -1.97023,-5.33894 -3.05201,-7.7521 -6.06571,-13.53101 -6.01287,-55.56718 0.10735,-85.3994 0.58225,-2.8381 1.45725,-8.17887 1.94443,-11.8684 0.48719,-3.68952 1.4472,-8.79809 2.13336,-11.35237 0.68616,-2.55428 1.67521,-6.38571 2.19788,-8.51428 2.38786,-9.72436 2.97778,-11.98091 4.58662,-17.54458 0.94379,-3.26381 2.13718,-5.9342 2.65196,-5.9342 0.51479,0 0.93599,-0.92613 0.93599,-2.05807 0,-2.78608 8.1033,-10.82681 13.03346,-12.93281 5.83667,-2.49325 19.16143,-6.68183 21.25626,-6.68183 1.88814,0 20.81896,-4.70668 23.50418,-5.84373 4.13045,-1.74903 30.8859,-10.90369 34.05713,-11.65301 1.98666,-0.46942 8.48848,-2.29945 14.44847,-4.06673 14.50984,-4.3025 16.77653,-4.93801 25.80086,-7.23373 4.25714,-1.08298 9.94261,-2.72669 12.63439,-3.6527 2.69179,-0.926 7.95107,-1.7071 11.68731,-1.73577 7.65901,-0.0588 10.13624,1.35861 11.13921,6.37351 0.4335,2.16745 1.21015,3.04334 2.69855,3.04334 1.14942,0 2.08986,-0.6727 2.08986,-1.49488 0,-0.82218 1.16104,-2.74766 2.58009,-4.27883 1.41905,-1.53118 2.58008,-3.41278 2.58008,-4.18131 0,-0.76855 0.46442,-1.39735 1.03204,-1.39735 0.56762,0 1.03203,-0.69663 1.03203,-1.54805 0,-0.85143 0.36792,-1.54806 0.8176,-1.54806 0.44969,0 2.55464,-2.90259 4.67769,-6.45021 4.32964,-7.23486 18.59351,-29.59887 19.94517,-31.27158 1.59096,-1.96887 3.4565,-5.57728 3.4565,-6.68573 0,-0.59956 1.74861,-3.50845 3.8858,-6.46422 2.1372,-2.95576 4.57097,-6.76736 5.40841,-8.47021 0.83743,-1.70286 2.9342,-5.41818 4.6595,-8.25628 1.72529,-2.83809 3.80282,-6.55341 4.61674,-8.25627 0.8139,-1.70286 2.42188,-4.48694 3.57327,-6.18686 1.15139,-1.69992 3.30828,-5.43225 4.79309,-8.29408 7.24854,-13.97089 7.46716,-14.18792 13.46121,-13.36352 4.68093,0.64378 4.93276,0.54527 6.53706,-2.5571 2.23392,-4.31992 3.3028,-40.31113 1.65637,-55.77328 -2.44523,-22.96397 -5.8663,-41.95367 -8.41058,-46.68554 -0.52997,-0.98563 -0.96358,-3.3964 -0.96358,-5.35727 0,-1.96087 -0.46441,-3.85224 -1.03203,-4.20305 -0.56762,-0.35081 -1.03204,-1.93169 -1.03204,-3.51307 0,-1.58139 -0.8866,-3.67761 -1.97022,-4.65828 -1.76163,-1.59424 -2.28066,-1.62603 -4.90216,-0.30014 -8.34892,4.22265 -20.70379,7.6213 -40.08517,11.02686 -6.21596,1.09222 -21.23965,0.4596 -24.21151,-1.0195 -0.87414,-0.43506 -3.3729,-1.65523 -5.55281,-2.71149 -11.17666,-5.41559 -16.39853,-16.65339 -16.07167,-34.58731 l 0.16504,-9.05542 -3.58738,-3.48383 c -3.81079,-3.70077 -5.18969,-7.24034 -5.10486,-13.10385 0.0802,-5.54023 -0.73271,-8.25627 -2.47101,-8.25627 -0.86957,0 -2.2883,-1.6927 -3.15272,-3.76156 -1.79499,-4.296 -1.25405,-11.25874 1.49053,-19.18563 1.57058,-4.53613 1.56959,-5.00894 -0.0138,-6.59233 -0.93815,-0.93814 -4.1392,-2.56269 -7.11345,-3.6101 -11.64623,-4.10137 -16.04537,-9.50558 -14.82965,-18.2178 0.37442,-2.68313 1.79453,-6.61003 3.15579,-8.72644 1.36126,-2.1164 2.47502,-4.32237 2.47502,-4.90216 0,-0.57978 0.46442,-1.05416 1.03204,-1.05416 0.56762,0 1.03203,-0.4954 1.03203,-1.10089 0,-0.60549 1.16104,-2.62309 2.58009,-4.48356 1.41904,-1.86047 2.58008,-3.71813 2.58008,-4.12813 0,-0.41001 1.11779,-2.22384 2.48397,-4.03073 2.92016,-3.86215 8.73073,-13.85501 9.56154,-16.44368 0.3188,-0.99334 0.98989,-1.80606 1.4913,-1.80606 0.50141,0 0.91167,-1.36584 0.91167,-3.0352 0,-1.66935 0.43191,-3.30213 0.9598,-3.62839 1.94305,-1.20086 2.36155,-11.39168 0.74639,-18.17496 -2.01175,-8.44885 -2.48345,-11.69458 -4.26438,-29.34324 -0.80191,-7.94666 -1.21737,-15.26849 -0.92328,-16.27074 0.7721,-2.63112 -1.35075,-8.32206 -3.74913,-10.05071 -1.1317,-0.81571 -2.05767,-1.96586 -2.05767,-2.55588 0,-0.59001 -1.04493,-2.23231 -2.32207,-3.64953 -3.09012,-3.42907 -7.99827,-12.87577 -7.99827,-15.39426 0,-1.1059 -0.46441,-2.29774 -1.03203,-2.64855 -0.57802,-0.35724 -1.03204,-5.23247 -1.03204,-11.082 0,-8.93134 0.53739,-12.65596 2.71926,-18.84699 3.19566,-9.06768 27.58623,-27.71644 45.78634,-35.00773 0.85143,-0.34109 2.9413,-1.50995 4.64416,-2.59745 1.70285,-1.0875 4.14103,-2.01121 5.41818,-2.0527 1.27714,-0.0415 2.32207,-0.42677 2.32207,-0.85618 0,-0.42942 1.97377,-1.39431 4.38615,-2.1442 2.41238,-0.74989 5.77939,-1.98244 7.48225,-2.739 3.785,-1.68164 31.25688,-8.43932 37.66924,-9.26608 18.29439,-2.35873 30.10046,-3.10368 49.02162,-3.09321 30.36258,0.0168 53.56388,2.34878 65.95378,6.62906 3.3526,1.15823 7.1027,2.10587 8.3336,2.10587 3.1411,0 22.3176,6.75013 31.0883,10.94308 4.0329,1.92797 7.8643,3.5054 8.5143,3.5054 0.65,0 1.1818,0.46442 1.1818,1.03204 0,0.56761 0.6398,1.03203 1.4217,1.03203 0.7819,0 1.9998,0.69662 2.7064,1.54805 0.7067,0.85143 2.0407,1.54888 2.9644,1.5499 2.8381,0.003 21.202,13.99269 29.9703,22.83125 8.1606,8.22605 18.667,22.02302 18.667,24.51352 0,0.63744 0.3483,1.16338 0.7741,1.16875 0.4257,0.005 1.6908,2.09525 2.8113,4.64416 1.1206,2.54891 2.3977,4.63438 2.8381,4.63438 0.4405,0 0.8008,0.71296 0.8008,1.58436 0,0.87139 0.6524,2.61295 1.45,3.87012 0.7974,1.25718 2.9334,6.92993 4.7466,12.60611 1.8132,5.67619 3.7798,11.48138 4.3704,12.90043 0.5904,1.41905 1.4731,4.32164 1.9615,6.45021 1.2622,5.50149 2.4511,10.41788 4.8046,19.86666 1.1309,4.54095 2.6187,11.04276 3.306,14.44848 0.6873,3.40571 1.6685,7.12103 2.1804,8.25627 0.856,1.89819 1.9635,6.72826 3.6681,15.99653 0.3655,1.98666 0.9647,3.84432 1.3316,4.12813 1.0156,0.78552 5.2456,14.84854 9.1573,30.44501 4.925,19.63583 4.8752,43.19513 -0.1284,60.89001 -1.8837,6.66198 -7.8663,20.98248 -9.0788,21.73175 -0.5151,0.31833 -0.9364,1.27031 -0.9364,2.11551 0,0.84519 -1.6255,4.07771 -3.6122,7.18337 -1.9866,3.10566 -3.6121,6.0211 -3.6121,6.47875 0,0.45765 -1.161,1.92283 -2.5801,3.25596 -1.419,1.33313 -2.5801,2.8197 -2.5801,3.3035 0,2.05578 -14.3164,16.39925 -18.5287,18.56362 -1.4453,0.74269 -2.8602,1.58765 -3.144,1.87767 -4.9596,5.06835 -26.277,13.56909 -42.6155,16.99391 -1.5854,0.33229 -3.1472,1.29436 -3.4709,2.13791 -0.6353,1.65567 2.3032,16.34945 3.8576,19.28944 0.5211,0.98563 0.9475,2.52382 0.9475,3.4182 0,1.84474 3.0525,11.79709 4.0997,13.36636 0.3788,0.56762 1.3204,3.1219 2.0925,5.67618 1.8151,6.00477 2.4324,6.74797 7.8534,9.45538 2.4921,1.24458 4.531,2.60518 4.531,3.02357 0,0.41839 1.8453,2.77425 4.1006,5.23525 2.2553,2.461 4.1129,5.01635 4.1281,5.67858 0.015,0.66221 0.4143,1.35884 0.8868,1.54805 1.302,0.52124 11.5252,14.91481 11.5252,16.22669 0,0.63024 0.3483,1.15121 0.774,1.15772 0.4257,0.006 1.6958,1.98028 2.8225,4.38614 1.1266,2.40587 2.3642,4.60948 2.7502,4.8969 0.3858,0.28742 2.4136,3.77054 4.506,7.74026 2.0924,3.96972 4.6632,8.84311 5.7129,10.82978 4.2417,8.0283 12.3313,26.01914 12.3313,27.42438 0,0.82531 0.4644,2.42311 1.0321,3.55065 0.5676,1.12754 1.4966,2.973 2.0646,4.10103 1.826,3.627 4.0971,10.7865 4.1125,12.96513 0.01,1.16361 0.4153,2.55686 0.9045,3.0961 0.8306,0.91562 2.1735,5.28978 4.2614,13.88086 0.4829,1.98666 2.0984,7.79185 3.5899,12.90042 2.6988,9.24351 4.0421,15.49776 5.6522,26.31687 0.4646,3.1219 1.6173,9.8483 2.5615,14.94754 3.6266,19.58494 5.9816,52.3498 5.7935,80.60665 -0.2001,30.07685 -2.5867,69.67744 -5.1569,85.56779 -3.3624,20.78744 -3.7778,22.55413 -5.5607,23.6468 -2.5245,1.54705 -5.1742,-1.96649 -4.213,-5.58621 0.9037,-3.40255 1.8618,-10.82545 4.5294,-35.08915 4.0447,-36.78992 4.3541,-42.53878 3.8875,-72.24239 -0.5859,-37.29272 -1.6076,-49.74664 -6.9008,-84.11077 -1.4222,-9.23295 -4.1921,-22.57732 -5.8911,-28.38094 -2.2384,-7.64625 -3.0627,-10.84865 -4.516,-17.54458 -0.6776,-3.1219 -1.8358,-7.06943 -2.5737,-8.77229 -0.7379,-1.70286 -1.9055,-4.95376 -2.5947,-7.22424 -1.6073,-5.29524 -4.0317,-11.88436 -5.2163,-14.17646 -0.5093,-0.98564 -0.9261,-2.40807 -0.9261,-3.16097 0,-0.7529 -1.1886,-3.894 -2.6415,-6.98023 -7.4817,-15.89298 -11.8069,-25.50421 -11.8069,-26.23662 0,-0.3468 -1.6255,-3.17154 -3.6121,-6.2772 -1.9867,-3.10566 -3.6122,-5.87981 -3.6122,-6.16476 0,-0.54316 -5.2732,-8.8696 -6.1825,-9.76216 -0.2891,-0.28381 -1.4195,-2.14147 -2.512,-4.12814 -1.0926,-1.98666 -2.2536,-3.84432 -2.5801,-4.12813 -0.3266,-0.28381 -1.2904,-1.74151 -2.1418,-3.23932 -2.0033,-3.5241 -7.7543,-10.69252 -12.5057,-15.58782 l -3.7491,-3.86265 -7.9955,7.69029 c -4.3976,4.22965 -11.3058,9.64442 -15.3514,12.03283 -4.0457,2.38841 -7.5881,4.61351 -7.8719,4.94465 -0.9579,1.11774 -26.3053,13.52573 -27.6069,13.51408 -0.7095,-0.006 -1.29,0.45286 -1.29,1.02048 0,0.56762 -0.6809,1.03204 -1.5131,1.03204 -0.8321,0 -3.0381,0.65891 -4.9021,1.46424 -1.864,0.80533 -5.479,2.3725 -8.0333,3.48261 -7.3882,3.21095 -25.6643,9.22376 -33.5411,11.03501 -8.5888,1.97497 -9.7989,2.2733 -16.5125,4.07117 -11.1338,2.98152 -35.5256,4.94632 -44.15439,3.5567 -3.35269,-0.53994 -6.86436,-0.73778 -7.80369,-0.43965 -1.90429,0.6044 -7.38392,9.09786 -7.38392,11.44512 0,0.82829 -0.34831,1.50709 -0.77402,1.50845 -0.42572,10e-4 -2.14148,2.67173 -3.81282,5.93419 -1.67134,3.26246 -4.57394,8.37894 -6.45021,11.36996 -1.87628,2.99102 -3.41142,5.65239 -3.41142,5.91416 0,0.26176 -1.62546,3.01693 -3.61212,6.12259 -1.98667,3.10566 -3.61212,6.13337 -3.61212,6.72825 0,0.59489 -0.41026,1.08162 -0.91167,1.08162 -0.50141,0 -1.19072,0.81272 -1.53179,1.80606 -0.34106,0.99333 -1.7989,3.66372 -3.23963,5.93419 -1.44074,2.27048 -3.18017,5.28918 -3.86539,6.70822 -0.68522,1.41905 -1.49017,2.8123 -1.78876,3.0961 -1.21215,1.15215 -6.20734,8.15972 -6.20734,8.70807 0,0.32422 -4.99247,8.29576 -11.09437,17.71451 -6.1019,9.41875 -11.55878,17.88963 -12.1264,18.82418 -2.38397,3.92505 -13.41107,19.45625 -15.50312,21.83546 -1.24777,1.41905 -2.91144,4.08943 -3.69704,5.93419 -0.7856,1.84477 -1.77941,3.35411 -2.20847,3.35411 -0.42905,0 -0.7801,0.65793 -0.7801,1.46206 0,0.80412 -0.34831,1.61684 -0.77403,1.80606 -0.86172,0.38298 -11.61038,15.99476 -11.61038,16.86338 0,0.30261 -1.08148,2.28253 -2.4033,4.39982 -1.32181,2.11729 -4.02701,6.86832 -6.01156,10.55784 -1.98455,3.68952 -4.11265,7.63706 -4.72909,8.77229 -2.64103,4.86371 -6.42352,13.92957 -8.61176,20.64068 -3.32547,10.19888 -4.0783,38.44707 -1.43709,53.92378 0.9929,5.8181 2.20552,10.57835 2.69472,10.57835 0.48918,0 0.88943,2.06246 0.88943,4.58325 0,2.52078 0.46442,4.87027 1.03204,5.22108 0.56762,0.3508 1.03203,2.37932 1.03203,4.50781 0,2.12848 0.68186,4.77146 1.51523,5.87328 0.83337,1.10182 1.52999,3.25305 1.54806,4.7805 0.0181,1.52745 0.49723,3.06421 1.06485,3.41502 0.56762,0.35081 1.03203,1.5235 1.03203,2.60598 0,1.08248 0.63597,3.49325 1.41327,5.35727 3.29882,7.91087 3.65845,10.03836 1.9805,11.71632 -0.87771,0.8777 -2.27056,1.33692 -3.09523,1.02046 -0.82466,-0.31645 -1.69361,-0.57537 -1.931,-0.57537 -0.23738,0 -0.43161,-0.65898 -0.43161,-1.46441 0,-0.80543 -0.65016,-2.7792 -1.4448,-4.38615 -1.82255,-3.68565 -3.71537,-9.77951 -3.71537,-11.96157 0,-0.91798 -1.18517,-5.52916 -2.63374,-10.24707 -6.14727,-20.02149 -9.75066,-40.97952 -9.75066,-56.71163 0,-12.74067 3.12446,-31.28114 6.27795,-37.25319 0.98861,-1.87221 1.30243,-5.9482 0.45797,-5.9482 -0.26858,0 -2.47455,1.09342 -4.90217,2.42981 -3.42633,1.88619 -5.22197,3.95646 -8.02596,9.25341 -1.98666,3.75299 -4.68588,8.11646 -5.99824,9.69659 -2.07171,2.49441 -2.29971,3.58863 -1.73022,8.30386 1.0869,8.99929 -0.72125,12.25851 -11.73018,21.14401 -1.23072,0.99333 -2.62542,1.80606 -3.09934,1.80606 -1.443,0 -7.69612,3.2487 -11.09511,5.76428 -2.82218,2.08867 -3.2867,3.15728 -3.8615,8.88335 -0.35939,3.57999 -1.14749,8.83114 -1.75136,11.66924 -2.4942,11.72239 -2.51983,11.45131 1.47094,15.56048 4.97011,5.11756 8.18722,6.62825 14.11529,6.62825 2.73971,0 5.23125,0.40443 5.53674,0.89873 0.3055,0.49431 1.96422,1.18049 3.68603,1.52486 5.05828,1.01165 20.58521,8.94499 21.74376,11.10977 3.1012,5.79464 -4.29765,5.30623 -17.40537,-1.14895 -14.52496,-7.15315 -15.45668,-7.03134 -22.90653,2.99464 -2.55428,3.43754 -5.02563,6.25988 -5.4919,6.27187 -0.46625,0.012 -1.49507,0.60231 -2.28625,1.31184 -2.91007,2.6097 -4.53033,3.87012 -4.975,3.87012 -0.25074,0 -2.87129,1.62546 -5.82346,3.61212 -2.95218,1.98667 -5.99691,3.61212 -6.7661,3.61212 -0.76919,0 -3.10939,1.16104 -5.20048,2.58009 -2.09108,1.41904 -4.63858,2.58008 -5.66111,2.58008 -1.02253,0 -2.08933,0.37245 -2.37067,0.82766 -0.28134,0.45522 -2.91529,1.48223 -5.85321,2.28225 -2.93792,0.80003 -5.58091,2.078 -5.87329,2.83995 -1.05416,2.74708 3.43176,10.17814 10.11443,16.75489 10.00543,9.84685 11.54257,13.41644 5.77738,13.41644 -2.21786,0 -4.25624,-0.82872 -5.71152,-2.32207 z m -5.59488,-38.05575 c 2.75431,-1.10733 5.16384,-2.05943 8.56283,-3.38347 0.85143,-0.33167 2.24468,-0.99822 3.09611,-1.48123 4.17454,-2.36819 6.30232,-3.26308 7.75864,-3.26308 0.87694,0 1.84545,-0.6541 2.15223,-1.45355 0.30678,-0.79947 2.03377,-2.05681 3.83774,-2.79409 1.80396,-0.73729 5.24032,-3.16488 7.63632,-5.39464 2.396,-2.22977 5.2986,-4.71409 6.45021,-5.52071 2.91355,-2.04074 2.76641,-7.5242 -0.26066,-9.71446 -4.53526,-3.28151 -6.66484,-3.33081 -8.66906,-0.2007 -2.16513,3.38142 -4.05214,5.46951 -4.94281,5.46951 -0.60606,0 -2.02707,1.06735 -5.15243,3.87012 -0.79118,0.70953 -1.8974,1.29005 -2.45826,1.29005 -0.56086,0 -1.17455,0.38543 -1.36376,0.8565 -0.1892,0.47108 -3.04149,2.12296 -6.3384,3.67083 -7.23185,3.3953 -13.61426,3.45006 -13.61426,0.11682 0,-2.11543 1.21231,-2.89673 11.91161,-7.67677 3.09813,-1.38412 6.17338,-3.00957 6.83388,-3.61211 0.6605,-0.60255 2.71683,-2.25657 4.56961,-3.67561 4.03774,-3.0925 9.19398,-10.90376 9.19398,-13.92811 0,-1.19439 0.41333,-2.61282 0.91851,-3.15206 1.33476,-1.42473 4.24166,-16.87831 4.24166,-22.54936 0,-5.91597 2.38193,-10.94014 5.18667,-10.94014 1.12066,0 2.03756,-0.46442 2.03756,-1.03204 0,-0.56762 0.43201,-1.03203 0.96003,-1.03203 2.33621,0 14.42262,-6.37542 17.03838,-8.98752 5.16985,-5.1626 5.65375,-11.27705 1.08594,-13.72167 -2.63469,-1.41004 -17.62904,-0.87274 -26.8246,0.96122 -2.83809,0.56603 -6.57984,1.31848 -8.31498,1.67212 -3.87415,0.78958 -6.67319,-1.75657 -4.94424,-4.49752 1.59831,-2.53384 20.54968,-6.26017 32.19262,-6.32989 10.95662,-0.0656 13.75778,-1.18067 17.56799,-6.9932 2.27013,-3.46311 3.38102,-9.77202 1.96927,-11.18377 -2.78489,-2.7849 -23.15441,-3.27898 -41.47682,-1.00607 -8.39756,1.04173 -12.82092,1.19168 -14.15124,0.47971 -2.22659,-1.19163 -2.51837,-3.35983 -0.64519,-4.79446 2.21812,-1.69879 20.16745,-3.57887 38.38869,-4.02098 12.02033,-0.29165 17.7278,-0.80916 18.25045,-1.65482 1.278,-2.06786 2.15243,-10.86201 1.41422,-14.22302 -1.22736,-5.58816 -3.98329,-6.47793 -18.30164,-5.90877 -6.96345,0.2768 -18.6151,1.08794 -25.89255,1.80253 -11.84232,1.16284 -13.40437,1.12663 -14.87584,-0.34484 -1.28573,-1.28574 -1.37864,-1.96399 -0.4262,-3.11161 1.50704,-1.81588 5.85921,-2.65972 19.76148,-3.83156 14.26873,-1.20274 21.11877,-2.39213 29.05552,-5.04504 3.60231,-1.2041 8.1751,-2.6944 10.16177,-3.3118 1.98667,-0.61739 6.86303,-2.64151 10.83636,-4.49804 3.97333,-1.85652 10.12683,-4.67363 13.67445,-6.26025 3.54762,-1.58661 6.45021,-3.21727 6.45021,-3.62367 0,-0.40641 1.16104,-1.03033 2.58009,-1.38649 1.41904,-0.35616 2.58008,-1.10313 2.58008,-1.65993 0,-0.5568 0.70293,-1.01237 1.56206,-1.01237 2.31991,0 5.42696,-1.9591 12.88642,-8.12528 7.43085,-6.14254 9.19755,-8.57799 9.25173,-12.75375 0.0494,-3.80786 -3.55216,-4.66064 -9.72584,-2.30289 -6.32518,2.41561 -6.12949,5.53462 0.29267,4.66476 1.54615,-0.20942 4.30958,1.80353 4.30958,3.13922 0,0.48503 -1.05329,1.57201 -2.34063,2.41551 -2.07485,1.35949 -2.86583,1.35358 -6.96623,-0.0521 -2.54408,-0.87214 -5.58436,-2.4804 -6.75619,-3.57392 -2.66524,-2.48712 -5.25451,-2.50656 -10.94228,-0.0822 -2.45944,1.04836 -7.026,2.23157 -10.1479,2.62937 -5.34159,0.68064 -10.22158,1.91661 -14.96449,3.79013 -1.13524,0.44844 -4.61836,1.6048 -7.74026,2.56968 -7.3962,2.28594 -9.04858,3.78298 -8.47664,7.67976 0.55104,3.75451 -1.76149,4.21617 -5.17755,1.03363 -1.21855,-1.13524 -2.94068,-2.06148 -3.82698,-2.05831 -1.90685,0.007 -9.00145,1.79684 -11.9318,3.0105 -6.28798,2.60429 -7.98694,3.17594 -9.4389,3.17594 -0.88084,0 -3.06497,0.63705 -4.85361,1.41566 -1.78863,0.77861 -6.50298,1.98734 -10.47631,2.68606 -8.78908,1.54558 -17.94638,3.89763 -20.36867,5.23168 -0.98563,0.54282 -2.37888,1.00582 -3.0961,1.02889 -0.71722,0.023 -2.88472,1.39357 -4.81665,3.04556 -4.05822,3.47019 -4.50353,7.27001 -1.45913,12.45064 1.82544,3.10632 1.82203,3.23109 -0.12768,4.66315 -2.34847,1.72502 -3.67287,1.88346 -3.67287,0.43947 0,-0.56762 -0.83946,-1.03204 -1.86546,-1.03204 -1.95647,0 -5.34603,6.24015 -5.3738,9.8931 -0.008,1.08642 -0.70241,3.94852 -1.54256,6.36024 -1.41756,4.06925 -3.51254,14.46678 -5.66666,28.12413 -0.49241,3.1219 -1.70897,9.85592 -2.70348,14.96449 -1.39191,7.15004 -1.82344,14.87157 -1.87443,33.54111 -0.0656,24.04216 -0.041,24.32451 2.84353,32.50907 1.60038,4.54095 4.95899,11.50718 7.46359,15.48051 4.62739,7.34096 12.13794,15.99653 13.88041,15.99653 0.52714,0 1.45087,0.92012 2.05273,2.04471 1.11805,2.08909 5.72655,5.06387 7.96007,5.13821 0.68281,0.0227 2.54048,-0.48092 4.12814,-1.11921 z m 1.3749,-89.59062 c -1.50533,-2.81274 -1.35209,-8.32412 0.23146,-8.32412 2.55017,0 6.19083,7.08767 4.6385,9.0303 -1.50777,1.88686 -3.64832,1.57646 -4.86996,-0.70618 z m -8.84693,-25.94283 c -1.27905,-2.47341 -1.37052,-3.49422 -0.41615,-4.64415 0.67278,-0.81067 1.53066,-1.47392 1.90639,-1.47392 1.36558,0 4.21434,6.04932 3.60119,7.64713 -1.00063,2.6076 -3.3111,1.91371 -5.09143,-1.52906 z m -5.98186,-24.35068 c -0.37841,-0.3784 -0.68802,-1.77165 -0.68802,-3.0961 0,-3.05425 3.6947,-3.33546 4.64122,-0.35325 1.02686,3.23537 -1.74693,5.65563 -3.9532,3.44935 z m 96.32615,-0.086 c 0.002,-0.42571 1.40112,-1.70285 3.10998,-2.83809 6.13574,-4.07611 5.79856,-13.93246 -0.47662,-13.93246 -1.89655,0 -2.71497,0.78522 -3.49591,3.35411 -1.45747,4.79429 -2.38474,12.08369 -1.68181,13.22105 0.71418,1.15557 2.54014,1.29579 2.54436,0.19539 z m 21.93566,-18.87759 c 1.7073,-3.09827 4.66799,-7.84026 6.57931,-10.53776 1.91131,-2.69751 3.47511,-5.14922 3.47511,-5.44824 0,-0.29904 3.04182,-5.23112 6.75959,-10.96019 6.67246,-10.28225 8.5194,-15.52982 4.05494,-11.52104 -1.14724,1.03014 -6.0236,3.8869 -10.83635,6.34835 -4.81276,2.46144 -9.44709,4.85318 -10.29852,5.31497 -0.85143,0.4618 -3.63792,1.77929 -6.1922,2.92776 -13.31493,5.98674 -21.19057,10.317 -21.47873,11.80964 -0.30043,1.55624 6.58365,5.54215 12.70644,7.35708 2.97129,0.88075 7.06568,4.80041 8.55253,8.18758 0.70477,1.60553 1.79717,2.74724 2.42755,2.53711 0.63037,-0.21012 2.54302,-2.91699 4.25033,-6.01526 z M 999.43905,588.69172 c 9.49565,-1.21177 36.54265,-7.69582 44.89345,-10.76247 2.5543,-0.93799 5.573,-1.9523 6.7083,-2.254 1.1352,-0.30171 4.3861,-1.59943 7.2242,-2.88382 2.8381,-1.28439 6.3212,-2.67502 7.7403,-3.09029 1.419,-0.41526 5.5987,-2.14851 9.2883,-3.85166 3.6895,-1.70315 8.7981,-4.02887 11.3523,-5.16826 2.5543,-1.13939 5.3408,-2.48734 6.1922,-2.99543 0.8515,-0.5081 3.2897,-1.67312 5.4182,-2.58895 2.1286,-0.91582 3.8702,-2.07912 3.8702,-2.5851 0,-0.50599 0.4238,-0.91998 0.9419,-0.91998 2.0858,0 18.4218,-11.38897 23.224,-16.19105 2.8134,-2.81345 3.4876,-7.38886 1.7509,-11.88332 -0.9138,-2.36488 -5.5986,-17.14078 -7.2959,-23.01131 -0.4923,-1.70286 -1.6608,-6.34701 -2.5966,-10.32034 -0.9357,-3.97334 -2.4114,-8.7756 -3.2793,-10.6717 -1.5568,-3.40083 -1.6502,-3.43921 -6.9035,-2.83747 -12.88,1.47533 -34.9229,1.82076 -41.6606,0.65287 -10.1646,-1.76189 -14.7695,-3.4635 -30.2776,-11.1881 -12.5677,-6.26 -13.9181,-7.19727 -14.2239,-9.87282 -0.2425,-2.12124 0.4678,-3.79728 2.5151,-5.93419 1.5692,-1.6379 3.2616,-2.97801 3.7609,-2.97801 1.5618,0 8.3113,-5.46074 13.1457,-10.63558 5.1036,-5.46297 10.3292,-14.17458 10.3292,-17.21988 0,-1.07344 0.4101,-2.20516 0.9113,-2.51493 1.7126,-1.05846 3.3886,-17.24503 2.7222,-26.2911 -0.734,-9.96507 -3.3014,-23.68065 -5.3795,-28.73933 -1.4249,-3.46881 -4.0509,-4.36865 -6.2707,-2.14882 -1.8224,1.82232 -8.5587,3.92234 -12.624,3.93549 -1.9867,0.006 -5.0424,-0.86049 -6.7905,-1.92648 -3.7665,-2.29681 -6.5074,-7.87381 -4.7389,-9.64233 1.1817,-1.18168 1.1453,-1.19399 8.8287,2.98856 4.5273,2.46448 9.5661,0.47532 16.8159,-6.63837 3.3176,-3.25527 8.0445,-7.52428 10.5044,-9.48668 5.725,-4.5672 9.5477,-10.19643 12.6451,-18.62074 3.5861,-9.75351 3.5598,-25.29237 -0.055,-32.5809 -3.3625,-6.77967 -5.8376,-9.43674 -10.1012,-10.84388 -4.8952,-1.61556 -10.9202,0.20795 -17.739,5.36889 -4.7226,3.57446 -6.4123,4.2035 -13.7684,5.12587 -4.6118,0.57827 -9.5723,1.09437 -11.0234,1.14688 -5.8464,0.21158 -21.54361,-2.36964 -26.8846,-4.42088 -3.12549,-1.20035 -6.61152,-2.51923 -7.74676,-2.93082 -1.90926,-0.69223 -7.45873,-3.22813 -19.09263,-8.72465 -2.55428,-1.20679 -4.87636,-2.47382 -5.16017,-2.81562 -0.28381,-0.34181 -2.37368,-1.48765 -4.64415,-2.54632 -2.27048,-1.05867 -5.02274,-2.74746 -6.11614,-3.75287 -1.09338,-1.00542 -2.83494,-2.09685 -3.87012,-2.4254 -1.03517,-0.32855 -1.88213,-1.03048 -1.88213,-1.55986 0,-0.52936 -0.58527,-0.96248 -1.30059,-0.96248 -0.71533,0 -2.55272,-1.16104 -4.08309,-2.58009 -1.53038,-1.41904 -3.15584,-2.58008 -3.61212,-2.58008 -0.45629,0 -2.08175,-1.16104 -3.61212,-2.58009 -1.53038,-1.41904 -3.22849,-2.58008 -3.77358,-2.58008 -0.54509,0 -1.14588,-0.34831 -1.33509,-0.77403 -0.3664,-0.82439 -4.92837,-4.59723 -9.67117,-7.99826 -7.80679,-5.59818 -29.09081,-26.35179 -31.89675,-31.10187 -1.6386,-2.77393 -6.38372,-6.56737 -8.21495,-6.56737 -0.33813,0 -0.61479,0.69662 -0.61479,1.54805 0,0.85143 -0.46442,1.54805 -1.03204,1.54805 -0.56761,0 -1.03203,0.63976 -1.03203,1.42169 0,0.78192 -0.69662,1.99982 -1.54805,2.70644 -0.85143,0.70663 -1.54805,2.39525 -1.54805,3.75249 0,1.35725 -0.42591,3.27415 -0.94647,4.25978 -2.14937,4.06963 -3.44881,16.73519 -2.79116,27.20511 0.94768,15.08701 3.66078,33.53597 5.64451,38.38224 2.68553,6.56079 0.66959,17.67403 -5.26966,29.04997 -0.58184,1.11444 -2.27687,4.36535 -3.76673,7.22424 -1.48987,2.85889 -4.21054,7.37152 -6.04594,10.02808 -1.83541,2.65655 -3.3371,5.32693 -3.3371,5.93419 0,0.60725 -0.38987,1.10409 -0.86637,1.10409 -0.47651,0 -1.39492,1.04494 -2.0409,2.32208 -0.64599,1.27714 -2.32195,4.17974 -3.72436,6.45021 -5.66979,9.17928 -5.71077,9.32732 -3.56078,12.8627 1.89857,3.12195 5.8708,5.3503 14.83657,8.32306 2.27047,0.75282 5.20353,2.50881 6.5179,3.90221 1.99668,2.11671 2.27649,3.20394 1.7011,6.60967 -0.37878,2.24193 -1.3352,5.31543 -2.12541,6.82998 -0.7902,1.51456 -1.43958,3.54462 -1.44308,4.51125 -0.003,0.96662 -0.53906,2.92663 -1.19012,4.35557 -1.5784,3.4642 -0.16214,5.07752 6.31796,7.19705 6.66633,2.18044 10.09379,2.08677 14.99046,-0.4097 5.28192,-2.69287 5.81254,-2.62655 8.25628,1.03204 1.13523,1.69959 2.41238,3.09149 2.83809,3.09313 1.34173,0.005 0.83948,2.79202 -0.73933,4.10231 -1.03632,0.86007 -2.39266,0.96287 -4.30288,0.32612 -3.74755,-1.24918 -15.52128,0.4032 -18.55127,2.60357 -1.32028,0.95879 -2.41511,2.50687 -2.43295,3.44017 -0.0357,1.87022 4.03701,6.42448 8.6781,9.70408 2.81253,1.98746 2.91826,2.31775 1.78376,5.57218 -0.66329,1.90273 -1.20598,7.53143 -1.20598,12.50824 0,13.21571 2.95999,19.30879 12.20015,25.11367 4.21614,2.64869 5.12984,2.79945 16.7178,2.75851 11.96057,-0.0423 17.34046,-0.76351 26.81189,-3.59449 2.55428,-0.76347 6.73402,-1.95662 9.2883,-2.65143 2.55429,-0.69482 6.73402,-2.12316 9.28831,-3.17409 12.34403,-5.07883 20.1727,-8.53485 20.64068,-9.11196 0.28381,-0.35 3.99913,-2.45613 8.25627,-4.68028 8.71124,-4.55121 20.38455,-12.27153 25.80088,-17.06376 4.1894,-3.70675 8.1122,-5.04806 9.2726,-3.17056 1.7532,2.83684 -0.5645,5.97272 -10.0759,13.63242 -3.78942,3.05175 -27.95223,17.31415 -32.23832,19.0291 -4.65221,1.86145 -6.14087,5.11974 -4.24262,9.28596 0.63967,1.4039 1.16302,3.92393 1.16302,5.60008 0,1.67615 0.41563,3.04755 0.92363,3.04755 0.50801,0 1.1626,1.74155 1.45466,3.87012 0.29207,2.12857 1.30296,6.88883 2.24641,10.57835 6.99871,27.36936 9.02874,64.40928 5.12964,93.59545 l -0.71559,5.35654 5.02694,0.36408 c 2.76482,0.20023 5.95577,0.25047 7.09101,0.11164 1.13524,-0.13884 6.24381,-0.78582 11.35237,-1.43774 z M 860.37246,366.10012 c -3.1124,-1.95709 -3.75643,-5.14704 -1.23454,-6.11478 0.88195,-0.33843 3.45801,0.22091 5.72456,1.24298 3.13771,1.41491 4.04792,2.36979 3.81464,4.00184 -0.40092,2.80485 -4.53829,3.23826 -8.30466,0.86996 z M 1033.21,333.82519 c -3.657,-3.40703 -1.9333,-5.15278 5.0877,-5.15278 5.1309,0 6.5411,-0.4124 8.6618,-2.53318 2.8029,-2.80287 3.283,-7.22898 1.0966,-10.10924 -0.7541,-0.99333 -1.6121,-1.80606 -1.9068,-1.80606 -0.2947,0 -2.44,-1.8479 -4.7673,-4.10645 -4.3846,-4.25515 -4.9922,-6.37581 -4.4807,-15.63775 0.2361,-4.27414 4.4228,-9.08267 10.7442,-12.33993 5.0088,-2.5809 8.53,-2.4923 12.5243,0.31512 5.8519,4.11309 6.4678,5.17617 5.999,10.3543 -0.2714,2.99745 -4.1195,2.07404 -7.5262,-1.80606 -2.9738,-3.38698 -7.0858,-4.88424 -7.0858,-2.58008 0,0.56762 -0.6157,1.03203 -1.3682,1.03203 -0.7525,0 -2.494,1.19845 -3.8701,2.66323 -3.2457,3.45485 -3.5797,11.3273 -0.5525,13.0214 1.0722,0.60003 3.9748,3.20473 6.4502,5.78822 3.9727,4.14617 4.5007,5.25124 4.5007,9.41902 0,3.91328 -0.6626,5.54518 -3.8701,9.53081 -4.2514,5.2829 -5.7347,5.9839 -12.7058,6.00477 -3.3009,0.0103 -5.372,-0.6049 -6.931,-2.05737 z M 896.27741,302.10808 c -1.71734,-1.85208 -2.62185,-4.01375 -2.62185,-6.26593 0,-3.75278 -1.9445,-6.38704 -4.71467,-6.38704 -2.62471,0 -4.50376,-3.10966 -4.54081,-7.51463 -0.0482,-5.73571 2.13615,-5.99573 10.7595,-1.28077 8.27334,4.5236 18.6483,8.7954 21.36141,8.7954 3.43798,0 9.12763,3.39525 9.12763,5.44683 0,1.75837 -0.57822,1.90813 -5.41818,1.40326 -2.98,-0.31085 -7.28471,-0.8568 -9.56602,-1.21322 -4.07077,-0.636 -4.17388,-0.57455 -5.54926,3.30776 -2.6173,7.38783 -4.63923,8.23624 -8.83775,3.70834 z m -14.68687,-36.01401 c -1.05695,-2.75435 0.82075,-4.46315 8.42313,-7.66554 6.75621,-2.84593 8.04012,-3.03054 21.0766,-3.03054 14.99224,0 21.70072,1.67071 21.75596,5.41818 0.0326,2.2117 1.06878,2.09427 -19.58202,2.21913 -15.45565,0.0934 -17.4638,0.31743 -21.74054,2.42502 -5.57064,2.74522 -9.038,2.96645 -9.93313,0.63375 z m 221.77516,203.94958 c 3.008,-0.57721 8.0233,-1.53873 11.1452,-2.13672 6.4351,-1.23264 24.2294,-5.87534 27.3489,-7.13556 5.9129,-2.3888 21.9955,-10.4134 24.1493,-12.04962 2.9713,-2.25729 14.4374,-13.58972 16.616,-16.42227 5.1313,-6.67147 7.2242,-9.66126 7.2242,-10.31973 0,-0.41001 1.1611,-2.26767 2.5801,-4.12814 1.4191,-1.86046 2.5801,-3.92247 2.5801,-4.58225 0,-0.65977 0.8458,-2.43232 1.8795,-3.93898 1.0336,-1.50667 2.6952,-5.06148 3.6923,-7.89957 0.997,-2.8381 2.2232,-6.089 2.7248,-7.22424 3.9784,-9.00359 6.7199,-27.29465 5.7494,-38.35924 -1.2384,-14.11962 -2.2337,-20.2761 -4.4764,-27.69094 -1.2018,-3.97333 -2.9635,-10.01073 -3.915,-13.41644 -0.9515,-3.40572 -2.613,-8.77741 -3.6923,-11.93711 -1.0793,-3.1597 -1.9623,-6.55554 -1.9623,-7.54634 0,-0.99079 -0.7244,-4.21078 -1.6097,-7.15552 -2.0216,-6.72382 -2.814,-9.83104 -6.1029,-23.9307 -1.4565,-6.24381 -3.0501,-12.74562 -3.5414,-14.44848 -0.4913,-1.70286 -1.4588,-5.41818 -2.1499,-8.25627 -1.645,-6.75482 -4.0628,-14.95521 -5.173,-17.54458 -0.4866,-1.13524 -1.8817,-4.85056 -3.1001,-8.25627 -1.2185,-3.40572 -4.0904,-9.67532 -6.382,-13.93246 -2.2918,-4.25714 -5.2673,-9.84665 -6.6125,-12.42114 -1.3452,-2.57448 -4.0793,-6.46428 -6.0759,-8.644 -1.9965,-2.17972 -3.63,-4.19065 -3.63,-4.46874 0,-1.89804 -27.2767,-25.03579 -29.5143,-25.03579 -0.7011,0 -1.4295,-0.34831 -1.6188,-0.77403 -0.1892,-0.42571 -1.9694,-1.58389 -3.9561,-2.57372 -1.9867,-0.98983 -4.3087,-2.2399 -5.1602,-2.77792 -0.8514,-0.53802 -3.5218,-1.7913 -5.9342,-2.78506 -2.4123,-0.99377 -4.3861,-2.18187 -4.3861,-2.64026 0,-0.45838 -0.9014,-0.83342 -2.0032,-0.83342 -1.1017,0 -2.2902,-0.46442 -2.641,-1.03203 -0.3508,-0.56762 -1.452,-1.03204 -2.4471,-1.03204 -0.9951,0 -3.8704,-1.00017 -6.3894,-2.2226 -4.3029,-2.08817 -6.5267,-2.80875 -15.4163,-4.99531 -1.9866,-0.48867 -7.0952,-1.79443 -11.3523,-2.9017 -4.2572,-1.10727 -11.92,-2.56569 -17.0286,-3.24093 -5.1086,-0.67525 -12.307,-1.74382 -15.9965,-2.37462 -10.5831,-1.80938 -46.86991,-1.39872 -61.92209,0.70078 -7.09523,0.98965 -15.45471,2.15207 -18.57661,2.58314 -6.56872,0.90701 -15.19769,3.00106 -17.78858,4.31688 -0.98564,0.50057 -2.81032,0.91012 -4.05486,0.91012 -2.69776,0 -8.56788,1.77613 -12.37292,3.74369 -1.50662,0.77907 -3.48039,1.41648 -4.38614,1.41648 -0.90576,0 -1.64683,0.46442 -1.64683,1.03204 0,0.56762 -1.62545,1.03203 -3.61212,1.03203 -1.98666,0 -3.61212,0.46442 -3.61212,1.03204 0,0.56761 -0.9434,1.03203 -2.09645,1.03203 -1.15306,0 -2.36378,0.69662 -2.6905,1.54805 -0.32673,0.85143 -1.4795,1.54805 -2.56171,1.54805 -1.76092,0 -5.73808,1.73436 -7.09981,3.0961 -0.28381,0.28381 -3.66893,2.14147 -7.52247,4.12814 -3.85354,1.98666 -7.80145,4.30874 -8.77312,5.16017 -0.97168,0.85143 -3.62397,2.91232 -5.89398,4.57974 -5.80758,4.26594 -13.93163,12.58007 -13.93163,14.25758 0,0.77488 -0.68185,2.31035 -1.51523,3.41217 -2.23625,2.9566 -2.04418,19.07542 0.30672,25.74009 2.64362,7.49449 5.2034,12.45994 7.4902,14.52946 1.91985,1.73743 2.0728,1.73028 3.50623,-0.16418 0.82435,-1.08948 1.51358,-2.84907 1.53164,-3.9102 0.0181,-1.06114 2.12269,-5.89043 4.67697,-10.73175 4.66729,-8.84628 5.52281,-11.59172 3.61212,-11.59172 -0.56762,0 -1.03203,-1.85766 -1.03203,-4.12813 0,-2.8897 0.4423,-4.12814 1.47433,-4.12814 2.00172,0 3.49821,1.63241 9.35661,10.20646 2.75764,4.03597 5.39634,7.33812 5.86377,7.33812 0.46743,0 0.84987,0.46088 0.84987,1.02418 0,1.90503 7.35302,9.80593 20.65739,22.19658 11.98644,11.16325 15.7556,14.43548 19.09176,16.57471 1.69415,1.08633 3.58411,2.44558 4.19993,3.02056 0.61582,0.57498 2.24127,1.85241 3.61212,2.83874 12.8537,9.2483 18.53613,13.04705 20.40311,13.6396 1.21098,0.38435 2.78505,1.25852 3.49794,1.94261 1.64374,1.57734 19.15363,10.22155 26.39441,13.03028 16.5459,6.41824 17.60718,6.63639 32.17968,6.61433 12.1965,-0.0185 14.4655,-0.29656 18.2109,-2.23212 2.3531,-1.21607 4.9145,-2.80684 5.6919,-3.53504 1.9948,-1.86852 7.9347,-4.65317 12.3801,-5.80381 5.3654,-1.38881 12.2723,1.12067 17.688,6.42652 7.2746,7.12725 10.0152,14.76089 10.0152,27.89671 0,18.4586 -7.9175,34.54984 -21.6235,43.94702 -2.4322,1.66759 -2.4427,3.76439 -0.059,11.86839 0.6678,2.27048 1.5888,6.21801 2.0467,8.77229 0.4579,2.55428 1.3663,6.26961 2.0187,8.25627 1.2857,3.91512 1.6492,30.23775 0.5215,37.75784 -0.3778,2.51952 -1.0978,4.83485 -1.5999,5.14517 -0.5021,0.31033 -0.9129,1.23851 -0.9129,2.06263 0,5.09853 -10.2961,20.8798 -16.6904,25.58229 -6.7463,4.96126 -9.4004,7.70943 -8.8358,9.14916 0.8321,2.12218 19.7653,11.05119 27.878,13.14749 8.555,2.21058 33.0216,2.82067 42.2328,1.0531 z m 54.534,458.32181 c -0.7773,-1.45249 -0.4796,-4.41981 1.1129,-11.09437 1.1957,-5.01136 2.5099,-9.80818 2.9205,-10.65961 1.0602,-2.19884 5.7147,-21.96705 8.7478,-37.15323 2.6986,-13.51204 5.3473,-30.93134 6.8261,-44.89348 0.4811,-4.54095 1.4447,-12.2038 2.1415,-17.02856 1.7903,-12.3962 1.8007,-90.44426 0.013,-97.52722 -0.7163,-2.83809 -1.6751,-7.71445 -2.1305,-10.83636 -1.9913,-13.64765 -7.0243,-27.55117 -13.2639,-36.6413 -3.0909,-4.50219 -11.8023,-11.8643 -14.0393,-11.8643 -1.5841,0 -3.8635,-3.15912 -3.5297,-4.89195 0.1897,-0.98592 1.1808,-1.9535 2.2022,-2.1502 1.9177,-0.36933 8.546,2.36757 10.5657,4.36277 0.6299,0.62224 2.4369,2.06016 4.0157,3.1954 3.9031,2.80667 11.4598,14.69038 13.5885,21.36948 0.9577,3.00487 2.0569,5.92782 2.4427,6.49544 0.7044,1.03652 1.2151,3.23042 5.4062,23.22076 2.0742,9.89334 2.3052,14.42884 2.6539,52.11772 0.3691,39.89161 0.2894,41.99362 -2.3653,62.43807 -1.5109,11.63618 -4.1386,29.51617 -5.8392,39.73331 -1.7006,10.21713 -3.49,21.3631 -3.9765,24.76881 -1.1402,7.98243 -9.6984,41.80746 -11.3897,45.01636 -2.28,4.32542 -4.4802,5.05456 -6.103,2.02246 z m -190.51413,-8.07953 c 2.25577,-15.27313 3.51471,-22.19524 6.71023,-36.89522 0.61695,-2.83809 1.56275,-7.71445 2.1018,-10.83636 0.53903,-3.1219 1.71569,-8.69488 2.61479,-12.3844 1.7263,-7.08403 3.11044,-13.63133 4.14537,-19.60865 0.34398,-1.98667 1.02116,-4.54095 1.50484,-5.67619 0.48368,-1.13524 1.14276,-3.68952 1.46461,-5.67619 0.32185,-1.98666 1.34865,-6.1664 2.28178,-9.2883 0.93312,-3.12191 1.91663,-7.41775 2.18558,-9.54632 0.26894,-2.12857 0.84527,-3.87013 1.28073,-3.87013 0.43545,0 1.10366,-1.95072 1.48491,-4.33494 0.38125,-2.38422 1.07889,-4.8224 1.5503,-5.41818 0.4714,-0.59577 1.11909,-2.47648 1.43929,-4.17934 1.37512,-7.31309 2.48963,-11.49695 3.62457,-13.6066 0.66703,-1.23982 1.21273,-3.41839 1.21273,-4.84125 0,-1.42287 0.4644,-2.87405 1.032,-3.22486 0.5677,-0.35081 1.0321,-1.54555 1.0321,-2.655 0,-1.10944 0.4167,-2.82358 0.9261,-3.80922 0.5093,-0.98563 1.718,-3.88192 2.686,-6.43621 0.968,-2.55428 2.1767,-5.45057 2.686,-6.4362 0.5094,-0.98564 0.9261,-2.64028 0.9261,-3.67699 0,-1.67547 3.4904,-10.03853 6.2185,-14.89963 0.5532,-0.98563 1.0058,-2.25743 1.0058,-2.82622 0,-1.64248 14.625,-31.46538 15.6176,-31.84692 0.4922,-0.18922 0.8949,-0.93701 0.8949,-1.66177 0,-2.34627 17.543,-26.26331 23.7217,-32.34081 6.8165,-6.70481 6.9352,-6.80431 14.5409,-12.19481 3.0794,-2.18248 5.8311,-4.21388 6.1149,-4.51423 1.0037,-1.06225 11.9386,-5.96532 17.0285,-7.63543 6.6858,-2.1937 12.7598,-2.21822 13.59,-0.0549 0.908,2.36643 -1.8158,4.58014 -6.996,5.68573 -4.6012,0.98199 -17.095,5.83892 -18.9784,7.37774 -0.5676,0.46379 -3.1219,2.19134 -5.6762,3.83902 -7.4573,4.81043 -24.0997,21.80953 -25.6976,26.24831 -0.227,0.63065 -0.694,1.37885 -1.0379,1.66265 -1.5468,1.27681 -6.2896,8.22887 -6.2896,9.21945 0,0.6055 -0.4102,1.1009 -0.9116,1.1009 -0.5014,0 -1.1998,0.81272 -1.552,1.80605 -0.3521,0.99334 -2.0813,4.36035 -3.8426,7.48225 -1.7613,3.1219 -4.8237,8.9271 -6.8053,12.90043 -1.9816,3.97333 -4.2542,8.45693 -5.0501,9.96355 -0.7958,1.50663 -1.447,3.48039 -1.447,4.38615 0,0.90575 -0.4644,1.64683 -1.032,1.64683 -0.5677,0 -1.0321,0.83594 -1.0321,1.85766 0,1.02171 -0.3973,2.29885 -0.8828,2.83809 -0.4856,0.53924 -1.6646,3.53472 -2.6199,6.65662 -0.9554,3.1219 -2.1362,6.60502 -2.6241,7.74026 -3.2142,7.47974 -4.0952,9.73824 -5.2335,13.41644 -0.7026,2.27047 -1.6849,4.93456 -2.1828,5.92019 -0.4979,0.98567 -0.9054,2.73353 -0.9054,3.88417 0,1.15065 -0.3989,2.8985 -0.8865,3.88414 -1.5844,3.20243 -4.2736,12.33447 -4.2736,14.51208 0,1.16745 -0.4644,2.40967 -1.0321,2.76048 -0.5676,0.35081 -1.0468,1.88757 -1.0648,3.41502 -0.018,1.52745 -0.7147,3.67868 -1.54806,4.7805 -0.83338,1.10182 -1.51524,3.51259 -1.51524,5.35727 0,1.84467 -0.46441,3.64098 -1.03203,3.99179 -0.56762,0.35081 -1.03204,2.26641 -1.03204,4.25689 0,1.99049 -0.49843,4.5504 -1.10763,5.68869 -1.49633,2.79593 -4.05254,12.79023 -4.05254,15.84471 0,1.35786 -0.46441,2.75585 -1.03203,3.10666 -0.56762,0.35081 -1.03203,2.15848 -1.03203,4.01704 0,1.85856 -0.3477,3.7269 -0.77266,4.15185 -0.72965,0.72966 -2.13358,7.35262 -4.28455,20.21205 -0.52219,3.1219 -2.16739,11.24917 -3.65601,18.0606 -2.44239,11.17556 -3.85933,18.83663 -5.44002,29.41297 -0.69463,4.64781 -1.99155,6.1922 -5.19998,6.1922 -2.50096,0 -2.56361,-0.16475 -1.86391,-4.90216 z M 784.44131,710.29355 c -1.16121,-1.16121 -0.42763,-4.17338 2.89431,-11.88445 2.27311,-5.27644 2.28558,-5.50185 0.51391,-9.2883 -0.99865,-2.13434 -2.67926,-5.11336 -3.73469,-6.62003 -1.05542,-1.50666 -1.91896,-3.46882 -1.91896,-4.36034 0,-2.04562 3.31188,-1.45813 14.88714,2.64077 4.5835,1.62306 11.35233,3.91061 15.04185,5.08346 7.30546,2.32231 10.94393,5.03418 10.01214,7.46238 -0.54397,1.41755 -5.38194,4.002 -18.4698,9.86655 -2.66504,1.19419 -5.09582,2.17125 -5.40174,2.17125 -0.3059,0 -3.31437,1.33608 -6.68548,2.96906 -3.99461,1.93502 -6.48082,2.61751 -7.13868,1.95965 z m -63.39344,-10.8003 c -1.25508,-0.32798 -1.80606,-1.50029 -1.80606,-3.84275 0,-4.38355 2.93171,-5.76617 12.22656,-5.76617 7.85228,0 9.44615,0.96778 9.44615,5.73557 0,3.23155 -0.0528,3.26422 -6.34359,3.92173 -6.82601,0.71346 -10.66031,0.69975 -13.52306,-0.0484 z m 41.1493,-2.51806 c -2.15029,-3.06997 -2.10895,-4.31327 0.21332,-6.41489 1.42877,-1.29303 3.91575,-1.70801 10.23593,-1.70801 10.61881,0 11.61353,0.40129 11.61353,4.68502 0,4.03975 -0.34694,4.1884 -12.00045,5.14168 -7.98078,0.65283 -8.46966,0.57005 -10.06233,-1.7038 z"
       id="path1" />
  </g>
</svg>
