<?xml version="1.0" encoding="UTF-8" standalone="no"?>
<!-- Created with Inkscape (http://www.inkscape.org/) -->

<svg
   version="1.1"
   id="svg1"
   width="1920"
   height="1080"
   viewBox="0 0 1920 1080"
   xmlns="http://www.w3.org/2000/svg"
   xmlns:svg="http://www.w3.org/2000/svg">
  <defs
     id="defs1" />
  <g
     id="g1">
    <path
       style="fill:#000000;stroke-width:4.25241"
       d="m 795.96508,937.27672 c -11.69415,-3.25397 -26.87703,-5.95324 -33.73979,-5.99833 -6.86277,-0.0453 -20.55834,-3.99381 -30.43465,-8.77481 -22.2748,-10.78306 -32.84175,-30.35123 -29.08306,-53.85677 2.31447,-14.47377 0.95198,-17.98828 -12.50494,-32.25679 -18.71036,-19.83877 -26.26461,-43.46207 -17.95415,-56.14549 5.18218,-7.90901 4.50293,-10.27599 -6.47476,-22.56212 -15.42048,-17.25851 -18.47483,-51.64515 -7.65563,-86.18834 4.45591,-14.22662 3.92178,-16.02434 -8.43052,-28.37668 -13.09817,-13.09813 -15.20235,-21.63211 -13.37353,-54.23987 1.27668,-22.76266 17.7951,-50.28306 35.32081,-58.84602 22.15969,-10.82704 114.103,-27.16338 184.53065,-32.78705 32.34439,-2.58276 59.56369,-5.4516 60.48735,-6.37526 0.92367,-0.92367 -0.61748,-9.86698 -3.42478,-19.87404 l -5.1042,-18.19469 -43.3222,-0.41418 c -53.69977,-0.51364 -88.28433,-12.27764 -103.76786,-35.29685 -10.82815,-16.0981 -12.78706,-39.37069 -3.93249,-46.71934 3.18258,-2.64135 20.88322,-6.69705 39.33478,-9.01265 42.38642,-5.31946 76.47245,-18.60204 79.91424,-31.14084 1.98997,-7.24976 3.35424,-7.97147 6.33231,-3.34989 3.04608,4.7271 6.53137,4.93708 17.64433,1.0631 21.1924,-7.38772 54.94876,-5.67562 75.94858,3.85205 10.68153,4.84623 22.36949,7.33425 27.22083,5.7945 6.6191,-2.10085 7.9181,-1.17723 5.8658,4.17097 -1.5579,4.05963 -0.4683,6.86912 2.664,6.86912 5.767,0 19.9475,14.81269 19.9475,20.8368 0,2.05146 21.0006,23.24693 46.6681,47.10113 42.1849,39.20453 50.4577,49.52286 86.1113,107.40373 30.3311,49.24002 42.3903,65.24301 52.2003,69.27238 7.0165,2.88188 38.149,7.62919 69.1833,10.54954 51.2927,4.82665 66.4817,8.57168 57.3952,14.15159 -1.7923,1.10062 -30.0483,-0.52172 -62.7913,-3.60525 -32.7431,-3.08347 -60.2203,-4.91868 -61.0608,-4.07832 -0.8404,0.8404 2.508,7.19599 7.4407,14.12344 4.9329,6.92748 8.9688,14.85144 8.9688,17.6088 0,14.21879 -15.1447,-5.89935 -59.4199,-78.93349 -47.4145,-78.21242 -50.4691,-82.13041 -108.4364,-139.08547 -32.8061,-32.23329 -66.9045,-63.64544 -75.77409,-69.80473 -32.75994,-22.74941 -69.21218,-24.66013 -111.72179,-5.85613 -14.82186,6.55642 -18.85975,10.54709 -18.85975,18.63922 0,15.29701 -15.28194,31.91264 -33.9824,36.94815 -16.58993,4.46722 -44.89551,2.19905 -55.67168,-4.46099 -10.28727,-6.35789 -1.55548,-8.38608 19.31644,-4.48677 31.87582,5.95503 61.83286,-6.72663 61.83286,-26.17565 0,-6.219 -1.86627,-7.54456 -7.44175,-5.28572 -4.09294,1.65821 -22.75037,4.88616 -41.46098,7.17325 -18.71059,2.28711 -36.87568,6.93022 -40.36687,10.31813 -10.27001,9.96612 5.83669,35.4456 29.98883,47.43976 29.7992,14.79843 91.39334,17.69119 124.7392,5.85822 13.78335,-4.89102 28.2859,-11.81172 32.22792,-15.37919 9.32215,-8.43646 13.84147,-8.23345 12.12493,0.54464 -0.75617,3.86696 -10.94279,12.27482 -22.63694,18.68401 -13.11482,7.18787 -20.51519,13.8631 -19.31292,17.42043 4.54866,13.45914 5.00841,109.95131 0.5239,109.95131 -2.86383,0 -4.5992,-11.34777 -4.5992,-30.07404 v -30.07407 l -49.9658,2.63787 c -51.36805,2.71187 -75.93679,6.06366 -145.3606,19.83093 -47.35738,9.39127 -57.81364,15.34827 -68.58582,39.07391 -16.61292,36.5896 -7.33339,68.30711 23.78886,81.31081 7.82941,3.27139 41.61874,9.10453 75.08734,12.96267 33.4686,3.85811 80.61941,11.65804 104.7796,17.33325 56.48634,13.26854 82.4313,13.54745 94.10999,1.01185 27.77184,-29.80957 -8.08127,-58.08064 -106.14451,-83.69777 -74.35323,-19.42333 -110.56264,-31.6602 -110.56264,-37.36431 0,-7.63371 2.13566,-7.36797 37.52689,4.66939 16.78138,5.70769 30.51165,9.3091 30.51165,8.00304 0,-1.306 -5.78289,-8.96093 -12.85085,-17.01089 -7.06792,-8.04995 -11.63621,-16.6016 -10.15164,-19.00366 3.24367,-5.24834 30.79223,20.07758 35.81873,32.92885 2.35601,6.02359 10.15545,10.63136 24.03939,14.2021 106.35535,27.35302 145.3536,56.38025 127.18541,94.66689 -4.81259,10.14176 -5.83597,17.76541 -3.30378,24.61065 5.38858,14.56674 1.32826,28.69817 -12.10563,42.13214 -11.84827,11.84828 -11.85946,11.91377 -3.28947,19.25168 6.90514,5.91232 8.06458,10.44066 5.88504,22.98514 -1.49285,8.59221 -2.56966,23.68952 -2.393,33.5496 0.18463,10.28949 -3.40947,25.24015 -8.43537,35.09174 -11.16274,21.88078 -47.38344,50.33866 -81.03743,63.66944 -23.81093,9.43184 -25.28871,10.72298 -16.20338,14.15617 18.13287,6.85205 215.63031,-8.15286 256.63671,-19.49808 36.3815,-10.06571 66.9287,-28.44233 94.3107,-56.7357 29.2567,-30.23061 39.1651,-30.20493 16.0702,0.0425 -17.2764,22.62627 -23.1905,18.50362 46.8447,32.6551 39.1911,7.91902 53.7392,13.57076 48.4772,18.83277 -1.1541,1.15402 -24.4749,-2.64126 -51.8242,-8.43396 -27.3493,-5.79355 -54.9097,-10.53302 -61.2456,-10.53302 -6.3358,0 -26.8998,7.45051 -45.6977,16.55673 -43.5683,21.10553 -58.6816,24.51161 -143.3153,32.29873 -86.12391,7.92423 -180.82066,7.81095 -209.79332,-0.25089 z m 57.40751,-27.46097 c 12.86352,-5.48868 29.48586,-14.0205 36.93854,-18.95959 12.86837,-8.52829 13.13586,-9.23896 5.31549,-14.12286 -5.27541,-3.29458 -8.23478,-9.8926 -8.23478,-18.35965 0,-12.20137 -0.89859,-13.02108 -11.69412,-10.66839 -34.72499,7.56767 -80.68414,11.66538 -117.17698,10.44745 -31.34045,-1.04604 -41.66872,-0.0202 -43.31538,4.28981 -4.16511,10.90903 -2.1035,28.67366 4.40609,37.96745 16.33028,23.31469 89.16093,28.43599 133.76114,9.40578 z m 73.57186,-51.97344 c 12.33897,-16.6881 16.20584,-26.76476 13.23839,-34.49774 -1.7355,-4.52268 -6.83004,-3.35642 -23.21898,5.31549 -18.19579,9.62799 -21.00043,12.85804 -21.03145,24.22111 -0.0202,7.21137 1.23995,14.38733 2.79919,15.94652 6.60449,6.60453 18.6851,1.90065 28.21285,-10.98538 z m -70.69539,-17.60856 c 40.01168,-8.61936 75.59379,-29.33351 87.11676,-50.71515 3.01121,-5.58738 2.21073,-10.70818 -2.89088,-18.49425 -5.77941,-8.82043 -9.48643,-10.36992 -20.50121,-8.56923 -53.39454,8.72917 -86.90943,11.40154 -155.44456,12.39481 -85.42813,1.2381 -89.79798,2.58701 -83.94388,25.9118 4.04245,16.10634 26.82819,40.41491 42.45777,45.29541 16.81128,5.24949 98.35294,1.68468 133.206,-5.82339 z M 886.6181,805.7503 c -3.62351,-7.95267 -3.62351,-13.30934 0,-21.26205 6.57136,-14.42247 14.66851,-14.17676 9.17271,0.27876 -2.72086,7.15635 -2.68462,13.64336 0.10542,18.85628 5.37483,10.04304 5.35556,12.75837 -0.0905,12.75837 -2.38893,0 -6.52325,-4.78395 -9.18733,-10.63103 z m 2.79535,-49.49434 c 46.14413,-8.11003 75.08159,-30.87015 63.19473,-49.70438 -4.55856,-7.22272 -30.87661,-7.87578 -35.44947,-0.87966 -1.16942,1.78911 -6.43384,4.59726 -11.69863,6.24025 -14.55762,4.54308 -20.37362,18.33007 -11.75156,27.85741 4.23903,4.68405 5.32482,8.76083 2.75607,10.34839 -4.70722,2.90924 -17.57758,-13.23613 -17.57758,-22.05049 0,-3.09411 4.89994,-10.52562 10.88878,-16.51446 5.98879,-5.98881 10.29433,-11.34219 9.56791,-11.89644 -7.31142,-5.57793 -96.58893,-21.15213 -183.801,-32.06344 -48.70622,-6.09372 -51.40226,-3.98727 -51.40226,40.16107 0,27.19139 1.35214,32.83791 10.09124,42.14027 5.55022,5.90791 15.11812,11.46787 21.26205,12.3555 21.01667,3.03633 168.47223,-1.5215 193.91972,-5.99402 z M 1100.602,731.42988 c -54.3245,-19.77995 -81.3855,-37.58902 -81.3855,-53.56043 0,-5.67731 1.9135,-10.32241 4.2524,-10.32241 2.3388,0 4.2524,2.773 4.2524,6.16223 0,15.83598 75.0822,52.93201 107.7276,53.2251 11.0898,0.0994 15.7432,1.84568 14.556,5.46191 -2.7778,8.46183 -24.6858,8.03328 -49.4029,-0.9664 z M 884.6646,665.38803 c -3.46688,-9.0345 9.39846,-26.98562 21.52081,-30.0281 5.59959,-1.40543 14.66491,-6.4e-4 20.14512,3.12178 9.66713,5.50795 9.4572,5.71525 -7.04562,6.95715 -17.81396,1.34058 -28.65401,10.26705 -24.76743,20.39531 1.25898,3.28091 0.11069,5.96528 -2.55174,5.96528 -2.66242,0 -5.94795,-2.88511 -7.30114,-6.41142 z M 583.53956,429.29161 c -6.60118,-21.11576 -10.75719,-39.63729 -9.23557,-41.15895 1.5217,-1.52163 8.72819,1.64092 16.01451,7.02792 12.83156,9.48682 13.71499,9.57178 28.11485,2.70501 8.17681,-3.89928 15.68323,-6.27329 16.68095,-5.27557 2.28824,2.28821 -33.63363,75.09384 -37.0509,75.09384 -1.38693,0 -7.9227,-17.27649 -14.52384,-38.39225 z m 18.99898,-60.47623 c 0.0986,-16.23474 4.90689,-28.70375 11.06896,-28.70375 3.28281,0 5.85702,4.22859 5.82457,9.56794 -0.0986,16.23473 -4.90689,28.70375 -11.06892,28.70375 -3.28281,0 -5.85702,-4.22861 -5.82461,-9.56794 z m 110.50458,-0.78626 c 0,-12.02301 8.41376,-27.91749 14.77816,-27.91749 7.72021,0 7.97945,2.9455 1.81544,20.62749 -4.69107,13.45691 -16.5936,18.68603 -16.5936,7.29 z m 230.16256,-14.46135 c -5.96601,-10.82481 -3.1684,-17.79294 4.18955,-10.43502 2.51918,2.51917 3.83871,8.13235 2.93238,12.47372 -1.47887,7.08371 -2.20943,6.87457 -7.12193,-2.0387 z M 703.12083,333.02429 c -5.60896,-5.60895 -3.07358,-35.43674 3.01213,-35.43674 5.25832,0 11.16257,17.15029 11.16257,32.42462 0,6.04798 -9.18665,8.00015 -14.1747,3.01212 z m 286.32881,-5.41892 c 0,-2.20079 1.91359,-5.18409 4.25238,-6.62957 2.33883,-1.44547 4.2524,0.35516 4.2524,4.00145 0,3.64627 -1.91357,6.62957 -4.2524,6.62957 -2.33879,0 -4.25238,-1.80064 -4.25238,-4.00145 z M 868.83503,312.49541 c 1.34112,-3.4948 4.15142,-5.29546 6.24514,-4.00145 6.00411,3.71072 4.43947,10.35563 -2.43833,10.35563 -3.79347,0 -5.28791,-2.49444 -3.80681,-6.35418 z m 112.10979,0.22653 c 0,-3.64627 1.91359,-6.62959 4.25242,-6.62959 2.33879,0 4.2524,1.80065 4.2524,4.00145 0,2.20079 -1.91361,5.18411 -4.2524,6.62957 -2.33883,1.44548 -4.25242,-0.35515 -4.25242,-4.00143 z m -359.34974,-6.66397 c -4.23783,-6.85694 2.22365,-30.02862 9.11046,-32.67134 9.66332,-3.70817 11.30097,1.13672 5.9078,17.47816 -5.48288,16.61329 -10.80997,22.00239 -15.01826,15.19318 z m 114.78491,-0.0487 c -4.16515,-6.73938 6.36407,-33.93614 13.13836,-33.93614 7.25926,0 7.64293,6.91526 1.38042,24.87989 -4.76896,13.68032 -9.74331,16.78312 -14.51878,9.05624 z m 125.49738,-8.4217 c 0,-2.33882 1.91362,-4.2524 4.25241,-4.2524 2.33883,0 4.25241,1.91358 4.25241,4.2524 0,2.33883 -1.91358,4.25241 -4.25241,4.25241 -2.33879,0 -4.25241,-1.91358 -4.25241,-4.25241 z m 110.56264,-2.12619 c 0,-3.50824 1.91357,-6.37862 4.25241,-6.37862 2.33883,0 4.2524,2.87038 4.2524,6.37862 0,3.50823 -1.91357,6.3786 -4.2524,6.3786 -2.33884,0 -4.25241,-2.87037 -4.25241,-6.3786 z m -117.07325,-10.8446 c -4.04066,-6.53802 1.49412,-10.75633 6.95202,-5.29843 3.05398,3.05399 3.12736,5.43257 0.223,7.22759 -2.381,1.47154 -5.60972,0.60342 -7.17497,-1.92916 z m 108.56843,-4.03886 c 0,-2.33882 1.91357,-4.25241 4.2524,-4.25241 2.33883,0 4.25242,1.91359 4.25242,4.25241 0,2.33883 -1.91359,4.2524 -4.25242,4.2524 -2.33883,0 -4.2524,-1.91357 -4.2524,-4.2524 z m -8.50483,-14.63246 c 0,-3.64627 1.91359,-6.62958 4.25241,-6.62958 2.33883,0 4.25242,1.80065 4.25242,4.00145 0,2.2008 -1.91359,5.1841 -4.25242,6.62957 -2.33882,1.44547 -4.25241,-0.35515 -4.25241,-4.00144 z m -104.97125,-3.98519 c 1.23689,-3.22325 0.13413,-7.97531 -2.45086,-10.56014 -2.58482,-2.58485 -3.39209,-6.00733 -1.79387,-7.60553 3.97025,-3.97028 5.96237,-1.35491 9.39971,12.3407 1.99402,7.94466 1.27838,11.6854 -2.23548,11.6854 -2.84262,0 -4.15639,-2.6372 -2.9195,-5.86043 z m -155.8431,-1.22691 c -5.66277,-5.66279 -3.06769,-35.43674 3.08869,-35.43674 7.15861,0 11.086,9.16211 11.086,25.86224 0,11.66961 -7.20972,16.53949 -14.17469,9.5745 z m 231.04748,-12.04849 c 0,-3.50824 1.91362,-6.37862 4.25241,-6.37862 2.33883,0 4.25241,2.87038 4.25241,6.37862 0,3.50824 -1.91358,6.37861 -4.25241,6.37861 -2.33879,0 -4.25241,-2.87037 -4.25241,-6.37861 z m 21.26205,0 c 0,-3.50824 1.91359,-6.37862 4.25241,-6.37862 2.33883,0 4.25241,2.87038 4.25241,6.37862 0,3.50824 -1.91358,6.37861 -4.25241,6.37861 -2.33882,0 -4.25241,-2.87037 -4.25241,-6.37861 z m -36.14545,-6.37862 c -1.4455,-2.33882 -0.60164,-4.2524 1.8752,-4.2524 2.47688,0 4.50342,1.91358 4.50342,4.2524 0,2.33883 -0.84387,4.25241 -1.87525,4.25241 -1.03136,0 -3.0579,-1.91358 -4.50337,-4.25241 z m -265.7755,-6.58979 c 0,-9.00773 12.07201,-31.68188 16.86784,-31.68188 8.00471,0 8.56755,8.38207 1.55086,23.0962 -7.35484,15.42326 -18.4187,20.58057 -18.4187,8.58568 z m 117.92539,4.03028 c -4.89852,-4.89852 11.0917,-31.45975 18.93927,-31.45975 9.43757,0 9.4473,0.33581 0.551,18.99157 -6.7111,14.0733 -13.52575,18.43273 -19.49027,12.46818 z m 179.74316,-8.07151 c 0,-3.50823 1.91357,-6.37861 4.2524,-6.37861 2.33883,0 4.25241,2.87038 4.25241,6.37861 0,3.50824 -1.91358,6.37862 -4.25241,6.37862 -2.33883,0 -4.2524,-2.87038 -4.2524,-6.37862 z m -97.80537,-4.2524 c 0,-3.50824 1.91358,-6.37862 4.2524,-6.37862 2.33884,0 4.25242,2.87038 4.25242,6.37862 0,3.50824 -1.91358,6.37861 -4.25242,6.37861 -2.33882,0 -4.2524,-2.87037 -4.2524,-6.37861 z m 57.76023,2.69694 c -1.83181,-2.96394 -2.18216,-6.53738 -0.77859,-7.94101 3.80579,-3.80573 7.95531,1.79155 5.89976,7.95815 -1.44038,4.32119 -2.44201,4.31783 -5.12117,-0.017 z m 33.53453,-13.54151 c -4.04068,-6.53801 1.49407,-10.75633 6.95201,-5.29842 3.05399,3.05399 3.12735,5.43256 0.22301,7.22758 -2.38105,1.47154 -5.60977,0.60341 -7.17498,-1.92916 z m -91.29476,-3.7879 c 0,-2.20079 1.91358,-5.1841 4.2524,-6.62957 2.33884,-1.44548 4.25242,0.35516 4.25242,4.00145 0,3.64625 -1.91358,6.62957 -4.25242,6.62957 -2.33882,0 -4.2524,-1.80065 -4.2524,-4.00145 z m 51.02888,-2.37717 c 0,-3.50823 1.91358,-6.37861 4.25242,-6.37861 2.33883,0 4.2524,2.87038 4.2524,6.37861 0,3.50824 -1.91357,6.37862 -4.2524,6.37862 -2.33884,0 -4.25242,-2.87038 -4.25242,-6.37862 z m 36.49823,-10.06027 c -1.83181,-2.96395 -2.18221,-6.5374 -0.7786,-7.94101 3.8058,-3.80574 7.95527,1.79155 5.89976,7.95815 -1.44038,4.32119 -2.44205,4.31783 -5.12116,-0.017 z m -83.27471,-6.94936 c 0,-3.89804 2.05708,-6.40164 4.57133,-5.56357 2.51426,0.83809 4.57134,3.34169 4.57134,5.56357 0,2.22189 -2.05708,4.72549 -4.57134,5.56357 -2.51425,0.83808 -4.57133,-1.66552 -4.57133,-5.56357 z m 46.77648,-2.1262 c 0,-2.33883 1.91358,-4.2524 4.25242,-4.2524 2.33883,0 4.2524,1.91357 4.2524,4.2524 0,2.33882 -1.91357,4.25241 -4.2524,4.25241 -2.33884,0 -4.25242,-1.91359 -4.25242,-4.25241 z m -209.95911,-6.51765 c -4.79902,-12.50603 -2.80241,-18.99679 5.84353,-18.99679 5.66987,0 8.50481,2.83493 8.50481,8.50481 0,4.67764 0.10099,9.94 0.22462,11.69412 0.45854,6.51041 -12.00804,5.48204 -14.57296,-1.20214 z m 118.06591,-2.74187 c -3.48081,-5.63211 23.05253,-30.00983 28.79841,-26.4587 6.93762,4.28769 3.39972,12.97604 -9.02396,22.1613 -14.5718,10.77342 -15.62995,11.00336 -19.77445,4.2974 z m 124.13902,1.32544 c -1.83182,-2.96395 -2.1822,-6.53739 -0.77859,-7.941 3.80579,-3.80574 7.95526,1.79155 5.89976,7.95814 -1.44038,4.32119 -2.44205,4.31783 -5.12117,-0.017 z m -74.13205,-4.61052 c 0.93554,-2.8066 3.08832,-4.95938 4.78395,-4.78396 5.08461,0.52599 4.09994,6.35856 -1.382,8.18588 -2.80661,0.93553 -4.33745,-0.59534 -3.40195,-3.40192 z m 44.36517,0.35814 c -1.83181,-2.96394 -2.18216,-6.53739 -0.77859,-7.941 3.8058,-3.80575 7.95531,1.79155 5.89976,7.95814 -1.44037,4.3212 -2.44201,4.31784 -5.12117,-0.017 z m 23.03553,-15.45418 c 0,-3.50824 1.91358,-6.37862 4.25237,-6.37862 2.33883,0 4.25241,2.87038 4.25241,6.37862 0,3.50823 -1.91358,6.3786 -4.25241,6.3786 -2.33879,0 -4.25237,-2.87037 -4.25237,-6.3786 z m -55.28134,-4.50338 c 0,-3.64626 1.91358,-5.44691 4.25241,-4.00144 2.33883,1.44547 4.25241,4.42878 4.25241,6.62958 0,2.20079 -1.91358,4.00144 -4.25241,4.00144 -2.33883,0 -4.25241,-2.98332 -4.25241,-6.62958 z m 12.75723,-12.75722 c 0,-3.64627 1.91358,-5.44692 4.25241,-4.00144 2.33883,1.44546 4.25242,4.42878 4.25242,6.62957 0,2.2008 -1.91359,4.00145 -4.25242,4.00145 -2.33883,0 -4.25241,-2.98332 -4.25241,-6.62958 z m 29.76688,2.62813 c 0,-2.20079 1.91357,-5.18411 4.2524,-6.62957 2.33884,-1.44548 4.25242,0.35516 4.25242,4.00144 0,3.64626 -1.91358,6.62958 -4.25242,6.62958 -2.33883,0 -4.2524,-1.80065 -4.2524,-4.00145 z m -14.47282,-3.83902 c -1.47157,-2.381 -0.60341,-5.60973 1.92914,-7.17495 6.53799,-4.04072 10.75634,1.49408 5.2984,6.95199 -3.05399,3.05399 -5.43253,3.12736 -7.22754,0.22296 z"
       id="path1" />
  </g>
</svg>
